<?xml version="1.0" encoding="UTF-8" standalone="no"?>
<svg
   xmlns:dc="http://purl.org/dc/elements/1.1/"
   xmlns:cc="http://creativecommons.org/ns#"
   xmlns:rdf="http://www.w3.org/1999/02/22-rdf-syntax-ns#"
   xmlns:svg="http://www.w3.org/2000/svg"
   xmlns="http://www.w3.org/2000/svg"
   xmlns:sodipodi="http://sodipodi.sourceforge.net/DTD/sodipodi-0.dtd"
   xmlns:inkscape="http://www.inkscape.org/namespaces/inkscape"
   inkscape:version="1.0 (4035a4fb49, 2020-05-01)"
   sodipodi:docname="Club Logo COL.svg"
   xml:space="preserve"
   enable-background="new 0 0 250 500"
   viewBox="0 0 250 500"
   y="0px"
   x="0px"
   id="Layer_7"
   version="1.1"><metadata
   id="metadata635"><rdf:RDF><cc:Work
       rdf:about=""><dc:format>image/svg+xml</dc:format><dc:type
         rdf:resource="http://purl.org/dc/dcmitype/StillImage" /><dc:title></dc:title></cc:Work></rdf:RDF></metadata><defs
   id="defs633" /><sodipodi:namedview
   inkscape:current-layer="Layer_7"
   inkscape:window-maximized="1"
   inkscape:window-y="-8"
   inkscape:window-x="54"
   inkscape:cy="250"
   inkscape:cx="125"
   inkscape:zoom="1.78"
   showgrid="false"
   id="namedview631"
   inkscape:window-height="1057"
   inkscape:window-width="1858"
   inkscape:pageshadow="2"
   inkscape:pageopacity="0"
   guidetolerance="10"
   gridtolerance="10"
   objecttolerance="10"
   borderopacity="1"
   bordercolor="#666666"
   pagecolor="#ffffff" />
<g
   id="g628">
	<g
   id="g138">
		<g
   id="g10">
			<g
   id="g4">
				<path
   id="path2"
   d="M125,149.45c-61.93,0-112.14,65.35-112.14,145.97      c0,80.62,50.21,145.98,112.14,145.98c61.93,0,112.14-65.36,112.14-145.98C237.14,214.8,186.93,149.45,125,149.45z M125,399.63      c-39.37,0-71.29-46.61-71.29-104.1c0-57.49,31.91-104.09,71.29-104.09c39.37,0,71.28,46.61,71.28,104.09      C196.28,353.02,164.37,399.63,125,399.63z"
   fill="#002B5C"
   clip-rule="evenodd"
   fill-rule="evenodd" />
			</g>
			<g
   id="g8">
				<path
   id="path6"
   d="M125,149.45c-61.93,0-112.14,65.35-112.14,145.97      c0,80.62,50.21,145.98,112.14,145.98c61.93,0,112.14-65.36,112.14-145.98C237.14,214.8,186.93,149.45,125,149.45z M125,399.63      c-39.37,0-71.29-46.61-71.29-104.1c0-57.49,31.91-104.09,71.29-104.09c39.37,0,71.28,46.61,71.28,104.09      C196.28,353.02,164.37,399.63,125,399.63z"
   stroke-width="2.3604"
   stroke="#FFD200"
   fill="none" />
			</g>
		</g>
		<g
   id="g56">
			<path
   id="path12"
   d="M35.24,370.37c-0.99-2.04-1.24-3.89-0.75-5.53c0.49-1.64,1.79-2.98,3.92-4.01     c1.64-0.8,3.14-1.12,4.5-0.97c1.36,0.15,2.52,0.85,3.49,2.09l0.07-0.03c-0.42-1.32-0.46-2.42-0.12-3.3     c0.34-0.87,1.16-1.71,2.47-2.51c0.44-0.26,0.92-0.54,1.44-0.82c0.53-0.28,1.12-0.6,1.77-0.94c1.29-0.67,2.25-1.2,2.91-1.61     c0.62-0.47,0.94-0.99,0.97-1.57l0.21-0.1l2.57,5.3c-0.22,0.42-0.54,0.77-0.95,1.05c-0.41,0.28-0.86,0.55-1.32,0.81l-4.64,2.42     c-0.94,0.51-1.58,1.12-1.92,1.82c-0.34,0.7-0.26,1.56,0.24,2.58l1.28,2.63l10.37-5.03l2.38,4.89l-24.47,11.87L35.24,370.37z      M46.96,367.29c-0.58-1.18-1.3-1.96-2.17-2.33c-0.87-0.37-1.97-0.23-3.3,0.42c-2.27,1.1-2.84,2.79-1.74,5.07l1.13,2.32l7.07-3.43     L46.96,367.29z"
   fill="#FFD200" />
			<path
   id="path14"
   d="M36.81,354.15c-1.72,0.31-3.27,0.34-4.64,0.08c-1.38-0.27-2.57-0.88-3.59-1.84     c-1.01-0.96-1.81-2.43-2.4-4.39c-0.59-1.96-0.71-3.62-0.39-4.99c0.32-1.36,0.99-2.53,2-3.51c1.01-0.97,2.32-1.79,3.93-2.48     c1.61-0.68,3.4-1.31,5.38-1.89c1.99-0.59,3.85-1.05,5.55-1.36c1.71-0.31,3.25-0.34,4.63-0.07c1.38,0.26,2.55,0.88,3.53,1.85     c0.98,0.97,1.76,2.45,2.35,4.41c0.58,1.96,0.73,3.62,0.45,4.97c-0.28,1.35-0.93,2.52-1.94,3.49c-1.01,0.97-2.31,1.79-3.91,2.47     c-1.6,0.68-3.4,1.31-5.39,1.9C40.37,353.39,38.53,353.83,36.81,354.15z M45.2,346.07c1.2-0.45,2.15-0.91,2.83-1.4     c0.69-0.48,1.14-1.01,1.35-1.59c0.21-0.58,0.2-1.25-0.03-2.03c-0.23-0.78-0.59-1.34-1.08-1.71c-0.49-0.37-1.16-0.57-2-0.59     c-0.84-0.02-1.89,0.1-3.14,0.38c-1.25,0.28-2.75,0.68-4.5,1.2c-1.75,0.52-3.22,1.01-4.41,1.45c-1.19,0.45-2.14,0.91-2.84,1.4     c-0.7,0.49-1.16,1.01-1.37,1.59c-0.21,0.58-0.2,1.25,0.03,2.02c0.23,0.77,0.59,1.35,1.08,1.71c0.49,0.36,1.17,0.56,2.02,0.58     c0.85,0.02,1.9-0.1,3.14-0.38c1.24-0.27,2.73-0.67,4.48-1.2C42.52,347.01,44,346.52,45.2,346.07z"
   fill="#FFD200" />
			<path
   id="path16"
   d="M31.95,323.61l-0.01-0.08l-10.97-2.14l-0.91-5.85l17.38,4.4L48,318.29l0.85,5.42l-10.57,1.65l-15.21,9.49     l-0.95-6.08L31.95,323.61z"
   fill="#FFD200" />
			<path
   id="path18"
   d="M19.38,300.39l26.92-8.17l0.21,5.7l-5.7,1.46l0.26,7.22l5.79,1.04l0.21,5.7l-27.45-6.19L19.38,300.39z      M36.38,300.49l-12.15,3.07l0,0.08l12.34,2.17L36.38,300.49z"
   fill="#FFD200" />
			<path
   id="path20"
   d="M19.5,287.92l0.47-5.43l22.61,1.94l0.83-9.64l4.47,0.38l-1.29,15.07L19.5,287.92z"
   fill="#FFD200" />
			<path
   id="path22"
   d="M26.26,247.58c0.31-1.07,0.7-2.03,1.18-2.89c0.48-0.85,1.07-1.53,1.77-2.04c0.7-0.51,1.53-0.83,2.48-0.95     c0.96-0.12,2.06,0,3.3,0.35c1.41,0.4,2.53,1.08,3.35,2.02c0.82,0.95,1.23,2.13,1.22,3.55l0.07,0.02     c0.61-1.41,1.57-2.38,2.86-2.94c1.29-0.55,2.82-0.58,4.58-0.08c1.03,0.29,1.97,0.71,2.81,1.24c0.85,0.53,1.54,1.22,2.05,2.06     c0.51,0.84,0.83,1.84,0.95,3c0.12,1.15-0.04,2.5-0.47,4.03l-2.53,8.88l-26.12-7.44L26.26,247.58z M36.37,252.67     c0.42-1.46,0.46-2.6,0.13-3.41c-0.33-0.82-1.12-1.4-2.35-1.76c-1.24-0.35-2.2-0.3-2.88,0.17c-0.68,0.46-1.21,1.35-1.59,2.66     l-0.54,1.9l6.81,1.94L36.37,252.67z M48.07,255.41c0.36-1.27,0.37-2.37,0.03-3.3c-0.34-0.94-1.27-1.63-2.78-2.06     c-0.76-0.22-1.41-0.29-1.97-0.23c-0.56,0.07-1.04,0.23-1.45,0.5c-0.41,0.27-0.74,0.63-1,1.08c-0.26,0.45-0.47,0.97-0.64,1.55     l-0.64,2.26l7.87,2.24L48.07,255.41z"
   fill="#FFD200" />
			<path
   id="path24"
   d="M35.58,222.88c0.97-2.06,2.24-3.43,3.83-4.08c1.58-0.66,3.44-0.49,5.58,0.52     c1.65,0.77,2.85,1.74,3.58,2.89c0.73,1.16,0.92,2.5,0.57,4.04l0.07,0.03c0.76-1.15,1.59-1.87,2.48-2.15     c0.89-0.28,2.06-0.17,3.5,0.34c0.48,0.17,0.99,0.38,1.55,0.61c0.55,0.23,1.17,0.49,1.84,0.79c1.33,0.56,2.37,0.97,3.1,1.19     c0.76,0.18,1.37,0.11,1.84-0.23l0.21,0.1l-2.51,5.35c-0.46,0.09-0.94,0.06-1.42-0.08c-0.48-0.14-0.97-0.31-1.46-0.52l-4.8-2.08     c-0.99-0.41-1.86-0.52-2.62-0.35c-0.76,0.18-1.38,0.79-1.86,1.82l-1.24,2.66l10.43,4.88l-2.32,4.95l-24.63-11.54L35.58,222.88z      M45.32,230.05c0.56-1.2,0.71-2.25,0.45-3.16c-0.26-0.91-1.05-1.67-2.38-2.29c-2.27-1.06-3.94-0.45-5.02,1.86l-1.1,2.35     l7.07,3.31L45.32,230.05z"
   fill="#FFD200" />
			<path
   id="path26"
   d="M42.75,209.77l2.95-4.57l22.82,14.71l-2.95,4.58L42.75,209.77z"
   fill="#FFD200" />
			<path
   id="path28"
   d="M63.12,193.69c-0.47-0.27-0.96-0.46-1.46-0.56c-0.5-0.11-0.99-0.11-1.47-0.01     c-0.48,0.1-0.9,0.36-1.27,0.77c-0.88,0.98-0.96,2.18-0.25,3.59c0.71,1.41,2.34,3.25,4.87,5.52c1.21,1.08,2.34,2.02,3.4,2.83     c1.05,0.8,2.01,1.41,2.88,1.83c0.87,0.42,1.65,0.61,2.35,0.57c0.7-0.04,1.31-0.35,1.83-0.93c0.22-0.25,0.39-0.57,0.52-0.98     c0.13-0.41,0.17-0.86,0.13-1.35c-0.04-0.49-0.18-1-0.44-1.54c-0.26-0.53-0.66-1.05-1.21-1.54l-2.08-1.85l-2.4,2.7l-3.03-2.71     l5.92-6.63l10.96,9.78l-2.7,3.02l-1.87-1.67l-0.05,0.06c0.36,1.2,0.39,2.3,0.11,3.28c-0.28,0.98-0.86,1.96-1.72,2.92     c-1.11,1.25-2.24,2.07-3.37,2.47c-1.14,0.4-2.36,0.41-3.67,0.05c-1.31-0.37-2.69-1.07-4.17-2.12c-1.47-1.04-3.09-2.35-4.85-3.92     c-1.7-1.52-3.11-2.97-4.2-4.33c-1.09-1.37-1.83-2.7-2.22-4.01c-0.39-1.3-0.41-2.58-0.07-3.84c0.34-1.26,1.1-2.54,2.26-3.85     c1.99-2.23,3.98-3.34,5.97-3.33c1.99,0.01,4.02,0.94,6.08,2.78l-3.49,3.91C64.02,194.27,63.6,193.96,63.12,193.69z"
   fill="#FFD200" />
			<path
   id="path30"
   d="M74.77,174.96l5.69,8.73l5.37-3.5l-5.69-8.72l4.58-2.98l14.84,22.77l-4.58,2.98l-6.59-10.11l-5.37,3.5     l6.59,10.11l-4.58,2.98l-14.84-22.77L74.77,174.96z"
   fill="#FFD200" />
			<path
   id="path32"
   d="M112.49,163.72l-5.72,1.56l5.99,21.92l-5.27,1.44l-5.99-21.92l-5.72,1.56l-1.18-4.31l16.7-4.57     L112.49,163.72z"
   fill="#FFD200" />
			<path
   id="path34"
   d="M122.24,166.16c0.33-1.72,0.87-3.17,1.61-4.36c0.74-1.19,1.75-2.08,3.02-2.68     c1.27-0.6,2.92-0.82,4.97-0.65c2.05,0.16,3.65,0.64,4.8,1.43c1.16,0.79,2.01,1.84,2.55,3.13c0.54,1.29,0.84,2.81,0.89,4.56     c0.05,1.75-0.01,3.65-0.17,5.69c-0.17,2.08-0.41,3.96-0.74,5.67c-0.33,1.71-0.87,3.15-1.61,4.34c-0.74,1.19-1.75,2.06-3.01,2.62     c-1.26,0.56-2.92,0.76-4.97,0.59c-2.05-0.16-3.65-0.62-4.81-1.38c-1.16-0.76-2.01-1.78-2.56-3.07c-0.54-1.29-0.84-2.81-0.89-4.54     c-0.05-1.74,0.01-3.64,0.17-5.71C121.67,169.76,121.91,167.88,122.24,166.16z M126.74,176.92c-0.01,1.29,0.08,2.34,0.28,3.16     c0.2,0.82,0.53,1.43,0.99,1.84c0.46,0.41,1.09,0.64,1.89,0.71c0.8,0.07,1.46-0.07,1.98-0.39c0.52-0.33,0.94-0.88,1.27-1.66     c0.33-0.78,0.59-1.8,0.78-3.08c0.19-1.27,0.36-2.82,0.51-4.65c0.15-1.82,0.23-3.37,0.24-4.65c0.01-1.28-0.08-2.33-0.28-3.16     c-0.2-0.83-0.53-1.45-0.99-1.86c-0.46-0.41-1.09-0.64-1.89-0.71c-0.8-0.07-1.46,0.07-1.98,0.39c-0.52,0.33-0.94,0.89-1.27,1.68     c-0.33,0.79-0.59,1.82-0.78,3.08c-0.19,1.26-0.36,2.8-0.5,4.63C126.84,174.07,126.76,175.63,126.74,176.92z"
   fill="#FFD200" />
			<path
   id="path36"
   d="M157.45,185.67l0.05,0.03l8.01-16.8l4.52,2.16l-11.69,24.53l-5.64-2.69l2.14-20.06l-0.07-0.03     l-8.19,17.17l-4.52-2.16l11.7-24.53l5.71,2.73L157.45,185.67z"
   fill="#FFD200" />
			<path
   id="path38"
   d="M186.17,198.64l0.05,0.06l10.38-4.17l3.95,4.42l-16.97,5.76l-7.98,7.13l-3.66-4.1l7.98-7.14l7.61-16.23     l4.1,4.59L186.17,198.64z"
   fill="#FFD200" />
			<path
   id="path40"
   d="M209.59,213.31l-19.46,20.25l-2.96-4.87l4.24-4.05l-3.75-6.17l-5.54,1.91l-2.96-4.87l26.93-7.98     L209.59,213.31z M194.74,221.5l9.08-8.6l-0.04-0.07l-11.81,4.12L194.74,221.5z"
   fill="#FFD200" />
			<path
   id="path42"
   d="M215.56,237.36c0.67-0.77,0.77-1.73,0.32-2.88c-0.25-0.64-0.63-1.09-1.13-1.37     c-0.5-0.28-1.19-0.39-2.05-0.32c-0.86,0.07-1.93,0.3-3.2,0.69c-1.28,0.39-2.81,0.94-4.61,1.64c-1.91,0.75-3.43,1.43-4.57,2.02     c-1.13,0.59-1.97,1.15-2.51,1.68c-0.54,0.53-0.85,1.04-0.91,1.54c-0.06,0.5,0.01,1.02,0.22,1.57c0.18,0.44,0.42,0.84,0.72,1.16     c0.31,0.33,0.74,0.54,1.32,0.65c0.57,0.1,1.31,0.07,2.21-0.09c0.9-0.16,2.04-0.52,3.41-1.05l2,5.11     c-1.37,0.54-2.71,0.94-4.02,1.21c-1.31,0.27-2.54,0.3-3.7,0.08c-1.15-0.22-2.2-0.75-3.13-1.59c-0.93-0.85-1.73-2.11-2.39-3.79     c-0.75-1.91-1.04-3.56-0.87-4.93c0.17-1.37,0.71-2.59,1.63-3.65c0.92-1.06,2.15-1.99,3.69-2.8c1.54-0.81,3.27-1.59,5.21-2.35     c1.91-0.75,3.71-1.36,5.4-1.81c1.69-0.46,3.23-0.61,4.62-0.46c1.39,0.15,2.64,0.66,3.73,1.54c1.09,0.88,2.02,2.28,2.77,4.19     c0.71,1.82,0.98,3.37,0.81,4.65c-0.17,1.28-0.61,2.36-1.31,3.23c-0.7,0.88-1.55,1.58-2.55,2.13c-1,0.54-1.96,0.99-2.88,1.35     l-2.01-5.11C213.64,238.87,214.9,238.13,215.56,237.36z"
   fill="#FFD200" />
			<path
   id="path44"
   d="M225.66,253.84l-10.11,2.29l1.42,6.22l10.11-2.29l1.21,5.32l-26.49,6.02l-1.21-5.32l11.76-2.67     l-1.41-6.22l-11.76,2.67l-1.21-5.32l26.49-6.01L225.66,253.84z"
   fill="#FFD200" />
			<path
   id="path46"
   d="M226.31,288.92l-0.55-5.9l-22.56,2.09l-0.5-5.43l22.55-2.09l-0.54-5.9l4.47-0.41l1.59,17.23     L226.31,288.92z"
   fill="#FFD200" />
			<path
   id="path48"
   d="M225.07,315.32c0.94-0.39,1.46-1.21,1.57-2.45c0.06-0.69-0.07-1.27-0.4-1.74     c-0.33-0.48-0.89-0.88-1.7-1.2c-0.8-0.33-1.87-0.6-3.19-0.82c-1.32-0.22-2.95-0.41-4.88-0.58c-2.05-0.18-3.72-0.26-5-0.23     c-1.28,0.02-2.28,0.16-3,0.39c-0.72,0.23-1.23,0.56-1.5,0.98c-0.28,0.42-0.45,0.93-0.5,1.51c-0.04,0.48,0,0.94,0.13,1.37     c0.13,0.43,0.43,0.82,0.89,1.17c0.47,0.35,1.14,0.65,2.02,0.91c0.88,0.25,2.06,0.45,3.52,0.58l-0.47,5.42     c-1.47-0.13-2.85-0.36-4.15-0.71c-1.29-0.34-2.4-0.87-3.33-1.57c-0.93-0.7-1.62-1.64-2.07-2.81c-0.46-1.17-0.6-2.65-0.45-4.44     c0.18-2.04,0.65-3.64,1.41-4.79c0.76-1.15,1.79-2,3.09-2.53c1.3-0.53,2.81-0.82,4.55-0.86c1.74-0.04,3.64,0.03,5.72,0.21     c2.05,0.18,3.93,0.44,5.64,0.78c1.72,0.34,3.17,0.89,4.35,1.64c1.18,0.75,2.07,1.76,2.66,3.03c0.59,1.27,0.8,2.93,0.62,4.98     c-0.17,1.94-0.62,3.44-1.34,4.51c-0.72,1.07-1.59,1.83-2.61,2.31c-1.02,0.47-2.09,0.72-3.23,0.77c-1.14,0.04-2.2,0.02-3.18-0.07     l0.48-5.43C222.68,315.82,224.13,315.72,225.07,315.32z"
   fill="#FFD200" />
			<path
   id="path50"
   d="M228.2,328.57l-1.16,5.37l-22.18-4.8l-2.05,9.47l-4.36-0.94l3.21-14.84L228.2,328.57z"
   fill="#FFD200" />
			<path
   id="path52"
   d="M203.77,347.62c-0.64-0.23-1.25-0.41-1.82-0.52c-0.57-0.11-1.09-0.13-1.56-0.04     c-0.48,0.08-0.9,0.28-1.27,0.59c-0.37,0.31-0.66,0.76-0.88,1.36c-0.23,0.62-0.3,1.16-0.21,1.63c0.09,0.46,0.29,0.88,0.6,1.25     c0.31,0.37,0.72,0.7,1.23,0.97c0.51,0.28,1.08,0.54,1.73,0.77l17.81,6.49l-1.88,5.16l-17.8-6.48c-1.62-0.59-2.87-1.31-3.77-2.15     c-0.9-0.84-1.51-1.75-1.86-2.74c-0.34-0.99-0.44-2.01-0.3-3.07c0.14-1.05,0.41-2.11,0.79-3.16c0.38-1.05,0.85-2.03,1.39-2.95     c0.55-0.91,1.25-1.64,2.11-2.19c0.86-0.55,1.91-0.86,3.15-0.92c1.23-0.06,2.71,0.22,4.42,0.84l17.8,6.49l-1.88,5.16     L203.77,347.62z"
   fill="#FFD200" />
			<path
   id="path54"
   d="M209.59,380.52c-0.55,0.97-1.16,1.8-1.83,2.52c-0.67,0.71-1.4,1.23-2.2,1.56     c-0.8,0.33-1.68,0.43-2.64,0.33c-0.96-0.11-2-0.49-3.12-1.13c-1.28-0.73-2.21-1.65-2.78-2.76c-0.58-1.11-0.7-2.36-0.35-3.73     l-0.06-0.04c-0.93,1.22-2.09,1.95-3.47,2.18c-1.39,0.23-2.87-0.1-4.45-1.01c-0.92-0.53-1.74-1.15-2.43-1.87     c-0.7-0.72-1.19-1.55-1.48-2.49c-0.3-0.94-0.36-1.98-0.2-3.13c0.16-1.15,0.63-2.42,1.42-3.8l4.57-8.02l23.57,13.44L209.59,380.52     z M190.3,367.73c-0.66,1.15-0.93,2.22-0.83,3.21c0.1,0.99,0.83,1.88,2.19,2.65c0.68,0.39,1.3,0.62,1.86,0.68     c0.55,0.07,1.06,0.02,1.52-0.14c0.46-0.16,0.87-0.43,1.23-0.81c0.36-0.39,0.69-0.84,1-1.36l1.17-2.05l-7.07-4.04L190.3,367.73z      M200.96,373.15c-0.75,1.32-1.07,2.42-0.94,3.3c0.13,0.87,0.75,1.63,1.87,2.27c1.12,0.64,2.07,0.81,2.85,0.53     c0.77-0.29,1.5-1.03,2.18-2.22l0.98-1.72l-6.17-3.52L200.96,373.15z"
   fill="#FFD200" />
		</g>
		<path
   id="path58"
   d="M174.96,393.06    c-0.25,0.18-0.62,0.15-0.92,0.31c-0.1,0.1-0.2,0.2-0.31,0.31c-0.54,0.4-1.06,0.83-1.58,1.22c-0.28,0.21-1.04,0.63-1.23,0.87    c-0.11,0.14-0.08,0.35-0.16,0.51c-0.62,1.46,1.08,2.9,1.69,3.73c0.3,0.42,0.51,1.08,1.23,1.07c0.19,0.13,0.49,0.05,0.76,0.1    c1.24,0.26,2.43-0.66,3.27-1.18c0.3-0.18,0.92-0.3,1.02-0.66c0.19-0.3,0.02-0.83,0.1-1.23c0.3-1.41-0.09-1.84-0.51-2.81    c-0.16-0.36-0.22-0.7-0.51-0.92c-0.45-0.35-1.23-0.76-1.43-1.33C175.91,393.06,175.43,393.06,174.96,393.06z"
   stroke-width="0.3372"
   stroke="#000000"
   fill="none"
   clip-rule="evenodd"
   fill-rule="evenodd" />
		<path
   d="m 179.56,397.32999 a 4.4400001,4.52 0 0 1 -4.44,4.52 4.4400001,4.52 0 0 1 -4.44,-4.52 4.4400001,4.52 0 0 1 4.44,-4.52 4.4400001,4.52 0 0 1 4.44,4.52"
   style="clip-rule:evenodd;fill:#ffd200;fill-rule:evenodd"
   id="ellipse60" />
		<path
   id="path62"
   d="M121.39,423.08    c-0.17,0.15-0.38,0.16-0.61,0.26c-0.86,0.37-1.68,0.58-1.99,1.54c-0.07,0.21-0.23,0.51-0.15,0.86c0.04,0.18,0.08,0.46,0.1,0.66    c0.56,0.56,1.12,1.13,1.68,1.69c0.34,0.34,0.79,0.57,1.12,0.92c1.03,0.03,2.89-0.31,3.17-0.87c-0.17-0.22-0.06-0.48,0-0.72    c0.12-0.12,0.24-0.24,0.36-0.36c0.19-0.06,0.37-0.14,0.56-0.2c0.05-0.09-0.27-1.09-0.31-1.18c-0.09-0.27-0.17-0.55-0.25-0.81    c-0.12-0.16-0.4-0.24-0.56-0.36c-0.53-0.39-1.07-0.82-1.38-1.43C122.54,423.08,121.96,423.08,121.39,423.08z"
   stroke-width="0.3372"
   stroke="#000000"
   fill="none"
   clip-rule="evenodd"
   fill-rule="evenodd" />
		<path
   id="path64"
   d="M148,391.3c0,0-10.73,22.34-8.04,50.38    c1.98,20.74,2.86,23.36,2.86,23.36l-0.18,2.25l-1.16,2.78c0,0-10.62,19.91-13.4,20.94c-2.78,1.03-0.45,1.03-3.49,1.38    c-3.04,0.35-2.37-0.31-4.29-1.56c-1.92-1.25-6.44-4.5-8.04-6.23c-1.61-1.73-6.43-6.87-6.75-7.64c-0.32-0.77-0.76-1.02-1.12-2.58    c-0.36-1.56-1.61-2.77-2.68-19.56c-0.81-12.62-0.74-29.69,0.79-38.38c1.53-8.69,4.93-21.33,6.9-23.75    c1.97-2.42,7.69-5.71,14.3-6.41c4.09-0.43,20.2,1.39,21.99,1.91C147.47,388.72,148,391.3,148,391.3z"
   fill="#FFD200"
   clip-rule="evenodd"
   fill-rule="evenodd" />
		<path
   id="path66"
   d="    M110.18,395.69l34.37,13.33c0,0,24.59,8.79,40.14,8.52"
   stroke-linecap="round"
   stroke-width="3.372"
   stroke="#FFD200"
   fill="none"
   clip-rule="evenodd"
   fill-rule="evenodd" />
		<path
   id="path68"
   d="    M89.69,398.26l49.11,19.18c0,0,19.58,6.97,35.67,9.34"
   stroke-linecap="round"
   stroke-width="1.3488"
   stroke="#FFD200"
   fill="none"
   clip-rule="evenodd"
   fill-rule="evenodd" />
		<path
   id="path70"
   d="    M86.72,401.66l41.74,16.53c11.49,3.91,22.1,8.34,39.01,12.09"
   stroke-linecap="round"
   stroke-width="1.3488"
   stroke="#FFD200"
   fill="none"
   clip-rule="evenodd"
   fill-rule="evenodd" />
		<path
   id="path72"
   d="    M84.67,405.31l36.55,15.12c0,0,20.24,7.69,39.95,12.66"
   stroke-linecap="round"
   stroke-width="1.3488"
   stroke="#FFD200"
   fill="none"
   clip-rule="evenodd"
   fill-rule="evenodd" />
		<path
   id="path74"
   d="    M81.81,408.79l30.32,13.18c0,0,21.7,7.51,42.73,14.05"
   stroke-linecap="round"
   stroke-width="1.3488"
   stroke="#FFD200"
   fill="none"
   clip-rule="evenodd"
   fill-rule="evenodd" />
		<path
   id="path76"
   d="    M79.76,412.51l22.74,10.53c0,0,29.44,11.64,45.78,14.8"
   stroke-linecap="round"
   stroke-width="1.3488"
   stroke="#FFD200"
   fill="none"
   clip-rule="evenodd"
   fill-rule="evenodd" />
		<path
   id="path78"
   d="    M77.61,416.18l18.85,9.15c0,0,23.44,10.34,40.31,12.98"
   stroke-linecap="round"
   stroke-width="1.3488"
   stroke="#FFD200"
   fill="none"
   clip-rule="evenodd"
   fill-rule="evenodd" />
		<path
   id="path80"
   d="    M75.6,419.95l12.46,6.58c0,0,26.65,12.92,39.83,12.92"
   stroke-linecap="round"
   stroke-width="1.3488"
   stroke="#FFD200"
   fill="none"
   clip-rule="evenodd"
   fill-rule="evenodd" />
		<path
   id="path82"
   d="    M92.64,395.39l49.11,19.18c0,0,21.66,7.38,37.48,8.43"
   stroke-linecap="round"
   stroke-width="1.3488"
   stroke="#FFD200"
   fill="none"
   clip-rule="evenodd"
   fill-rule="evenodd" />
		<path
   id="path84"
   d="M142.89,392.13c0,0-10.09,22.29-8.13,47.17    c1.45,18.4,2.09,20.73,2.09,20.73l-0.13,2l-0.85,2.47c0,0-7.76,17.67-9.79,18.58c-2.03,0.91-0.33,0.91-2.55,1.22    c-2.22,0.31-1.73-0.27-3.13-1.38c-1.41-1.11-4.7-3.99-5.88-5.53c-1.18-1.53-4.7-6.09-4.93-6.77c-0.23-0.68-0.55-0.9-0.82-2.29    c-0.26-1.39-1.18-2.46-1.96-17.36c-0.59-11.2-0.54-26.35,0.58-34.06c1.12-7.71,3.6-18.92,5.04-21.08    c1.44-2.15,5.62-5.06,10.45-5.68c2.99-0.38,16.56,1.23,17.87,1.69C142.05,392.3,142.89,392.13,142.89,392.13z"
   fill="#002B5C"
   clip-rule="evenodd"
   fill-rule="evenodd" />
		<g
   id="g88">
			<path
   id="path86"
   d="M121.76,443.62c0.02-1.68,3.21,4.02,2.89,5.16     c0.32-1.13,5.94-4.48,5.08-3.02c0.86-1.45,0.77,5.08-0.08,5.91c0.85-0.83,7.38-0.92,5.91-0.08c1.47-0.84-1.87,4.77-3.03,5.08     c1.15-0.3,6.41,2.88,4.76,2.88c1.66,0-3.6,3.19-4.76,2.89c1.15,0.3,4.5,5.92,3.03,5.08c1.47,0.84-5.06,0.75-5.91-0.08     c0.85,0.83,0.94,7.36,0.08,5.91c0.86,1.45-4.75-1.88-5.08-3.02c0.32,1.13-2.86,6.83-2.89,5.16c0.02,1.68-3.17-4.02-2.89-5.16     c-0.28,1.13-5.9,4.47-5.08,3.02c-0.82,1.45-0.73-5.08,0.08-5.91c-0.81,0.83-7.34,0.92-5.91,0.08c-1.43,0.84,1.91-4.77,3.02-5.08     c-1.11,0.3-6.81-2.89-5.16-2.89c-1.66,0,4.04-3.19,5.16-2.88c-1.11-0.3-4.46-5.91-3.02-5.08c-1.43-0.84,5.1-0.75,5.91,0.08     c-0.81-0.83-0.9-7.36-0.08-5.91c-0.82-1.45,4.8,1.89,5.08,3.02C118.6,447.64,121.78,441.94,121.76,443.62z"
   stroke-width="3.0348"
   stroke="#FFD200"
   fill="none" />
		</g>
		<g
   id="g92">
			<path
   id="path90"
   d="M121.72,445c0-1.52,2.88,3.64,2.61,4.66c0.27-1.02,5.35-4.05,4.59-2.73c0.76-1.31,0.68,4.59-0.07,5.34     c0.75-0.75,6.65-0.83,5.34-0.07c1.31-0.76-1.71,4.32-2.73,4.59c1.02-0.27,6.18,2.61,4.66,2.61c1.52,0-3.64,2.88-4.66,2.61     c1.02,0.27,4.04,5.35,2.73,4.59c1.31,0.76-4.59,0.68-5.34-0.07c0.75,0.75,0.83,6.66,0.07,5.34c0.76,1.31-4.31-1.71-4.59-2.74     c0.27,1.02-2.61,6.18-2.61,4.66c0,1.52-2.88-3.64-2.61-4.66c-0.27,1.02-5.35,4.05-4.59,2.74c-0.76,1.31-0.68-4.59,0.07-5.34     c-0.75,0.75-6.65,0.83-5.34,0.07c-1.31,0.76,1.71-4.31,2.73-4.59c-1.02,0.27-6.18-2.61-4.66-2.61c-1.52,0,3.64-2.88,4.66-2.61     c-1.02-0.27-4.05-5.35-2.73-4.59c-1.31-0.76,4.59-0.68,5.34,0.07c-0.75-0.75-0.83-6.65-0.07-5.34c-0.76-1.31,4.31,1.71,4.59,2.73     C118.84,448.64,121.72,443.48,121.72,445z"
   fill="#002B5C" />
		</g>
		<path
   id="path94"
   d="M125.25,459.7c0,1.78-1.45,3.23-3.23,3.23    c-1.78,0-3.23-1.45-3.23-3.23c0-1.78,1.44-3.23,3.23-3.23C123.81,456.47,125.25,457.92,125.25,459.7z"
   fill="#FFD200"
   clip-rule="evenodd"
   fill-rule="evenodd" />
		<path
   id="path96"
   d="M129.89,396.23c0,1.56-1.73,2.83-3.87,2.83    c-2.14,0-3.87-1.26-3.87-2.83c0-1.56,1.73-2.82,3.87-2.82C128.16,393.41,129.89,394.68,129.89,396.23z"
   fill="#FFD200"
   clip-rule="evenodd"
   fill-rule="evenodd" />
		<path
   id="path98"
   d="M126.78,411.35c0,1.78-1.73,3.23-3.87,3.23    c-2.14,0-3.87-1.45-3.87-3.23c0-1.78,1.73-3.23,3.87-3.23C125.04,408.12,126.78,409.57,126.78,411.35z"
   fill="#FFD200"
   clip-rule="evenodd"
   fill-rule="evenodd" />
		<path
   id="path100"
   d="M125.54,427.82c0,1.78-1.73,3.23-3.87,3.23    c-2.14,0-3.87-1.45-3.87-3.23c0-1.78,1.73-3.22,3.87-3.22C123.81,424.59,125.54,426.04,125.54,427.82z"
   fill="#FFD200"
   clip-rule="evenodd"
   fill-rule="evenodd" />
		<path
   id="path102"
   d="M111.98,471.02c0,1.4-0.87,2.54-1.94,2.54    c-1.07,0-1.94-1.14-1.94-2.54c0-1.4,0.87-2.54,1.94-2.54C111.11,468.48,111.98,469.61,111.98,471.02z"
   fill="#FBD437"
   clip-rule="evenodd"
   fill-rule="evenodd" />
		<path
   id="path104"
   d="M135.25,470.33c0,0.91-0.6,1.65-1.34,1.65    c-0.74,0-1.34-0.74-1.34-1.65c0-0.91,0.6-1.65,1.34-1.65C134.65,468.68,135.25,469.42,135.25,470.33z"
   stroke-width="3.0348"
   stroke="#FBD437"
   fill="#FBD437" />
		<path
   id="path106"
   d="M108.44,455.58c0,0.89-0.61,1.61-1.35,1.61    c-0.75,0-1.35-0.72-1.35-1.61c0-0.89,0.61-1.61,1.35-1.61C107.84,453.97,108.44,454.69,108.44,455.58z"
   stroke-width="1.3488"
   stroke="#FBD437"
   fill="#FBD437" />
		<path
   id="path108"
   d="M138.44,455.77c0,0.57-0.87,1.03-1.93,1.03    c-1.06,0-1.93-0.46-1.93-1.03c0-0.57,0.87-1.03,1.93-1.03C137.58,454.74,138.44,455.2,138.44,455.77z"
   stroke-width="1.3488"
   stroke="#FBD437"
   fill="#FBD437" />
		<path
   d="m 138.32001,463.75 a 1.61,1.29 0 0 1 -1.61,1.29 1.61,1.29 0 0 1 -1.61,-1.29 1.61,1.29 0 0 1 1.61,-1.29 1.61,1.29 0 0 1 1.61,1.29"
   style="fill:#fbd437;stroke:#fbd437;stroke-width:1.3488"
   id="ellipse110" />
		<path
   id="path112"
   d="M113.47,473.03c0,0.78-0.89,1.42-2,1.42    c-1.1,0-1.99-0.63-1.99-1.42c0-0.79,0.89-1.41,1.99-1.41C112.57,471.61,113.47,472.24,113.47,473.03z"
   stroke-width="1.3488"
   stroke="#FBD437"
   fill="#FBD437" />
		<g
   id="g122">
			<g
   id="g116">
				<path
   id="path114"
   d="M145.32,339.25c7.38,3.41,14.75,6.24,14.75,6.24      s-15.61,12.48-26.39,15.89c-0.28-10.78-5.39-100.15-5.39-100.15l42.27-8.23l-0.28-9.93l-41.99-0.28l-0.57-8.51      c0,0,8.51-0.57,8.79-9.93c0.29-9.36-7.94-13.33-12.2-13.33c-4.25,0-13.33,3.97-12.77,12.2c0.57,8.23,5.67,10.78,8.79,11.92      c0,1.98-0.28,7.66-0.28,7.66H77.79v9.93l41.71,8.8l-3.69,99.59c0,0-15.6-4.83-27.52-14.75c5.96-2.55,14.75-6.52,14.75-6.52      s-13.62-7.66-21.28-12.77c-7.66-5.11-14.75-10.21-14.75-10.21s2.84,31.78,17.31,43.69c0-3.97,0-9.36,0-9.36      s14.47,18.16,40.57,25.82c10.22-4.26,32.91-18.16,39.44-24.97c0,3.69,0,9.36,0,9.36s14.47-13.33,16.45-43.97      C178.8,320.24,157.52,334.99,145.32,339.25z M123.9,229.17c-2.9,0-5.25-2.35-5.25-5.25c0-2.9,2.35-5.25,5.25-5.25      c2.9,0,5.25,2.35,5.25,5.25C129.15,226.82,126.8,229.17,123.9,229.17z"
   fill="#FFD200"
   clip-rule="evenodd"
   fill-rule="evenodd" />
			</g>
			<g
   id="g120">
				<path
   id="path118"
   d="M145.32,339.25c7.38,3.41,14.75,6.24,14.75,6.24      s-15.61,12.48-26.39,15.89c-0.28-10.78-5.39-100.15-5.39-100.15l42.27-8.23l-0.28-9.93l-41.99-0.28l-0.57-8.51      c0,0,8.51-0.57,8.79-9.93c0.29-9.36-7.94-13.33-12.2-13.33c-4.25,0-13.33,3.97-12.77,12.2c0.57,8.23,5.67,10.78,8.79,11.92      c0,1.98-0.28,7.66-0.28,7.66H77.79v9.93l41.71,8.8l-3.69,99.59c0,0-15.6-4.83-27.52-14.75c5.96-2.55,14.75-6.52,14.75-6.52      s-13.62-7.66-21.28-12.77c-7.66-5.11-14.75-10.21-14.75-10.21s2.84,31.78,17.31,43.69c0-3.97,0-9.36,0-9.36      s14.47,18.16,40.57,25.82c10.22-4.26,32.91-18.16,39.44-24.97c0,3.69,0,9.36,0,9.36s14.47-13.33,16.45-43.97      C178.8,320.24,157.52,334.99,145.32,339.25z M123.9,229.17c-2.9,0-5.25-2.35-5.25-5.25c0-2.9,2.35-5.25,5.25-5.25      c2.9,0,5.25,2.35,5.25,5.25C129.15,226.82,126.8,229.17,123.9,229.17z"
   stroke-width="1.0116"
   stroke="#002B5C"
   fill="none" />
			</g>
		</g>
		<path
   id="path124"
   d="M74.91,423.72    c-2.03,2.99-6.26,3.64-9.44,1.48l-1.57-1.07c-3.18-2.17-4.12-6.34-2.09-9.33l21.88-32.14c2.03-2.99,6.26-3.65,9.45-1.48l1.56,1.07    c3.18,2.17,4.12,6.34,2.09,9.33L74.91,423.72z"
   stroke-width="2.8662"
   stroke="#FFD200"
   fill="#002B5C"
   clip-rule="evenodd"
   fill-rule="evenodd" />
		<path
   id="path126"
   d="M78.23,398.71c0.86,0.83,0.86,2.23,0,3.12l0,0    c-0.86,0.89-2.26,0.95-3.12,0.12l-9.6-9.26c-0.86-0.83-0.86-2.23,0-3.12l0,0c0.86-0.89,2.26-0.95,3.12-0.12L78.23,398.71z"
   fill="#FFD200"
   clip-rule="evenodd"
   fill-rule="evenodd" />
		<g
   id="g136">
			<g
   id="g132">
				<path
   id="path128"
   d="M136.96,223.19      c0,7.15-5.72,12.95-12.78,12.95c-7.06,0-12.78-5.8-12.78-12.95c0-7.15,5.72-12.95,12.78-12.95      C131.24,210.24,136.96,216.04,136.96,223.19z"
   stroke-width="1.0116"
   stroke="#002B5C"
   fill="#FFD200"
   clip-rule="evenodd"
   fill-rule="evenodd" />
				<path
   id="path130"
   d="M129.59,223.19      c0,3.05-2.42,5.53-5.41,5.53c-2.99,0-5.41-2.48-5.41-5.53s2.42-5.52,5.41-5.52C127.17,217.67,129.59,220.14,129.59,223.19z"
   stroke-width="1.0116"
   stroke="#002B5C"
   fill="#FFFFFF"
   clip-rule="evenodd"
   fill-rule="evenodd" />
			</g>
			<path
   d="m 120.98,237.03 0.13,-2.88 6,0.02 0.14,2.86 z"
   style="clip-rule:evenodd;fill:#ffd200;fill-rule:evenodd"
   id="polygon134" />
		</g>
	</g>
	<g
   id="g620">
		<path
   d="m 63.12,104.94 10.43,26.83 52.02,-11.6 53.08,10.9 8.55,-19.1 -48.74,-11.84 -35.62,0.24 -29.53,-0.94 z"
   style="fill:#a32035"
   id="polygon140" />
		<path
   d="m 71.4,113.33 -7.71,-26.6 2.3,-4.59 2.88,-3.45 4.4,-1.15 5.17,0.77 3.83,1.72 0.77,-2.87 2.68,-4.6 3.45,-1.53 5.93,0.38 5.37,1.15 6.32,3.45 5.74,2.11 4.44,2.52 18.14,0.26 14.19,-6.42 8.24,-2.49 7.66,-2.69 3.64,1.73 3.25,3.64 0.96,4.02 2.3,-0.57 5.94,-0.96 4.21,1.34 2.88,2.87 1.72,5.17 -1.72,3.64 -3.45,4.98 -1.92,2.49 -2.87,-0.38 -0.57,1.53 3.06,6.7 1.15,7.28 -5.32,-0.1 -23.71,-12.3 -17.94,8.39 -31.29,-8.14 -26.12,5.83 z"
   style="fill:#a32035"
   id="polygon142" />
		<path
   id="path144"
   d="M79.6,104.29c0,0,3.45-10.34,5.94-14.37c2.49-4.02,5.94-7.66,5.94-7.66l0.77-0.57c0,0,3.64,3.45,5.17,4.79    c1.53,1.34,3.45,2.87,5.17,3.45c1.72,0.57,5.17,1.15,6.89,1.91c1.73,0.77,3.64,4.21,3.64,4.21l4.21-4.21l0.57-8.04l-7.09-1.72    l-2.3-0.77c0,0-3.07,0.38-3.83,1.15c-0.76,0.77-0.38,4.02-0.38,4.02l-2.11-1.53c0,0-0.38-3.45,0.19-3.64    c0.57-0.19,3.26-1.53,3.26-1.53s-2.3-0.38-6.32-3.64c-4.02-3.26-4.98-4.6-6.13-4.6c-1.15,0-7.28,1.53-8.04,2.3    c-0.77,0.77-2.11,3.64-2.11,3.64l1.15,2.68c0,0,3.45-1.34,5.36-2.49c1.92-1.15,2.49,0.19,3.45-1.34c0.96-1.53,1.91,0.38,1.53,1.15    c-0.38,0.77-2.68,3.07-4.21,3.83c-1.53,0.77-4.02,0.57-6.13-0.19c-2.11-0.76-2.87-3.06-4.79-3.06c-1.92,0-5.17,0-6.7,0    c-1.53,0-3.45,0.38-3.83,0.96c-0.39,0.57,0.76,0.77,2.11,0.77c1.34,0,1.34,2.65,3.06,3.45c2.49,1.15,4.21,3.64,5.55,4.79    c1.34,1.15,1.34,1.34,1.34,1.92c0,0.57-1.73,0.57-2.87,0.57c-1.15,0-1.72-2.3-1.72-2.3l-2.49-0.57l-2.49,0.38l-2.87,2.49    l-0.76,2.68l2.87,4.02h3.45l4.98,6.51"
   fill="#A32035" />
		<path
   id="path146"
   d="M145.07,96.47l-3.98-2.53c0,0,2.05-2.53,2.9-3.32c0.85-0.78,1.81-2.23,1.81-2.23s-1.33,0.06-1.93,0.06    c-0.6,0-1.21-1.03-1.21-1.57c0-0.54,0-2.78,0.24-3.08c0.24-0.3,0.79-0.97,1.27-0.97c0.48,0,1.21-0.06,1.81-0.42    c0.6-0.36,3.2-2.59,3.86-2.96c0.67-0.36,1.75-1.57,2.41-1.99c0.67-0.42,3.38-1.93,4.58-2.05c1.21-0.12,5.31-1.45,5.79-1.63    c0.49-0.18,1.99-0.54,2.6-0.54c0.6,0,2.23,0.72,2.53,0.85c0.3,0.12,1.39,0.42,1.69,0.9c0.3,0.48,0.49,1.21,0.36,1.51    c-0.12,0.3-0.6,0.9-1.08,0.9c-0.49,0-1.81,0.12-2.23-0.18c-0.42-0.3-0.97-0.42-1.57-0.84c-0.6-0.42-0.72-0.12-1.39-0.48    c-0.67-0.36-1.15,1.21-1.21,1.69c-0.06,0.48,0.6,2.29,0.97,2.59c0.36,0.3,3.38,1.03,3.8,1.09c0.42,0.06,2.47,0,3.08-0.3    c0.6-0.3,2.17-1.03,2.83-1.33c0.66-0.3,2.53-1.33,3.25-1.33c0.72,0,3.26-0.48,3.86-0.36c0.6,0.12,1.69,0.3,2.05,0.54    c0.36,0.24,1.69,1.63,2.23,2.65c0.54,1.03,1.09,2.53,0.84,3.56c-0.24,1.02-0.3,4.34-0.48,4.77c-0.18,0.42-0.6,0.48-0.6,0.48    s-0.54-0.78-1.27-1.45c-0.72-0.66-1.81-1.39-2.35-1.69c-0.54-0.3-1.69-1.15-2.71-1.15c-1.03,0-1.75,0.24-1.81,0.79    c-0.06,0.54,0.6,1.57,0.9,1.93c0.3,0.36,0.42,1.15,1.27,1.69c0.85,0.54,1.63,1.27,1.93,1.63c0.3,0.36,1.21,1.39,1.33,1.81    c0.12,0.42,0.42,0.85,0.06,1.03c-0.36,0.18-0.78,0.66-0.78,0.66l0.06,0.84l0.24,0.97c0,0-1.15-0.12-1.39-0.36    c-0.24-0.24-1.75-1.39-1.75-1.39s0.61,1.15,0.72,1.39c0.12,0.24,0.85,1.45,0.85,1.45s-0.12,1.02-0.48,0.54    c-0.36-0.48-1.39-1.39-1.69-1.99c-0.3-0.6-3.5-2.29-3.56-2.71c-0.06-0.42-2.29-2.9-2.29-2.9l-2.96-4.4l-2.84-2.83l-3.26-2.41    l-4.22,2.65l-3.86,2.66c0,0-3.44,2.77-5.19,4.28C147.36,92.49,145.07,96.47,145.07,96.47z"
   fill="#A32035" />
		<path
   id="path148"
   d="M73.14,130.76l-5.06-13.31c0,0,8.41,9.9,19.26,7.21    c7.57-1.88,9.94-11.27,9.94-11.27s6.95,8.45,17.22,5.84c5.84-1.49,6.6-5.12,13.36-4.85c2.48,0.1,7.62,3.47,7.62,3.47    s13.19,4.31,21.2-4.89c0,0.19,0.95,8.74,10.38,11.03c9.43,2.29,16.53-7.62,16.53-7.62l1.39,0.32l-4.65,13.34l-42.02-7.17    l-23.73-0.76l-26.49,5.23L73.14,130.76z"
   stroke-width="1.1381"
   stroke="#002B5C"
   fill="#FFFFFF" />
		<path
   id="path150"
   d="M113.93,30.6V10.83c0,0,2.3,8.99,9.6,6.52    c0,0,2.08-4.89-4.83-9.83h14.88c0,0-7.13,4.1-5.06,9.71c0,0,4.83,1.35,10.9-6.29v18.48c0,0-6.39-6.29-9.77-6.07    c0,0.17-2.58,2.65,6.68,12.64l0.34,4.01l-20.08,0.47L116,36c0,0,8.32-5.85,7.93-12.25C123.92,23.75,116.27,24.81,113.93,30.6z"
   stroke-width="1.1381"
   stroke="#002B5C"
   fill="#FFD200" />
		<path
   id="path152"
   d="M74.34,134.65c0,0,2.97,3.35,3.45,5.27    c0.48,1.92,0.86,6.42,0.86,6.42s25.28-8.43,47.98-7.85c22.7,0.57,48.93,10.53,48.93,10.53s0-5.84,1.15-8.72    c1.15-2.87,2.78-6.42,2.78-6.42s-18.29-9.28-51.62-9.19C91.76,124.79,74.34,134.65,74.34,134.65z"
   stroke-width="0.6829"
   stroke="#002B5C"
   fill="#FFD200" />
		<path
   id="path154"
   d="M78.65,146.33c0,0,19.64-9.79,47.94-10.22    c28.3-0.43,48.42,10.9,48.42,10.9s1.49,0.68,1.7,2.12c0.04,0.27-0.34,1.52-1.33,1.41c0,0,2.07,2.69-1.25,3.46    c0,0,0.48,1.15,0.53,2.53c0.08,2.29-2.79,3.7-2.79,3.7c-5.37-2.91-22.57-12.34-44.44-12.75c-13.78-0.26-28.42,1.5-47.12,11.51    c0,0-4.2-0.59-2.19-4.9c0,0-3.67,1.25-1.51-4.35C76.6,149.72,73.9,149.2,78.65,146.33z"
   stroke-width="1.089"
   stroke="#002B5C"
   fill="#FFFFFF" />
		<path
   id="path156"
   d="M168.18,149.19l-0.15,0.13c-0.17,0.15-0.32,0.39-0.44,0.61l-0.3,0.41c-0.21,0.13-0.42,0.13-0.6,0    l-0.08-0.06c-0.18-0.13-0.53-0.37-0.8-0.82c-0.3-0.49-1.54-0.75-2.09-0.75c-0.35,0-1.06,0.55-1.5,0.93    c0.55-0.16,1.65-0.48,2.16-0.49c0.68-0.02,1.09,0.79,1.24,1.14c0.08,0.19,0.51,0.67,0.61,0.71c0.59,0.28,1.09,0.41,1.4,0.38    c0.38-0.05,1.17,0.2,1.79,0.44c-0.44-0.33-0.88-0.73-0.88-0.91v-0.06l0.1-0.07c0.29-0.08,0.36-0.15,0.49-0.33    c0.14-0.17,0.42-0.16,0.85-0.15l0.38,0.01c0.15,0,0.3,0.02,0.43,0.04c-0.03-0.01-0.1-0.04-0.1-0.04    c-0.21-0.14-0.87-0.32-1.23-0.27c-0.14,0.02-0.33,0.16-0.47,0.26c-0.18,0.13-0.3,0.23-0.4,0.17c-0.08-0.04-0.08-0.15-0.08-0.23    c0.03-0.52,0.63-1.04,1.44-1.27c0.56-0.16,1.3,0.15,1.71,0.35c-0.3-0.32-0.79-0.65-1.58-0.83    C169.14,148.29,168.54,148.86,168.18,149.19z"
   fill="#002B5C" />
		<path
   id="path158"
   d="M169.67,148.39c-0.86,0-1.4,0.64-1.69,0.88c-0.33,0.28-0.55,0.9-0.73,1.02c-0.09,0.06-0.18,0.09-0.27,0.09    c-0.09,0-0.17-0.03-0.25-0.09c-0.15-0.12-0.55-0.35-0.87-0.87c-0.32-0.52-1.6-0.78-2.15-0.78c-0.55,0-1.8,1.17-1.8,1.17    s0.05-0.02,0.14-0.04l0,0c0.05-0.02,0.12-0.04,0.19-0.06l0,0c0.55-0.16,1.64-0.47,2.14-0.48c0.01,0,0.01,0,0.02,0    c0.67,0,1.06,0.9,1.15,1.1c0.08,0.2,0.53,0.69,0.65,0.75c0.17,0.08,0.83,0.39,1.32,0.39c0.04,0,0.08,0,0.12-0.01    c0.03,0,0.06,0,0.1,0c0.39,0,1.07,0.22,1.63,0.43l0,0c0.18,0.07,0.36,0.13,0.5,0.19l0,0c0.05,0.02,0.09,0.04,0.13,0.05    c-0.54-0.29-1.38-1.01-1.38-1.22c0-0.03,0.01-0.04,0.04-0.05c0.3-0.09,0.38-0.17,0.53-0.35c0.09-0.11,0.26-0.13,0.51-0.13    c0.18,0,0.4,0.01,0.66,0.01c0.12,0,0.24,0.01,0.36,0.03l0,0c0.29,0.04,0.53,0.13,0.68,0.18l0,0c0.08,0.03,0.13,0.06,0.13,0.06    s0.01-0.01,0.01-0.02c0-0.02-0.02-0.06-0.11-0.11c-0.11-0.06-0.47-0.12-0.7-0.27c-0.21-0.13-0.76-0.29-1.14-0.29    c-0.05,0-0.1,0-0.14,0.01c-0.29,0.04-0.65,0.45-0.8,0.45c-0.04,0-0.07-0.03-0.07-0.13c0-0.01,0-0.02,0-0.04    c0.03-0.48,0.6-0.98,1.39-1.2c0.1-0.03,0.21-0.04,0.32-0.04c0.47,0,1,0.22,1.33,0.38l0,0c0.08,0.04,0.15,0.08,0.2,0.11l0,0    c0.08,0.04,0.13,0.07,0.13,0.07c-0.23-0.33-0.75-0.88-1.85-1.13C169.94,148.4,169.8,148.39,169.67,148.39L169.67,148.39z     M166.98,150.52c0.12,0,0.23-0.04,0.35-0.11c0.11-0.07,0.2-0.23,0.32-0.44c0.13-0.21,0.26-0.45,0.43-0.59    c0.04-0.04,0.09-0.08,0.15-0.13c0.31-0.28,0.77-0.71,1.45-0.71c0.12,0,0.25,0.01,0.38,0.04l0,0c0.51,0.11,0.89,0.3,1.18,0.5    c-0.3-0.11-0.64-0.2-0.96-0.2c-0.13,0-0.25,0.01-0.36,0.04c-0.84,0.23-1.45,0.78-1.49,1.33c0,0.08,0,0.18,0.06,0.26    c0.04,0.04,0.09,0.06,0.15,0.06c0.11,0,0.22-0.08,0.38-0.2c0.14-0.1,0.31-0.23,0.43-0.25c0.04,0,0.08-0.01,0.12-0.01    c0.23,0,0.53,0.06,0.76,0.14c-0.13,0-0.25,0-0.36-0.01c-0.1,0-0.19,0-0.28,0c-0.29,0-0.5,0.03-0.62,0.18    c-0.14,0.17-0.2,0.23-0.46,0.3c-0.08,0.02-0.14,0.09-0.14,0.17c-0.02,0.17,0.23,0.45,0.55,0.72c-0.48-0.16-0.97-0.29-1.29-0.29    c-0.04,0-0.07,0-0.11,0c-0.03,0-0.07,0.01-0.1,0.01c-0.3,0-0.75-0.13-1.25-0.38c-0.1-0.05-0.51-0.51-0.58-0.68    c-0.15-0.36-0.57-1.19-1.28-1.19h-0.02c-0.43,0.01-1.27,0.23-1.86,0.4c0.44-0.35,0.95-0.69,1.2-0.69c0.56,0,1.76,0.27,2.03,0.71    c0.29,0.46,0.63,0.71,0.82,0.85c0.03,0.02,0.06,0.04,0.08,0.06C166.75,150.48,166.86,150.52,166.98,150.52L166.98,150.52z     M169.99,152.12c0.05,0.02,0.09,0.05,0.13,0.06l0,0c0,0,0.01,0,0.01,0.01l0,0c0.05,0.02,0.1,0.04,0.14,0.05    C170.27,152.24,170.16,152.19,169.99,152.12L169.99,152.12z"
   fill="#002B5C" />
		<g
   id="g164">
			<path
   id="path160"
   d="M150.68,143.42l-0.17,0.18v0c-0.21,0.21-0.37,0.54-0.52,0.83c-0.13,0.26-0.23,0.47-0.35,0.56     c-0.26,0.19-0.54,0.2-0.77,0.04l-0.11-0.07c-0.25-0.16-0.7-0.45-1.09-1.01c-0.42-0.61-2.02-0.85-2.73-0.81     c-0.45,0.03-1.32,0.8-1.85,1.32c0.69-0.26,2.07-0.75,2.73-0.8c0.86-0.07,1.45,0.95,1.67,1.39c0.12,0.24,0.71,0.82,0.84,0.88     c0.78,0.32,1.42,0.45,1.81,0.38c0.49-0.09,1.48,0.16,2.33,0.43c-0.59-0.39-1.2-0.89-1.2-1.13c0-0.07,0.04-0.12,0.11-0.15     c0.36-0.13,0.44-0.23,0.61-0.46c0.16-0.23,0.52-0.24,1.06-0.26l0.49-0.02c0.2-0.01,0.4,0,0.59,0.03     c-0.06-0.02-0.17-0.06-0.17-0.06c-0.29-0.16-1.14-0.35-1.6-0.26c-0.18,0.04-0.4,0.22-0.57,0.38c-0.22,0.18-0.37,0.32-0.5,0.26     c-0.11-0.05-0.12-0.19-0.12-0.29c0-0.68,0.72-1.4,1.74-1.75c0.71-0.25,1.67,0.09,2.21,0.32c-0.42-0.39-1.07-0.79-2.08-0.96     C151.84,142.18,151.11,142.95,150.68,143.42z"
   fill="#002B5C" />
			<path
   id="path162"
   d="M152.66,142.25c-1.18,0-1.85,0.92-2.22,1.28c-0.4,0.39-0.63,1.21-0.86,1.38     c-0.12,0.09-0.25,0.13-0.37,0.13c-0.1,0-0.2-0.03-0.29-0.1c-0.2-0.14-0.73-0.41-1.18-1.06c-0.41-0.6-1.87-0.85-2.64-0.85     c-0.06,0-0.12,0-0.17,0c-0.7,0.04-2.21,1.65-2.21,1.65s0.06-0.02,0.17-0.07l0,0c0.07-0.02,0.14-0.05,0.24-0.09l0,0     c0.69-0.26,2.06-0.74,2.7-0.79c0.03,0,0.05,0,0.08,0c0.83,0,1.38,1.09,1.5,1.34c0.12,0.25,0.73,0.86,0.89,0.92     c0.21,0.09,1.01,0.41,1.62,0.41c0.09,0,0.17,0,0.24-0.02c0.06-0.01,0.14-0.02,0.22-0.02c0.51,0,1.34,0.22,2.02,0.43l0,0     c0.24,0.07,0.46,0.15,0.65,0.21l0,0c0.06,0.02,0.12,0.04,0.18,0.06c-0.72-0.34-1.86-1.22-1.86-1.48c0-0.03,0.02-0.05,0.05-0.06     c0.38-0.13,0.48-0.25,0.65-0.5c0.18-0.25,0.72-0.19,1.48-0.24c0.05,0,0.11,0,0.16,0c0.11,0,0.2,0,0.31,0.01l0,0     c0.36,0.04,0.69,0.12,0.87,0.18l0,0c0.11,0.04,0.17,0.06,0.17,0.06s0.01-0.01,0.01-0.03c0-0.03-0.02-0.08-0.15-0.14     c-0.14-0.07-0.6-0.12-0.91-0.29c-0.25-0.14-0.87-0.29-1.36-0.29c-0.11,0-0.21,0.01-0.3,0.03c-0.37,0.07-0.8,0.65-0.99,0.65     c-0.06,0-0.09-0.05-0.1-0.2c0,0,0-0.01,0-0.01c0.01-0.63,0.69-1.32,1.68-1.66c0.16-0.06,0.35-0.08,0.53-0.08     c0.57,0,1.2,0.22,1.6,0.39l0,0c0.11,0.05,0.2,0.09,0.27,0.12l0,0c0.1,0.05,0.17,0.08,0.17,0.08c-0.33-0.41-1.03-1.09-2.45-1.33     C152.92,142.27,152.79,142.25,152.66,142.25L152.66,142.25z M149.21,145.23c0.16,0,0.32-0.06,0.48-0.17     c0.14-0.1,0.24-0.32,0.38-0.59c0.14-0.29,0.3-0.61,0.5-0.8c0.05-0.05,0.11-0.11,0.18-0.18c0.39-0.42,0.98-1.04,1.91-1.04     c0.12,0,0.24,0.01,0.37,0.03l0,0c0.66,0.11,1.16,0.32,1.54,0.56c-0.35-0.11-0.73-0.19-1.1-0.19c-0.22,0-0.42,0.03-0.59,0.09     c-1.05,0.37-1.79,1.12-1.8,1.84c0,0.1,0.01,0.24,0.1,0.32c0.05,0.05,0.11,0.08,0.18,0.08c0.15,0,0.3-0.13,0.5-0.29     c0.17-0.15,0.38-0.32,0.53-0.36c0.07-0.01,0.17-0.02,0.27-0.02c0.28,0,0.61,0.06,0.88,0.13c-0.17,0.01-0.33,0.01-0.47,0.02     c-0.55,0.02-0.95,0.03-1.13,0.3c-0.16,0.23-0.23,0.31-0.57,0.43c-0.1,0.04-0.17,0.12-0.17,0.22c-0.01,0.22,0.34,0.57,0.76,0.89     c-0.57-0.16-1.15-0.28-1.56-0.28c-0.09,0-0.18,0.01-0.25,0.02c-0.06,0.01-0.13,0.02-0.21,0.02c-0.38,0-0.93-0.14-1.55-0.39     c-0.13-0.06-0.69-0.62-0.79-0.83c-0.26-0.54-0.83-1.45-1.66-1.45c-0.03,0-0.06,0-0.09,0c-0.56,0.05-1.61,0.4-2.35,0.66     c0.54-0.49,1.15-0.97,1.48-0.99c0.04,0,0.1,0,0.16,0c0.8,0,2.14,0.28,2.49,0.78c0.4,0.58,0.87,0.87,1.12,1.03     c0.04,0.03,0.08,0.05,0.11,0.07C148.94,145.18,149.07,145.23,149.21,145.23L149.21,145.23z M153.22,147.07     c0.06,0.03,0.12,0.05,0.17,0.07l0,0c0,0,0.01,0.01,0.02,0.01l0,0c0.07,0.02,0.13,0.04,0.18,0.05     C153.59,147.2,153.45,147.15,153.22,147.07L153.22,147.07z"
   fill="#002B5C" />
		</g>
		<g
   id="g170">
			<path
   id="path166"
   d="M129.66,140.28l-0.15,0.21c-0.18,0.23-0.29,0.58-0.38,0.89c-0.09,0.28-0.16,0.5-0.26,0.61     c-0.23,0.22-0.5,0.28-0.75,0.16l-0.12-0.05c-0.27-0.12-0.76-0.34-1.23-0.83c-0.5-0.53-2.12-0.53-2.82-0.38     c-0.44,0.09-1.18,0.99-1.62,1.59c0.64-0.36,1.94-1.05,2.58-1.21c0.84-0.2,1.58,0.71,1.86,1.12c0.15,0.22,0.83,0.71,0.97,0.74     c0.82,0.19,1.48,0.23,1.85,0.1c0.47-0.17,1.49-0.06,2.37,0.08c-0.66-0.3-1.37-0.72-1.37-0.97c0-0.06,0.03-0.11,0.09-0.14     c0.34-0.18,0.41-0.3,0.53-0.55c0.13-0.25,0.48-0.32,1.01-0.42l0.48-0.1c0.2-0.04,0.4-0.05,0.6-0.06     c-0.07-0.01-0.19-0.03-0.19-0.03c-0.31-0.12-1.17-0.17-1.62-0.01c-0.17,0.06-0.36,0.28-0.51,0.46c-0.18,0.22-0.32,0.37-0.46,0.33     c-0.11-0.03-0.14-0.17-0.16-0.27c-0.1-0.67,0.5-1.49,1.45-1.99c0.66-0.35,1.66-0.17,2.24-0.02c-0.47-0.32-1.17-0.61-2.2-0.62     C130.62,138.88,130.02,139.76,129.66,140.28z"
   fill="#002B5C" />
			<path
   id="path168"
   d="M131.84,138.81c-0.01,0-0.02,0-0.04,0c-1.42,0-2.03,1.18-2.36,1.63c-0.34,0.45-0.44,1.29-0.64,1.49     c-0.13,0.13-0.27,0.19-0.42,0.19c-0.08,0-0.15-0.02-0.23-0.06c-0.22-0.11-0.79-0.29-1.32-0.86c-0.35-0.37-1.2-0.5-1.93-0.5     c-0.38,0-0.74,0.03-0.98,0.08c-0.69,0.15-1.93,1.97-1.93,1.97s0.06-0.03,0.16-0.09l0,0c0.06-0.04,0.13-0.08,0.22-0.12l0,0     c0.64-0.36,1.92-1.04,2.54-1.2c0.08-0.02,0.15-0.02,0.22-0.02c0.76,0,1.39,0.89,1.54,1.1c0.16,0.23,0.85,0.74,1.02,0.78     c0.18,0.04,0.76,0.18,1.3,0.18c0.22,0,0.42-0.02,0.6-0.08c0.16-0.06,0.4-0.08,0.68-0.08c0.48,0,1.07,0.07,1.6,0.14l0,0     c0.25,0.04,0.48,0.07,0.67,0.11l0,0c0.07,0.01,0.13,0.02,0.18,0.03c-0.78-0.23-2.06-0.94-2.06-1.19c0-0.02,0.01-0.04,0.04-0.06     c0.35-0.19,0.44-0.31,0.57-0.59c0.14-0.27,0.68-0.3,1.43-0.47c0.16-0.03,0.31-0.05,0.46-0.06l0,0c0.07,0,0.14,0,0.21,0     c0.28,0,0.53,0.03,0.68,0.05l0,0c0.11,0.02,0.18,0.03,0.18,0.03s0.01-0.01,0.01-0.02c0-0.03-0.02-0.07-0.17-0.12     c-0.15-0.05-0.62-0.02-0.95-0.15c-0.19-0.07-0.54-0.12-0.89-0.12c-0.29,0-0.58,0.03-0.79,0.1c-0.36,0.13-0.71,0.79-0.89,0.79     c-0.05,0-0.09-0.06-0.11-0.2c-0.01-0.05-0.01-0.09-0.01-0.13c0-0.6,0.55-1.31,1.41-1.76c0.26-0.14,0.59-0.19,0.93-0.19     c0.45,0,0.9,0.09,1.23,0.17l0,0c0.12,0.03,0.21,0.06,0.29,0.08l0,0c0.11,0.03,0.18,0.06,0.18,0.06     C134.08,139.39,133.28,138.83,131.84,138.81L131.84,138.81z M128.38,142.3c0.19,0,0.38-0.09,0.55-0.25     c0.12-0.12,0.19-0.35,0.28-0.64c0.09-0.3,0.2-0.64,0.37-0.87c0.04-0.06,0.09-0.13,0.15-0.21c0.35-0.5,0.93-1.35,2.07-1.35h0.04     c0,0,0,0,0,0c0.67,0.01,1.19,0.14,1.61,0.31c-0.22-0.03-0.45-0.05-0.68-0.05c-0.41,0-0.75,0.07-1.01,0.21     c-0.99,0.52-1.6,1.38-1.5,2.09c0.04,0.29,0.18,0.35,0.3,0.35c0.17,0,0.3-0.16,0.48-0.37c0.14-0.17,0.32-0.38,0.47-0.43     c0.17-0.06,0.43-0.09,0.73-0.09c0.15,0,0.3,0.01,0.42,0.02c-0.17,0.04-0.32,0.07-0.46,0.09c-0.54,0.1-0.93,0.18-1.08,0.47     c-0.12,0.25-0.18,0.34-0.49,0.51c-0.1,0.05-0.15,0.14-0.14,0.25c0.02,0.22,0.42,0.51,0.89,0.77c-0.38-0.04-0.76-0.08-1.09-0.08     c-0.33,0-0.57,0.03-0.74,0.09c-0.14,0.05-0.32,0.07-0.53,0.07c-0.24,0-0.65-0.03-1.26-0.18c-0.14-0.04-0.78-0.51-0.91-0.7     c-0.31-0.44-0.94-1.19-1.69-1.19c-0.09,0-0.18,0.01-0.27,0.03c-0.54,0.13-1.53,0.63-2.22,1.01c0.45-0.57,0.99-1.14,1.31-1.21     c0.24-0.05,0.59-0.08,0.94-0.08c0.85,0,1.54,0.17,1.79,0.44c0.48,0.51,0.99,0.73,1.26,0.85c0.05,0.02,0.08,0.04,0.12,0.05     C128.17,142.28,128.28,142.3,128.38,142.3L128.38,142.3z M132.73,143.51c0.06,0.02,0.12,0.03,0.18,0.05l0,0c0.01,0,0.01,0,0.02,0     l0,0c0.07,0.01,0.13,0.02,0.18,0.02C133.11,143.58,132.96,143.55,132.73,143.51L132.73,143.51z"
   fill="#002B5C" />
		</g>
		<g
   id="g176">
			<path
   id="path172"
   d="M90.9,145.85L90.9,145.85c-1.19,0.24-1.59,1.23-1.84,1.82l-0.1,0.23c-0.12,0.27-0.16,0.63-0.18,0.95     c-0.03,0.29-0.05,0.52-0.13,0.65c-0.17,0.27-0.43,0.38-0.7,0.31l-0.13-0.03c-0.28-0.06-0.81-0.17-1.37-0.55     c-0.58-0.4-2.17-0.08-2.84,0.22c-0.41,0.19-0.94,1.22-1.25,1.89c0.55-0.48,1.67-1.44,2.26-1.73c0.78-0.38,1.7,0.36,2.05,0.7     c0.19,0.18,0.96,0.51,1.1,0.52c1.09,0.02,1.59-0.15,1.83-0.29c0.42-0.26,1.43-0.38,2.31-0.44c-0.72-0.16-1.52-0.43-1.52-0.68     v-0.04l0.06-0.08c0.29-0.25,0.33-0.37,0.4-0.65c0.07-0.27,0.4-0.41,0.9-0.62l0.45-0.19c0.19-0.09,0.41-0.14,0.61-0.19     c-0.1,0-0.23,0.01-0.23,0.01c-0.33-0.05-1.18,0.08-1.59,0.33c-0.15,0.1-0.29,0.35-0.4,0.56c-0.13,0.25-0.23,0.43-0.38,0.42     c-0.12-0.01-0.18-0.13-0.21-0.23c-0.24-0.63,0.17-1.56,0.99-2.26c0.54-0.46,1.51-0.51,2.13-0.49     C92.6,145.79,91.89,145.65,90.9,145.85z"
   fill="#002B5C" />
			<path
   id="path174"
   d="M91.86,145.66c-0.29,0-0.62,0.03-0.98,0.1c-1.41,0.29-1.76,1.59-2,2.1c-0.24,0.51-0.16,1.36-0.31,1.59     c-0.12,0.19-0.29,0.29-0.47,0.29c-0.04,0-0.09,0-0.13-0.02c-0.24-0.06-0.83-0.12-1.48-0.56c-0.22-0.15-0.55-0.21-0.91-0.21     c-0.72,0-1.59,0.22-2.01,0.42c-0.64,0.29-1.47,2.34-1.47,2.34s0.05-0.05,0.14-0.13l0,0c0.05-0.04,0.11-0.1,0.19-0.17l0,0     c0.55-0.48,1.66-1.43,2.23-1.71c0.14-0.07,0.28-0.09,0.43-0.09c0.68,0,1.35,0.62,1.53,0.78c0.2,0.19,0.99,0.54,1.16,0.54     c0.04,0,0.1,0,0.18,0c0.41,0,1.24-0.03,1.7-0.31c0.4-0.25,1.41-0.36,2.24-0.42l0,0c0.25-0.02,0.48-0.03,0.68-0.04l0,0     c0.07,0,0.13,0,0.18-0.01c-0.82-0.06-2.26-0.5-2.27-0.73c0-0.02,0.01-0.04,0.03-0.05c0.31-0.26,0.36-0.4,0.43-0.7     c0.08-0.3,0.6-0.44,1.3-0.76c0.14-0.07,0.29-0.12,0.44-0.16l0,0c0.35-0.1,0.69-0.13,0.88-0.14l0,0c0.08,0,0.14,0,0.16,0     c0.01,0,0.02,0,0.02,0s0,0,0-0.01c0-0.02-0.02-0.07-0.19-0.09c-0.01,0-0.02,0-0.03,0c-0.07,0-0.18,0.02-0.32,0.03     c-0.13,0.02-0.27,0.04-0.42,0.04c-0.07,0-0.13-0.01-0.2-0.01c-0.05-0.01-0.11-0.01-0.18-0.01c-0.41,0-1.11,0.13-1.47,0.36     c-0.33,0.21-0.54,0.96-0.72,0.96c-0.05,0-0.09-0.05-0.14-0.17c-0.04-0.11-0.06-0.23-0.06-0.36c0-0.56,0.38-1.25,1.03-1.79     c0.47-0.4,1.29-0.48,1.89-0.48c0.08,0,0.15,0,0.22,0l0,0c0.12,0,0.22,0.01,0.3,0.02l0,0c0.12,0.01,0.18,0.02,0.18,0.02     C93.31,145.92,92.72,145.66,91.86,145.66L91.86,145.66z M88.1,149.93c0.25,0,0.47-0.13,0.62-0.38c0.09-0.14,0.11-0.38,0.14-0.69     c0.03-0.32,0.06-0.67,0.18-0.92c0.03-0.07,0.06-0.15,0.1-0.24c0.23-0.57,0.62-1.53,1.77-1.76c0.33-0.07,0.64-0.1,0.95-0.1     c0.24,0,0.48,0.02,0.7,0.07c-0.57,0.03-1.21,0.16-1.63,0.51c-0.85,0.72-1.27,1.69-1.02,2.36c0.03,0.07,0.11,0.29,0.31,0.29     s0.3-0.2,0.45-0.47c0.1-0.19,0.24-0.44,0.37-0.52c0.25-0.16,0.72-0.28,1.11-0.31c-0.15,0.07-0.3,0.13-0.44,0.19     c-0.51,0.21-0.87,0.37-0.95,0.69c-0.07,0.27-0.11,0.38-0.37,0.6c-0.08,0.07-0.11,0.17-0.08,0.27c0.07,0.21,0.52,0.41,1.03,0.56     c-0.72,0.07-1.44,0.19-1.78,0.4c-0.3,0.18-0.86,0.28-1.6,0.28c-0.07,0-0.13,0-0.17,0c-0.14-0.01-0.87-0.33-1.04-0.49     c-0.33-0.31-0.98-0.83-1.65-0.83c-0.18,0-0.35,0.04-0.51,0.11c-0.5,0.24-1.36,0.95-1.95,1.46c0.32-0.65,0.73-1.32,1.02-1.46     c0.44-0.2,1.28-0.4,1.94-0.4c0.36,0,0.64,0.06,0.81,0.17c0.58,0.39,1.12,0.5,1.41,0.56c0.05,0.01,0.09,0.02,0.13,0.03     C87.99,149.92,88.04,149.93,88.1,149.93L88.1,149.93z M93.14,150.15c0,0-0.15,0-0.39,0.01c0.07,0,0.13,0.01,0.18,0.01     c0,0,0,0,0,0l0,0c0.01,0,0.01,0,0.02,0l0,0C93.02,150.17,93.09,150.16,93.14,150.15L93.14,150.15z"
   fill="#002B5C" />
		</g>
		<g
   id="g186">
			<g
   id="g184">
				<g
   id="g182">
					<path
   id="path178"
   d="M62.05,57.08L62.05,57.08c-4.01,4.46-6.29,11.82-6.29,20.07c0,0.99,0.03,2,0.1,3.01       c0.53,8.15,7.43,16.92,10.65,20.6c0.69-0.28,3.96-1.6,5.21-2.11c-2.8-3.39-9.73-12.75-10.13-18.86       c-0.06-0.88-0.09-1.75-0.09-2.61c0-6.8,1.77-12.87,4.81-16.25c3.41-3.79,7.98-6.23,11.66-6.23c5.4,0,10.46,1.64,16.92,5.48       c6.15,3.66,16.5,7.91,31.01,7.6c-0.03-1.05-0.15-4.72-0.18-5.74c-13.12,0.27-22.39-3.52-27.89-6.79       c-7.31-4.35-13.44-6.29-19.85-6.29C72.67,48.94,66.56,52.06,62.05,57.08z"
   fill="#FFD200" />
					<path
   id="path180"
   d="M77.97,48.23c-5.51,0-11.81,3.21-16.46,8.37c-4.14,4.59-6.48,12.14-6.47,20.59c0,0.99,0.03,2,0.1,3.02       c0.64,9.71,10.07,20.17,11.17,21.41l5.2-2.11l0,0l0.07-0.03l0,0l1.33-0.54c-2.53-2.87-10.2-13.05-10.6-19.21       c-0.06-0.87-0.08-1.72-0.09-2.57c0-6.62,1.7-12.51,4.63-15.77c3.28-3.64,7.64-5.99,11.12-5.99c5.26,0,10.21,1.61,16.55,5.38       c6.01,3.58,15.98,7.72,29.86,7.72c0.27,0,0.54,0,0.82,0l0,0l0,0l0,0c0.47-0.01,0.95-0.02,1.44-0.03l-0.23-7.18       c-0.69,0.02-1.37,0.03-2.03,0.03c-12.25,0-20.95-3.6-26.18-6.71C90.77,50.2,84.53,48.23,77.97,48.23L77.97,48.23z M66.72,99.9       c-1.91-2.21-3.62-4.5-5.1-6.81c-3.1-4.85-4.79-9.21-5.04-12.97c-0.61-9.27,1.64-17.7,6.01-22.56c4.39-4.87,10.28-7.9,15.39-7.9       c6.28,0,12.29,1.91,19.49,6.19v0c5.3,3.15,14.27,6.91,26.91,6.91c0.21,0,0.43,0,0.64,0l0.14,4.31c-0.26,0-0.52,0.01-0.78,0.01       c-13.63,0-23.36-4.09-29.12-7.52c-6.58-3.92-11.75-5.59-17.28-5.59c-1.94,0-4.13,0.62-6.32,1.8c-2.12,1.14-4.15,2.76-5.87,4.67       c-1.78,1.98-3.17,4.84-4.03,8.29c-0.83,3.36-1.14,7.2-0.88,11.1c0.38,5.87,6.54,14.57,9.68,18.51L66.72,99.9L66.72,99.9z"
   fill="#002B5C" />
				</g>
			</g>
		</g>
		<g
   id="g196">
			<g
   id="g194">
				<g
   id="g192">
					<path
   id="path188"
   d="M156.73,55.24L156.73,55.24c-5.5,3.27-14.77,7.06-27.89,6.79c-0.03,1.02-0.15,4.69-0.18,5.74       c14.51,0.31,24.86-3.94,31.01-7.6c6.46-3.84,11.52-5.48,16.92-5.48c3.68,0,8.25,2.45,11.65,6.23       c3.04,3.38,4.81,9.46,4.81,16.25c0,0.86-0.03,1.73-0.09,2.61c-0.4,6.11-7.32,15.47-10.13,18.86c1.25,0.51,4.52,1.83,5.21,2.11       c3.22-3.68,10.12-12.44,10.66-20.6c0.06-1.01,0.1-2.02,0.1-3.01c0-8.26-2.27-15.61-6.29-20.07       c-4.51-5.02-10.61-8.13-15.92-8.13C170.16,48.94,164.04,50.88,156.73,55.24z"
   fill="#FFD200" />
					<path
   id="path190"
   d="M176.58,48.23c-6.56,0-12.79,1.97-20.22,6.4c-5.23,3.11-13.93,6.71-26.18,6.71       c-0.67,0-1.35-0.01-2.03-0.03l-0.23,7.18c0.48,0.01,0.96,0.03,1.44,0.03l0,0l0,0l0,0c0.28,0,0.55,0,0.82,0       c13.88,0,23.84-4.14,29.86-7.72c6.34-3.77,11.29-5.38,16.55-5.38c3.48,0,7.84,2.35,11.12,5.99c2.93,3.26,4.63,9.15,4.63,15.77       c0,0.84-0.03,1.7-0.09,2.57c-0.41,6.16-8.07,16.33-10.6,19.21l1.33,0.54l0,0l0.08,0.03l0,0l5.19,2.11       c1.1-1.24,10.53-11.7,11.17-21.41c0.07-1.02,0.1-2.03,0.1-3.02c0-8.45-2.34-15.99-6.47-20.59       C188.39,51.43,182.09,48.23,176.58,48.23L176.58,48.23z M130.18,62.77c12.65,0,21.62-3.76,26.91-6.91       c7.2-4.28,13.21-6.19,19.49-6.19c5.11,0,11.01,3.03,15.39,7.9l0,0c4.37,4.85,6.62,13.29,6.01,22.56       c-0.25,3.76-1.94,8.12-5.04,12.96c-1.48,2.32-3.19,4.61-5.11,6.82L184,98.34c3.14-3.94,9.29-12.65,9.68-18.51       c0.25-3.89-0.05-7.73-0.88-11.1c-0.86-3.45-2.25-6.32-4.03-8.29c-1.72-1.91-3.75-3.52-5.87-4.67c-2.19-1.18-4.38-1.8-6.32-1.8       c-5.53,0-10.71,1.67-17.28,5.59c-5.76,3.43-15.5,7.52-29.12,7.52c-0.26,0-0.52,0-0.78-0.01l0.14-4.31       C129.75,62.77,129.96,62.77,130.18,62.77L130.18,62.77z"
   fill="#002B5C" />
				</g>
			</g>
		</g>
		<path
   id="path198"
   d="M117.28,51c0,1.44,0,36.39,0,37.83c1.35,0,16.23,0,17.58,0c0-1.44,0-36.39,0-37.83    C133.51,51,118.63,51,117.28,51z"
   fill="#FFD200" />
		<path
   id="path200"
   d="M135.62,50.24h-19.1v39.35h19.1v-1.53l0,0l0,0V50.24L135.62,50.24z M118.04,51.76h16.05v36.3h-16.05V51.76    L118.04,51.76z"
   fill="#002B5C" />
		<path
   d="m 121.23,52.099998 h 9.82 v 36.05 h -9.82 z"
   style="fill:#002b5c"
   id="rect202" />
		<path
   id="path204"
   d="M139.5,43.63c0,6.51-5.98,11.78-13.36,11.78    c-7.38,0-13.36-5.27-13.36-11.78c0-6.5,5.98-11.78,13.36-11.78C133.52,31.85,139.5,37.13,139.5,43.63z"
   stroke-width="1.1381"
   stroke="#002B5C"
   fill="#FFD200" />
		<path
   id="path206"
   d="M111.77,115.35V92.69c0,0,3.07,9.15,10.17,7.47    c0,0,0.66-5.6-7.27-11.26h23.42c0,0-9.08,5.2-7.82,11.14c0,0,3.82,1.55,10.79-7.21V114c0,0-7.56-5.71-11.45-5.46    c0,0-2.7,1.25,7.9,12.67h-23.03c0,0,9.23-6.37,8.78-13.71C123.26,107.5,114.46,108.71,111.77,115.35z"
   stroke-width="1.3059"
   stroke="#002B5C"
   fill="#FFD200" />
		<path
   id="path208"
   d="M158.05,111.14c0,0,3.27-8.76,6.18-11.35    c2.59-2.3,4.95-1.72,5.82-1.58c0.86,0.14,4.09,1.37,4.09,5.75c0,4.38-4.81,9.55-5.03,10.2c-0.21,0.65-0.21,1.15,0.07,1.37    c0.29,0.22,1.4,0.88,0.22,2.15c-1.01,1.08-2.02,0.22-2.59-0.29c-3.37-3.02,3.59-9.55,1.01-10.49c-2.59-0.93-4.96-0.29-7.33,5.03    L158.05,111.14z"
   stroke-width="1.1381"
   stroke="#002B5C"
   fill="#FFD200" />
		<path
   id="path210"
   d="M155.39,112.05c0,0,0.18-9.36-1.61-12.82    c-1.6-3.08-4.07-3.39-4.95-3.56c-0.88-0.18-4.41-0.19-6.06,3.9c-1.65,4.09,0.99,10.65,0.95,11.33c-0.04,0.68-0.22,1.15-0.58,1.25    c-0.35,0.1-1.67,0.32-1.02,1.94c0.55,1.37,1.84,0.93,2.57,0.66c4.35-1.61,0.17-10.21,2.99-10.16c2.81,0.05,4.83,1.51,5.09,7.33    L155.39,112.05z"
   stroke-width="1.1521"
   stroke="#002B5C"
   fill="#FFD200" />
		<path
   id="path212"
   d="M155.6,110.91c0,0-0.93-15.55-0.05-18.46    c1.26-4.21,6.94-9.18,6.94-9.18s2.67,7.87,1.96,11.25c-0.48,2.28-5.63,14.7-6.5,16.44C157.08,112.71,155.6,110.91,155.6,110.91"
   stroke-width="1.1381"
   stroke="#002B5C"
   fill="#FFD200" />
		<path
   id="path214"
   d="M96.55,111.71c0,0-3.63-8.62-6.64-11.08    c-2.68-2.19-5.02-1.52-5.88-1.34c-0.85,0.18-4.03,1.53-3.85,5.91c0.18,4.38,5.2,9.34,5.45,9.98c0.24,0.64,0.26,1.14-0.02,1.37    c-0.28,0.23-1.36,0.94-0.13,2.16c1.05,1.04,2.03,0.14,2.57-0.39c3.25-3.15-3.98-9.4-1.44-10.43c2.54-1.04,4.94-0.49,7.53,4.72    L96.55,111.71z"
   stroke-width="1.1381"
   stroke="#002B5C"
   fill="#FFD200" />
		<path
   id="path216"
   d="M98.4,111.07c0,0-0.57-9.35,1.09-12.87    c1.47-3.14,3.92-3.56,4.79-3.77c0.87-0.21,4.4-0.38,6.22,3.64c1.82,4.02-0.55,10.68-0.49,11.36c0.07,0.68,0.27,1.14,0.63,1.22    c0.36,0.08,1.68,0.26,1.09,1.89c-0.5,1.39-1.8,1.01-2.54,0.77c-4.41-1.42-0.59-10.2-3.4-10.03c-2.81,0.17-4.76,1.71-4.78,7.53    L98.4,111.07z"
   stroke-width="1.1521"
   stroke="#002B5C"
   fill="#FFD200" />
		<path
   id="path218"
   d="M97.82,111.18c0,0,1.64-15.49,0.9-18.44    c-1.06-4.26-6.51-9.49-6.51-9.49s-3.04,7.73-2.48,11.15c0.37,2.3,4.94,14.94,5.74,16.72C96.27,112.91,97.82,111.18,97.82,111.18"
   stroke-width="1.1381"
   stroke="#002B5C"
   fill="#FFD200" />
		<path
   id="path220"
   d="M180.87,130.46l12.32-27.02l-15.01-7.19    c0,0,7.45,10.84,5.34,15.81c-2.12,4.97-6.03-10.89-6.03-10.89l-7.29,18.19c0,0,6.71-3.23,10.78-1.37    c4.07,1.85,1.32,6.82,1.32,6.82L180.87,130.46z"
   stroke-width="1.1949"
   stroke="#002B5C"
   fill="#FFD200" />
		<path
   id="path222"
   d="M73.63,130.74l-12.32-27.02l15.02-7.19c0,0-7.45,10.84-5.34,15.81    c2.12,4.97,6.03-10.89,6.03-10.89l7.3,18.19c0,0-6.71-3.23-10.78-1.38c-4.07,1.85-3.12,5.54-3.12,5.54L73.63,130.74z"
   stroke-width="1.1949"
   stroke="#002B5C"
   fill="#FFD200" />
		<path
   id="path224"
   d="M106.98,131.37c0.44,2.18-2.12,4.53-5.7,5.25    c-3.58,0.71-6.84-0.48-7.28-2.66c-0.44-2.19,2.12-4.53,5.7-5.25C103.28,128,106.54,129.19,106.98,131.37z"
   stroke-width="0.865"
   stroke="#B30838"
   fill="#A32035" />
		<path
   id="path226"
   d="M98.68,131.76c0.13,0.55-0.42,1.15-1.22,1.35c-0.8,0.19-1.57-0.09-1.7-0.64    c-0.13-0.55,0.41-1.15,1.22-1.35C97.79,130.92,98.55,131.21,98.68,131.76z"
   fill="#FFFFFF" />
		<path
   id="path228"
   d="M159.21,134.75c-0.54,2.16-3.86,3.19-7.4,2.3    c-3.54-0.89-5.98-3.36-5.44-5.53c0.54-2.16,3.86-3.19,7.4-2.3C157.32,130.12,159.75,132.59,159.21,134.75z"
   stroke-width="0.865"
   stroke="#B30838"
   fill="#A32035" />
		<path
   id="path230"
   d="M151.51,131.33c-0.08,0.56-0.81,0.92-1.63,0.81c-0.82-0.11-1.42-0.66-1.35-1.22    c0.08-0.56,0.81-0.92,1.63-0.81C150.98,130.23,151.58,130.77,151.51,131.33z"
   fill="#FFFFFF" />
		<path
   id="path232"
   d="M133.01,133.42c0,0.21-0.18,0.39-0.39,0.39h-12.46    c-0.21,0-0.39-0.17-0.39-0.39v-6.19c0-0.21,0.17-0.38,0.39-0.38h12.46c0.21,0,0.39,0.17,0.39,0.38V133.42z"
   stroke-width="1.0812"
   stroke="#002B5C"
   fill="#002B5C" />
		<path
   id="path234"
   d="M124.69,128.88c0.01,0.43-0.66,0.78-1.49,0.78c-0.83,0-1.5-0.34-1.51-0.77c0-0.43,0.67-0.78,1.49-0.78    C124.01,128.11,124.69,128.46,124.69,128.88z"
   fill="#FFFFFF" />
		<path
   id="path236"
   d="M86.09,135.16c0,0.54-0.44,0.98-0.97,0.98c-0.54,0-0.98-0.44-0.98-0.98c0-0.54,0.44-0.98,0.98-0.98    C85.65,134.18,86.09,134.62,86.09,135.16z"
   fill="#FFFFFF" />
		<path
   id="path238"
   d="M88.14,140.35c0,0.54-0.44,0.98-0.98,0.98c-0.54,0-0.98-0.44-0.98-0.98s0.44-0.97,0.98-0.97    C87.7,139.37,88.14,139.81,88.14,140.35z"
   fill="#FFFFFF" />
		<path
   id="path240"
   d="M93.64,138.89c0,0.54-0.44,0.97-0.98,0.97s-0.98-0.44-0.98-0.97c0-0.54,0.44-0.98,0.98-0.98    S93.64,138.35,93.64,138.89z"
   fill="#FFFFFF" />
		<path
   id="path242"
   d="M91.59,133.35c0,0.54-0.44,0.98-0.98,0.98c-0.54,0-0.98-0.44-0.98-0.98c0-0.54,0.44-0.98,0.98-0.98    C91.16,132.38,91.59,132.81,91.59,133.35z"
   fill="#FFFFFF" />
		<path
   id="path244"
   d="M89.68,136.58c0,0.66-0.54,1.2-1.2,1.2c-0.66,0-1.2-0.54-1.2-1.2c0-0.66,0.54-1.2,1.2-1.2    C89.15,135.37,89.68,135.91,89.68,136.58z"
   fill="#FFFFFF" />
		<path
   id="path246"
   d="M113.72,131.7c0,0.66-0.54,1.2-1.2,1.2c-0.66,0-1.2-0.54-1.2-1.2c0-0.66,0.54-1.2,1.2-1.2    C113.18,130.5,113.72,131.04,113.72,131.7z"
   fill="#FFFFFF" />
		<path
   id="path248"
   d="M140.96,131.11c0,0.67-0.54,1.2-1.2,1.2c-0.67,0-1.2-0.54-1.2-1.2c0-0.66,0.54-1.2,1.2-1.2    C140.42,129.91,140.96,130.44,140.96,131.11z"
   fill="#FFFFFF" />
		<path
   id="path250"
   d="M165.34,135.29c0,0.66-0.54,1.2-1.2,1.2c-0.67,0-1.2-0.54-1.2-1.2s0.54-1.2,1.2-1.2    C164.81,134.08,165.34,134.62,165.34,135.29z"
   fill="#FFFFFF" />
		<path
   id="path252"
   d="M110.35,129.68c0,0.54-0.44,0.98-0.98,0.98c-0.54,0-0.98-0.44-0.98-0.98c0-0.54,0.44-0.98,0.98-0.98    C109.91,128.71,110.35,129.14,110.35,129.68z"
   fill="#FFFFFF" />
		<path
   id="path254"
   d="M116.07,128.82c0,0.54-0.44,0.97-0.97,0.97c-0.54,0-0.98-0.44-0.98-0.97c0-0.54,0.44-0.98,0.98-0.98    C115.63,127.84,116.07,128.28,116.07,128.82z"
   fill="#FFFFFF" />
		<path
   id="path256"
   d="M117.3,134.63c0,0.54-0.44,0.98-0.98,0.98c-0.54,0-0.98-0.44-0.98-0.98c0-0.54,0.44-0.98,0.98-0.98    C116.86,133.66,117.3,134.09,117.3,134.63z"
   fill="#FFFFFF" />
		<path
   id="path258"
   d="M111.62,135.13c0,0.54-0.44,0.98-0.98,0.98c-0.54,0-0.98-0.44-0.98-0.98c0-0.54,0.44-0.97,0.98-0.97    C111.18,134.16,111.62,134.59,111.62,135.13z"
   fill="#FFFFFF" />
		<path
   id="path260"
   d="M138.16,128.64c0,0.54-0.44,0.98-0.98,0.98c-0.54,0-0.98-0.44-0.98-0.98c0-0.54,0.44-0.98,0.98-0.98    C137.72,127.66,138.16,128.1,138.16,128.64z"
   fill="#FFFFFF" />
		<path
   id="path262"
   d="M143.88,128.91c0,0.54-0.44,0.97-0.98,0.97c-0.54,0-0.98-0.44-0.98-0.97c0-0.54,0.44-0.98,0.98-0.98    C143.44,127.93,143.88,128.37,143.88,128.91z"
   fill="#FFFFFF" />
		<path
   id="path264"
   d="M138.16,134.21c0,0.54-0.44,0.98-0.98,0.98c-0.54,0-0.97-0.44-0.97-0.98c0-0.54,0.43-0.98,0.97-0.98    C137.72,133.23,138.16,133.67,138.16,134.21z"
   fill="#FFFFFF" />
		<path
   id="path266"
   d="M143.79,134.81c0,0.54-0.43,0.98-0.97,0.98c-0.54,0-0.98-0.44-0.98-0.98c0-0.54,0.44-0.97,0.98-0.97    C143.35,133.84,143.79,134.27,143.79,134.81z"
   fill="#FFFFFF" />
		<path
   id="path268"
   d="M163.13,131.82c0,0.54-0.44,0.98-0.97,0.98c-0.54,0-0.98-0.44-0.98-0.98c0-0.54,0.44-0.98,0.98-0.98    C162.7,130.84,163.13,131.28,163.13,131.82z"
   fill="#FFFFFF" />
		<path
   id="path270"
   d="M169.04,133.72c0,0.54-0.44,0.98-0.97,0.98c-0.54,0-0.98-0.44-0.98-0.98c0-0.54,0.44-0.98,0.98-0.98    C168.6,132.75,169.04,133.18,169.04,133.72z"
   fill="#FFFFFF" />
		<path
   id="path272"
   d="M161.73,137.86c0,0.54-0.44,0.97-0.97,0.97c-0.54,0-0.98-0.44-0.98-0.97c0-0.54,0.44-0.98,0.98-0.98    C161.29,136.88,161.73,137.32,161.73,137.86z"
   fill="#FFFFFF" />
		<path
   id="path274"
   d="M167.31,139.99c0,0.54-0.44,0.98-0.98,0.98c-0.54,0-0.98-0.44-0.98-0.98c0-0.54,0.44-0.98,0.98-0.98    C166.88,139.02,167.31,139.45,167.31,139.99z"
   fill="#FFFFFF" />
		<path
   id="path276"
   d="M172.09,135.58l6.23,2.91    c0,0,2.23,0.77,1.56,3.93c-0.19,0.87-0.89,1.65-1.93,2.04c-1.23,0.46-2.58-0.18-2.78-0.18s-5.47-2.74-5.47-2.74L172.09,135.58z"
   stroke-linejoin="round"
   stroke-width="0.9105"
   stroke="#002B5C"
   fill="#002B5C" />
		<path
   id="path278"
   d="M80.93,134.71l-6.22,2.92    c0,0-2.23,0.77-1.55,3.93c0.19,0.87,0.89,1.94,1.93,2.32c1.23,0.46,2.59,0.16,2.78,0.1c0.48-0.17,5.46-3.04,5.46-3.04    L80.93,134.71z"
   stroke-linejoin="round"
   stroke-width="0.9105"
   stroke="#002B5C"
   fill="#002B5C" />
		<path
   id="path280"
   d="M77.05,139.68c0,0.81-0.7,1.46-1.57,1.46c-0.87,0-1.56-0.65-1.56-1.46c0-0.8,0.7-1.46,1.56-1.46    C76.35,138.22,77.05,138.87,77.05,139.68z"
   fill="#FFFFFF" />
		<path
   id="path282"
   d="M75.68,139.28c0,0.55-0.3,0.99-0.67,0.99s-0.67-0.44-0.67-0.99c0-0.55,0.3-0.99,0.67-0.99    S75.68,138.73,75.68,139.28z"
   fill="#FFFFFF" />
		<path
   id="path284"
   d="M178.32,140.52c0,0.71-0.7,1.3-1.56,1.3c-0.87,0-1.57-0.58-1.57-1.3c0-0.72,0.7-1.3,1.57-1.3    C177.62,139.22,178.32,139.81,178.32,140.52z"
   fill="#FFFFFF" />
		<path
   id="path286"
   d="M176.95,140.28c0,0.55-0.3,0.99-0.67,0.99c-0.37,0-0.67-0.44-0.67-0.99c0-0.55,0.3-0.99,0.67-0.99    C176.65,139.3,176.95,139.74,176.95,140.28z"
   fill="#FFFFFF" />
		<path
   id="path288"
   d="M74,132.28l-4.76-10.67c0,0,7.72,7.53,18.96,4.57    c11.24-2.95,9.72-9.53,9.72-9.53s3.21,7.66,17.34,4.76c0,0,5.53-0.48,12.29-0.19c6.76,0.29,10.2,0.48,10.2,0.48    s14.01,3.34,18.2-6.67c0,0.19,0.76,9.24,10.2,11.53c9.44,2.29,19.16-6.76,19.16-6.76l-4.67,11.44l-41.45-6.86l-23.73-0.76    l-26.4,4.1L74,132.28z"
   stroke-width="0.6829"
   stroke="#002B5C"
   fill="#FFD200" />
		<path
   id="path290"
   d="M73.55,130.84c0,0,24.23-9.77,53.15-9.38    c28.92,0.38,53.82,9,53.82,9s1.2,1.08,1.34,1.63c0.15,0.55,0.48,1.34-0.19,1.82c-0.67,0.48-1.44,0.76-2.11,0.19    c-0.67-0.57-30.62-9.31-53.34-9.19c-8.43,0.04-36.17,1.8-51.42,9.86c-0.43,0.23-0.67,0.38-1.24,0.48    c-0.57,0.1-1.06-0.48-1.06-0.48s-0.96-2.01-0.96-2.39c0-0.38,0.6-0.86,0.96-1.05C72.85,131.13,73.55,130.84,73.55,130.84z"
   stroke-width="0.6829"
   stroke="#002B5C"
   fill="#FFFFFF" />
		<g
   id="g296">
			<path
   id="path292"
   d="M60.46,47.63c0,2.47,2.01,4.49,4.49,4.49c1.2,0,2.33-0.46,3.17-1.31c0.85-0.85,1.32-1.98,1.32-3.17     c0-2.47-2.01-4.49-4.49-4.49C62.48,43.14,60.46,45.15,60.46,47.63z"
   fill="#FFFFFF" />
			<path
   id="path294"
   d="M64.95,42.42c-2.88,0-5.21,2.33-5.21,5.21c0,2.88,2.33,5.21,5.21,5.21c2.88,0,5.21-2.33,5.21-5.21     C70.16,44.75,67.83,42.42,64.95,42.42L64.95,42.42z M64.95,51.4c-2.08,0-3.77-1.69-3.77-3.77c0-2.08,1.69-3.77,3.77-3.77     c2.08,0,3.77,1.69,3.77,3.77C68.72,49.71,67.03,51.4,64.95,51.4L64.95,51.4z"
   fill="#002B5C" />
		</g>
		<g
   id="g302">
			<path
   id="path298"
   d="M50.34,57.75c0,2.47,2.01,4.49,4.49,4.49c1.2,0,2.33-0.47,3.17-1.31c0.85-0.85,1.32-1.98,1.32-3.17     c0-2.48-2.01-4.49-4.49-4.49C52.35,53.26,50.34,55.28,50.34,57.75z"
   fill="#FFFFFF" />
			<path
   id="path300"
   d="M54.83,52.55c-2.88,0-5.21,2.33-5.21,5.21s2.33,5.21,5.21,5.21c2.88,0,5.21-2.33,5.21-5.21     S57.7,52.55,54.83,52.55L54.83,52.55z M54.83,61.52c-2.08,0-3.77-1.69-3.77-3.77c0-2.08,1.69-3.77,3.77-3.77     c2.08,0,3.77,1.69,3.77,3.77C58.6,59.83,56.9,61.52,54.83,61.52L54.83,61.52z"
   fill="#002B5C" />
		</g>
		<g
   id="g308">
			<path
   id="path304"
   d="M46.1,72.19c0,2.48,2.01,4.49,4.49,4.49c2.47,0,4.49-2.02,4.49-4.49c0-2.47-2.01-4.49-4.49-4.49     C48.11,67.7,46.1,69.71,46.1,72.19z"
   fill="#FFFFFF" />
			<path
   id="path306"
   d="M50.59,66.98c-2.88,0-5.21,2.33-5.21,5.21c0,2.88,2.33,5.21,5.21,5.21c2.87,0,5.21-2.33,5.21-5.21     C55.8,69.31,53.46,66.98,50.59,66.98L50.59,66.98z M50.59,75.96c-2.08,0-3.77-1.69-3.77-3.77c0-2.08,1.69-3.77,3.77-3.77     c2.08,0,3.77,1.69,3.77,3.77C54.36,74.27,52.67,75.96,50.59,75.96L50.59,75.96z"
   fill="#002B5C" />
		</g>
		<g
   id="g314">
			<path
   id="path310"
   d="M47.97,87.06c0,2.48,2.01,4.49,4.49,4.49c2.48,0,4.49-2.01,4.49-4.49c0-2.48-2.01-4.49-4.49-4.49     C49.98,82.57,47.97,84.58,47.97,87.06z"
   fill="#FFFFFF" />
			<path
   id="path312"
   d="M52.46,81.85c-2.88,0-5.21,2.33-5.21,5.21c0,2.88,2.33,5.21,5.21,5.21c2.87,0,5.21-2.33,5.21-5.21     C57.66,84.18,55.33,81.85,52.46,81.85L52.46,81.85z M52.46,90.83c-2.08,0-3.77-1.69-3.77-3.77s1.69-3.77,3.77-3.77     c2.08,0,3.77,1.69,3.77,3.77S54.54,90.83,52.46,90.83L52.46,90.83z"
   fill="#002B5C" />
		</g>
		<g
   id="g320">
			<path
   id="path316"
   d="M56.25,97.24c-0.85,0.85-1.31,1.98-1.31,3.17c0,2.47,2.01,4.49,4.49,4.49c2.48,0,4.49-2.01,4.49-4.49     c0-1.2-0.47-2.33-1.32-3.17c-0.85-0.85-1.97-1.31-3.18-1.31C58.22,95.93,57.1,96.39,56.25,97.24z"
   fill="#FFFFFF" />
			<path
   id="path318"
   d="M59.42,95.21c-2.88,0-5.21,2.33-5.21,5.21c0,2.88,2.33,5.21,5.21,5.21c2.88,0,5.21-2.33,5.21-5.21     C64.63,97.54,62.3,95.21,59.42,95.21L59.42,95.21z M59.42,104.19c-2.08,0-3.77-1.69-3.77-3.77c0-1.01,0.39-1.95,1.11-2.66     c0.71-0.71,1.66-1.11,2.66-1.11c1.01,0,1.95,0.39,2.67,1.11c0.71,0.71,1.1,1.66,1.1,2.66C63.19,102.49,61.5,104.19,59.42,104.19     L59.42,104.19z"
   fill="#002B5C" />
		</g>
		<g
   id="g326">
			<path
   id="path322"
   d="M75.12,44.18c0,2.47,2.01,4.49,4.49,4.49c2.47,0,4.49-2.01,4.49-4.49c0-2.48-2.01-4.49-4.49-4.49     C77.13,39.69,75.12,41.7,75.12,44.18z"
   fill="#FFFFFF" />
			<path
   id="path324"
   d="M79.6,38.97c-2.88,0-5.21,2.33-5.21,5.21c0,2.88,2.33,5.21,5.21,5.21c2.88,0,5.21-2.33,5.21-5.21     C84.81,41.3,82.48,38.97,79.6,38.97L79.6,38.97z M79.6,47.95c-2.08,0-3.77-1.69-3.77-3.77c0-2.08,1.69-3.77,3.77-3.77     c2.08,0,3.77,1.69,3.77,3.77C83.37,46.26,81.68,47.95,79.6,47.95L79.6,47.95z"
   fill="#002B5C" />
		</g>
		<g
   id="g332">
			<path
   id="path328"
   d="M88.78,43.74c-0.85,0.85-1.31,1.97-1.31,3.17c0,2.47,2.01,4.49,4.49,4.49c2.47,0,4.49-2.02,4.49-4.49     c0-1.2-0.47-2.33-1.32-3.17c-0.85-0.85-1.98-1.32-3.17-1.32C90.76,42.42,89.63,42.89,88.78,43.74z"
   fill="#FFFFFF" />
			<path
   id="path330"
   d="M91.96,41.7c-2.88,0-5.21,2.33-5.21,5.21c0,2.88,2.33,5.21,5.21,5.21c2.87,0,5.21-2.33,5.21-5.21     C97.16,44.03,94.83,41.7,91.96,41.7L91.96,41.7z M91.96,50.68c-2.08,0-3.77-1.69-3.77-3.77c0-2.08,1.69-3.77,3.77-3.77     c2.08,0,3.77,1.69,3.77,3.77C95.73,48.99,94.04,50.68,91.96,50.68L91.96,50.68z"
   fill="#002B5C" />
		</g>
		<g
   id="g338">
			<path
   id="path334"
   d="M99.27,48.76c-0.85,0.85-1.31,1.98-1.31,3.18c0,2.47,2.01,4.49,4.49,4.49c2.47,0,4.49-2.02,4.49-4.49     c0-2.48-2.02-4.49-4.49-4.49C101.24,47.45,100.12,47.91,99.27,48.76z"
   fill="#FFFFFF" />
			<path
   id="path336"
   d="M102.44,46.73c-2.88,0-5.21,2.33-5.21,5.21s2.33,5.21,5.21,5.21c2.87,0,5.21-2.33,5.21-5.21     S105.32,46.73,102.44,46.73L102.44,46.73z M102.44,55.71c-2.08,0-3.77-1.69-3.77-3.77c0-2.08,1.69-3.77,3.77-3.77     c2.08,0,3.77,1.69,3.77,3.77C106.21,54.02,104.52,55.71,102.44,55.71L102.44,55.71z"
   fill="#002B5C" />
		</g>
		<g
   id="g344">
			<path
   id="path340"
   d="M110.47,53.21c-0.85,0.85-1.32,1.98-1.32,3.17c0,1.2,0.47,2.33,1.32,3.17c0.85,0.85,1.97,1.31,3.17,1.31     c2.47,0,4.49-2.01,4.49-4.49c0-1.2-0.47-2.33-1.32-3.17c-0.85-0.85-1.98-1.32-3.17-1.32S111.32,52.37,110.47,53.21z"
   fill="#FFFFFF" />
			<path
   id="path342"
   d="M113.65,51.18c-2.88,0-5.21,2.33-5.21,5.21c0,2.88,2.33,5.21,5.21,5.21c2.88,0,5.21-2.33,5.21-5.21     C118.85,53.51,116.52,51.18,113.65,51.18L113.65,51.18z M113.65,60.16c-2.08,0-3.77-1.69-3.77-3.77c0-2.08,1.69-3.77,3.77-3.77     c2.08,0,3.77,1.69,3.77,3.77C117.42,58.47,115.73,60.16,113.65,60.16L113.65,60.16z"
   fill="#002B5C" />
		</g>
		<g
   id="g350">
			<path
   id="path346"
   d="M135.61,53.21c-0.85,0.85-1.32,1.98-1.32,3.17c0,2.47,2.01,4.49,4.49,4.49c2.48,0,4.49-2.01,4.49-4.49     c0-1.2-0.47-2.33-1.32-3.17c-0.85-0.85-1.97-1.32-3.17-1.32S136.46,52.37,135.61,53.21z"
   fill="#FFFFFF" />
			<path
   id="path348"
   d="M138.78,51.18c-2.87,0-5.21,2.33-5.21,5.21c0,2.88,2.33,5.21,5.21,5.21c2.87,0,5.21-2.33,5.21-5.21     C143.99,53.51,141.66,51.18,138.78,51.18L138.78,51.18z M138.78,60.16c-2.08,0-3.77-1.69-3.77-3.77c0-2.08,1.69-3.77,3.77-3.77     s3.77,1.69,3.77,3.77C142.55,58.47,140.86,60.16,138.78,60.16L138.78,60.16z"
   fill="#002B5C" />
		</g>
		<g
   id="g356">
			<path
   id="path352"
   d="M144.78,52.51c0,2.47,2.02,4.49,4.49,4.49s4.49-2.01,4.49-4.49c0-2.47-2.01-4.49-4.49-4.49     S144.78,50.04,144.78,52.51z"
   fill="#FFFFFF" />
			<path
   id="path354"
   d="M149.27,47.3c-2.88,0-5.21,2.33-5.21,5.21c0,2.88,2.33,5.21,5.21,5.21c2.87,0,5.21-2.33,5.21-5.21     C154.48,49.64,152.14,47.3,149.27,47.3L149.27,47.3z M149.27,56.28c-2.08,0-3.77-1.69-3.77-3.77c0-2.08,1.69-3.77,3.77-3.77     c2.08,0,3.77,1.69,3.77,3.77C153.04,54.59,151.35,56.28,149.27,56.28L149.27,56.28z"
   fill="#002B5C" />
		</g>
		<g
   id="g362">
			<path
   id="path358"
   d="M157.01,44.02c-0.85,0.85-1.31,1.98-1.31,3.17c0,2.47,2.01,4.49,4.49,4.49c2.47,0,4.49-2.01,4.49-4.49     c0-1.2-0.47-2.33-1.32-3.17c-0.85-0.85-1.97-1.32-3.17-1.32C158.99,42.71,157.86,43.17,157.01,44.02z"
   fill="#FFFFFF" />
			<path
   id="path360"
   d="M160.19,41.99c-2.88,0-5.21,2.33-5.21,5.21c0,2.88,2.33,5.21,5.21,5.21c2.88,0,5.21-2.33,5.21-5.21     C165.39,44.32,163.06,41.99,160.19,41.99L160.19,41.99z M160.19,50.97c-2.08,0-3.77-1.69-3.77-3.77c0-2.08,1.69-3.77,3.77-3.77     s3.77,1.69,3.77,3.77C163.96,49.27,162.26,50.97,160.19,50.97L160.19,50.97z"
   fill="#002B5C" />
		</g>
		<g
   id="g368">
			<path
   id="path364"
   d="M168.62,44.47c0,2.47,2.02,4.49,4.49,4.49c2.48,0,4.49-2.01,4.49-4.49c0-2.47-2.01-4.49-4.49-4.49     C170.64,39.98,168.62,41.99,168.62,44.47z"
   fill="#FFFFFF" />
			<path
   id="path366"
   d="M173.11,39.26c-2.87,0-5.21,2.33-5.21,5.21c0,2.88,2.33,5.21,5.21,5.21c2.87,0,5.21-2.33,5.21-5.21     C178.32,41.59,175.99,39.26,173.11,39.26L173.11,39.26z M173.11,48.24c-2.08,0-3.77-1.69-3.77-3.77c0-2.08,1.69-3.77,3.77-3.77     c2.08,0,3.77,1.69,3.77,3.77C176.88,46.55,175.2,48.24,173.11,48.24L173.11,48.24z"
   fill="#002B5C" />
		</g>
		<g
   id="g374">
			<path
   id="path370"
   d="M184.3,44.02c-0.85,0.85-1.32,1.98-1.32,3.17c0,2.47,2.02,4.49,4.49,4.49c2.47,0,4.49-2.01,4.49-4.49     c0-1.2-0.47-2.33-1.32-3.17c-0.85-0.85-1.97-1.32-3.17-1.32C186.28,42.71,185.15,43.17,184.3,44.02z"
   fill="#FFFFFF" />
			<path
   id="path372"
   d="M187.48,41.99c-2.88,0-5.21,2.33-5.21,5.21c0,2.88,2.33,5.21,5.21,5.21c2.87,0,5.21-2.33,5.21-5.21     C192.68,44.32,190.35,41.99,187.48,41.99L187.48,41.99z M187.48,50.97c-2.08,0-3.77-1.69-3.77-3.77c0-2.08,1.69-3.77,3.77-3.77     c2.08,0,3.77,1.69,3.77,3.77C191.25,49.27,189.56,50.97,187.48,50.97L187.48,50.97z"
   fill="#002B5C" />
		</g>
		<g
   id="g380">
			<path
   id="path376"
   d="M193.76,56.24c0,2.48,2.01,4.49,4.49,4.49c2.47,0,4.49-2.01,4.49-4.49c0-2.47-2.01-4.49-4.49-4.49     C195.78,51.76,193.76,53.77,193.76,56.24z"
   fill="#FFFFFF" />
			<path
   id="path378"
   d="M198.25,51.04c-2.88,0-5.21,2.33-5.21,5.21c0,2.88,2.33,5.21,5.21,5.21c2.87,0,5.21-2.33,5.21-5.21     C203.46,53.37,201.13,51.04,198.25,51.04L198.25,51.04z M198.25,60.02c-2.08,0-3.77-1.69-3.77-3.77c0-2.08,1.69-3.77,3.77-3.77     s3.77,1.69,3.77,3.77C202.02,58.32,200.33,60.02,198.25,60.02L198.25,60.02z"
   fill="#002B5C" />
		</g>
		<g
   id="g386">
			<path
   id="path382"
   d="M198.5,70.9c0,2.48,2.01,4.49,4.49,4.49c2.47,0,4.49-2.01,4.49-4.49c0-2.47-2.01-4.49-4.49-4.49     C200.52,66.41,198.5,68.42,198.5,70.9z"
   fill="#FFFFFF" />
			<path
   id="path384"
   d="M202.99,65.69c-2.88,0-5.21,2.33-5.21,5.21c0,2.87,2.33,5.21,5.21,5.21s5.21-2.33,5.21-5.21     C208.2,68.02,205.87,65.69,202.99,65.69L202.99,65.69z M202.99,74.67c-2.08,0-3.77-1.69-3.77-3.77c0-2.08,1.69-3.77,3.77-3.77     c2.08,0,3.77,1.69,3.77,3.77C206.76,72.98,205.07,74.67,202.99,74.67L202.99,74.67z"
   fill="#002B5C" />
		</g>
		<g
   id="g392">
			<path
   id="path388"
   d="M197.21,86.12c0,2.48,2.01,4.49,4.49,4.49c2.48,0,4.49-2.01,4.49-4.49c0-2.47-2.01-4.49-4.49-4.49     C199.22,81.63,197.21,83.65,197.21,86.12z"
   fill="#FFFFFF" />
			<path
   id="path390"
   d="M201.7,80.91c-2.87,0-5.21,2.33-5.21,5.21c0,2.87,2.33,5.21,5.21,5.21c2.88,0,5.21-2.33,5.21-5.21     C206.91,83.25,204.57,80.91,201.7,80.91L201.7,80.91z M201.7,89.89c-2.08,0-3.77-1.69-3.77-3.77c0-2.08,1.69-3.77,3.77-3.77     c2.08,0,3.77,1.69,3.77,3.77C205.47,88.2,203.78,89.89,201.7,89.89L201.7,89.89z"
   fill="#002B5C" />
		</g>
		<g
   id="g398">
			<path
   id="path394"
   d="M190.32,98.91c0,2.48,2.01,4.49,4.49,4.49c2.47,0,4.49-2.01,4.49-4.49c0-2.47-2.01-4.49-4.49-4.49     C192.33,94.42,190.32,96.43,190.32,98.91z"
   fill="#FFFFFF" />
			<path
   id="path396"
   d="M194.8,93.7c-2.88,0-5.21,2.33-5.21,5.21s2.33,5.21,5.21,5.21c2.87,0,5.21-2.33,5.21-5.21     S197.68,93.7,194.8,93.7L194.8,93.7z M194.8,102.68c-2.08,0-3.77-1.69-3.77-3.77c0-2.08,1.69-3.77,3.77-3.77     c2.08,0,3.77,1.69,3.77,3.77C198.58,100.98,196.88,102.68,194.8,102.68L194.8,102.68z"
   fill="#002B5C" />
		</g>
		<g
   id="g404">
			<path
   id="path400"
   d="M121.75,104.62c0,2.32,1.89,4.21,4.22,4.21c2.32,0,4.21-1.89,4.21-4.21c0-2.32-1.89-4.21-4.21-4.21     C123.64,100.41,121.75,102.3,121.75,104.62z"
   fill="#FFFFFF" />
			<path
   id="path402"
   d="M125.96,99.73c-2.7,0-4.89,2.19-4.89,4.89c0,2.7,2.19,4.89,4.89,4.89c2.7,0,4.89-2.19,4.89-4.89     C130.85,101.92,128.66,99.73,125.96,99.73L125.96,99.73z M125.96,108.16c-1.95,0-3.54-1.59-3.54-3.54c0-1.95,1.59-3.54,3.54-3.54     c0.95,0,1.84,0.37,2.5,1.04c0.67,0.67,1.04,1.56,1.04,2.5C129.5,106.57,127.92,108.16,125.96,108.16L125.96,108.16z"
   fill="#002B5C" />
		</g>
		<g
   id="g410">
			<path
   id="path406"
   d="M122.68,54.25c0,1.94,1.57,3.51,3.51,3.51c1.94,0,3.51-1.58,3.51-3.51c0-1.94-1.58-3.51-3.51-3.51     C124.25,50.74,122.68,52.32,122.68,54.25z"
   fill="#FFFFFF" />
			<path
   id="path408"
   d="M126.19,50.18c-2.25,0-4.07,1.82-4.07,4.07c0,2.25,1.83,4.07,4.07,4.07c2.25,0,4.07-1.83,4.07-4.07     C130.26,52.01,128.44,50.18,126.19,50.18L126.19,50.18z M126.19,57.2c-1.63,0-2.95-1.32-2.95-2.95c0-1.63,1.32-2.95,2.95-2.95     c1.63,0,2.95,1.32,2.95,2.95C129.14,55.88,127.81,57.2,126.19,57.2L126.19,57.2z"
   fill="#002B5C" />
		</g>
		<g
   id="g416">
			<path
   id="path412"
   d="M122.42,61.53c0,2.03,1.65,3.68,3.69,3.68c2.03,0,3.69-1.65,3.69-3.68c0-0.98-0.38-1.91-1.08-2.61     c-0.7-0.7-1.62-1.08-2.61-1.08C124.08,57.85,122.42,59.5,122.42,61.53z"
   fill="#FFFFFF" />
			<path
   id="path414"
   d="M126.11,57.26c-2.36,0-4.28,1.91-4.28,4.28c0,2.36,1.92,4.28,4.28,4.28c2.36,0,4.28-1.91,4.28-4.28     C130.38,59.17,128.47,57.26,126.11,57.26L126.11,57.26z M126.11,64.63c-1.71,0-3.09-1.39-3.09-3.09c0-1.71,1.39-3.1,3.09-3.1     c1.71,0,3.1,1.39,3.1,3.1C129.2,63.24,127.81,64.63,126.11,64.63L126.11,64.63z"
   fill="#002B5C" />
		</g>
		<g
   id="g422">
			<path
   id="path418"
   d="M122.46,68.91c0,2.03,1.65,3.68,3.68,3.68c2.03,0,3.69-1.65,3.69-3.68c0-0.98-0.38-1.91-1.08-2.61     c-0.69-0.7-1.62-1.08-2.6-1.08C124.12,65.22,122.46,66.88,122.46,68.91z"
   fill="#FFFFFF" />
			<path
   id="path420"
   d="M126.15,64.63c-2.36,0-4.28,1.91-4.28,4.28c0,2.36,1.92,4.27,4.28,4.27s4.27-1.91,4.27-4.27     C130.42,66.55,128.51,64.63,126.15,64.63L126.15,64.63z M126.15,72.01c-1.71,0-3.09-1.39-3.09-3.09c0-1.71,1.39-3.1,3.09-3.1     c1.71,0,3.1,1.39,3.1,3.1C129.24,70.62,127.85,72.01,126.15,72.01L126.15,72.01z"
   fill="#002B5C" />
		</g>
		<g
   id="g428">
			<path
   id="path424"
   d="M121.9,84.51c0,2.28,1.86,4.14,4.14,4.14c2.28,0,4.14-1.86,4.14-4.14c0-2.28-1.86-4.14-4.14-4.14     C123.75,80.37,121.9,82.23,121.9,84.51z"
   fill="#FFFFFF" />
			<path
   id="path426"
   d="M126.04,79.7c-2.65,0-4.8,2.15-4.8,4.8c0,2.65,2.15,4.8,4.8,4.8c2.65,0,4.8-2.15,4.8-4.8     C130.84,81.85,128.69,79.7,126.04,79.7L126.04,79.7z M126.04,87.99c-1.92,0-3.48-1.56-3.48-3.48s1.56-3.48,3.48-3.48     c1.92,0,3.48,1.56,3.48,3.48S127.95,87.99,126.04,87.99L126.04,87.99z"
   fill="#002B5C" />
		</g>
		<g
   id="g434">
			<path
   id="path430"
   d="M123.24,73.12c-0.73,0.73-1.13,1.7-1.13,2.73c0,2.13,1.73,3.86,3.86,3.86c2.13,0,3.86-1.73,3.86-3.86     c0-1.03-0.4-2-1.13-2.73c-0.73-0.73-1.7-1.13-2.73-1.13C124.94,71.99,123.97,72.39,123.24,73.12z"
   fill="#FFFFFF" />
			<path
   id="path432"
   d="M125.97,71.98c-2.47,0-4.48,2.01-4.48,4.48c0,2.47,2.01,4.48,4.48,4.48c2.47,0,4.48-2.01,4.48-4.48     C130.45,73.99,128.45,71.98,125.97,71.98L125.97,71.98z M125.97,79.7c-1.79,0-3.24-1.46-3.24-3.24c0-1.79,1.45-3.24,3.24-3.24     c1.79,0,3.24,1.46,3.24,3.24C129.22,78.25,127.76,79.7,125.97,79.7L125.97,79.7z"
   fill="#002B5C" />
		</g>
		<path
   id="path436"
   d="M162.71,113.82    c-0.18,0.77-3.05,0.76-6.41-0.01c-3.36-0.77-5.95-2.02-5.77-2.79c0.18-0.77,3.04-0.76,6.41,0.01    C160.3,111.81,162.88,113.06,162.71,113.82z"
   stroke-linejoin="round"
   stroke-width="0.9105"
   stroke="#002B5C"
   fill="#FFD200" />
		<g
   id="g442">
			<path
   id="path438"
   d="M123.17,20.35c0,1.7,1.39,3.09,3.09,3.09c1.7,0,3.09-1.39,3.09-3.09c0-1.7-1.39-3.09-3.09-3.09     C124.55,17.26,123.17,18.64,123.17,20.35z"
   fill="#FFFFFF" />
			<path
   id="path440"
   d="M126.26,16.68c-2.03,0-3.67,1.64-3.67,3.66c0,2.02,1.64,3.66,3.67,3.66c2.02,0,3.66-1.64,3.66-3.66     C129.92,18.33,128.28,16.68,126.26,16.68L126.26,16.68z M126.26,22.86c-1.39,0-2.52-1.13-2.52-2.51c0-1.39,1.13-2.52,2.52-2.52     c1.39,0,2.51,1.13,2.51,2.52C128.77,21.74,127.64,22.86,126.26,22.86L126.26,22.86z"
   fill="#002B5C" />
		</g>
		<g
   id="g446">
			<path
   id="path444"
   d="M127.65,18.85c0,0,1.31,1.56,0.34,2.84c-0.97,1.27-2.6,0.63-3.03,0.35c0,0,1.98-0.08,2.49-0.82     C127.92,20.52,127.88,19.31,127.65,18.85z"
   fill="#002B5C" />
		</g>
		<g
   id="g460">
			<path
   id="path448"
   d="M157.74,70.82c-0.68,0.26-1.26,0.48-1.6,0.57c-1.66,0.43-20.82,7.92-21.64,8.24l0.63,1.6     c5.53-2.16,20.14-7.84,21.44-8.17c0.43-0.11,1.03-0.34,1.78-0.62c2.15-0.81,5.75-2.18,8.22-1.72c1.9,0.36,4.17,3.05,5.35,5.41     c0.75,1.52,0.81,2.39,0.71,2.58l1.46,0.91c0.49-0.77,0.37-2.01-0.36-3.67c-1.04-2.38-3.82-6.36-6.85-6.93     C163.93,68.47,160.2,69.88,157.74,70.82z"
   fill="#002B5C" />
			<path
   id="path450"
   d="M89.18,75.07c0.88,0.23,2.43,0.68,2.87,0.9l0.08,0.04c0.44,0.21,0.87,0.46,0.97,0.88     c0.08,0.35,0,0.99-0.85,2.12c-1.84,2.44-4.68,2.41-6.74,1.96c-0.64-0.14-1.19-0.57-1.88-1.12c-0.94-0.74-2.11-1.67-4.07-2.32     c-3.7-1.23-8.01-0.08-10.93,0.89c-3.45,1.15-5.24,7.77-5.43,8.53l1.39,0.36c0.47-1.83,2.2-6.75,4.49-7.52     c2.73-0.91,6.73-1.99,10.02-0.89c1.72,0.57,2.73,1.37,3.63,2.08c0.77,0.61,1.5,1.18,2.46,1.39c3.49,0.76,6.4-0.12,8.19-2.5     c0.97-1.29,1.33-2.37,1.11-3.32c-0.27-1.12-1.26-1.61-1.73-1.84l-0.07-0.04c-0.71-0.36-2.9-0.93-3.15-1L89.18,75.07z"
   fill="#002B5C" />
			<path
   id="path452"
   d="M68.38,89.42c-1.28,1.8-0.7,4.73-0.68,4.85l1.41-0.29c-0.14-0.68-0.32-2.66,0.44-3.73     c0.96-1.34,4.35-2.93,5.64-2.05c0.58,0.39,0.64,0.64,0.72,0.95c0.16,0.64,0.4,1.2,1.74,1.65c1.45,0.49,2.63-0.5,3.1-1.16     l-1.17-0.83c-0.03,0.04-0.67,0.9-1.47,0.63c-0.7-0.23-0.73-0.34-0.8-0.64c-0.11-0.43-0.27-1.08-1.31-1.78     C73.82,85.54,69.61,87.7,68.38,89.42z"
   fill="#002B5C" />
			<path
   id="path454"
   d="M104.25,79.9l-0.05,0.02c-0.9,0.36-3.3,1.32-3.3,3.88c0,2.36,1.66,3.7,2.7,3.98     c1.45,0.4,2.67-0.03,3.6-1.26c0.42-0.56,0.59-1.14,0.48-1.72c-0.19-1.07-1.22-1.73-1.72-2.04c-0.4-0.25-0.9-0.32-1.41-0.19     c-0.61,0.16-1.18,0.57-1.45,1.06c-0.42,0.76,0.16,1.63,0.84,2.19l0.91-1.11c-0.16-0.13-0.33-0.33-0.42-0.46     c0.1-0.1,0.26-0.23,0.47-0.28c0.12-0.03,0.22-0.03,0.27,0.01c0.31,0.2,1.01,0.64,1.08,1.09c0.01,0.06,0.05,0.26-0.21,0.6     c-0.73,0.96-1.43,0.92-2.08,0.74c-0.33-0.09-1.64-0.83-1.64-2.6c0-1.4,1.15-2.05,2.39-2.54l0.05-0.02     c0.91-0.36,1.91-0.48,2.14-0.39c0.18,0.07,0.36,0.24,0.62,0.48c0.27,0.25,0.6,0.55,1.07,0.89c1.16,0.81,7.56,2.09,8.47,2.19     l0.15-1.43c-1.18-0.13-7.05-1.41-7.8-1.94c-0.39-0.28-0.68-0.54-0.92-0.77c-0.33-0.3-0.64-0.59-1.06-0.76     C106.58,79.15,104.98,79.61,104.25,79.9z"
   fill="#002B5C" />
			<path
   id="path456"
   d="M92.63,70.29L92,70.34c-2.12,0.19-4.12,0.36-6.42,1.73c-2.27,1.35-4.2,6.24-3.86,8.03l1.7-0.32     c-0.2-1.06,1.41-5.26,3.05-6.23c1.96-1.17,3.61-1.31,5.69-1.5L92.79,72c2.24-0.21,7.4,1.26,8.33,1.66     c0.76,0.33,2.01,0.96,3.22,1.57c1.26,0.64,2.34,1.19,2.88,1.39c0.78,0.3,6.73,2.96,9.77,4.33l0.71-1.57     c-0.36-0.16-8.84-3.97-9.85-4.36c-0.46-0.18-1.61-0.76-2.73-1.33c-1.23-0.62-2.51-1.27-3.32-1.62     C100.71,71.62,95.23,70.05,92.63,70.29z"
   fill="#002B5C" />
			<path
   id="path458"
   d="M161.59,79.1c0.47,0.76,2.9,2.25,4.56,2.8c2.07,0.69,3.71,0.15,4.91-0.4c0.51-0.23,1.02-0.58,1.56-0.95     c0.95-0.66,2.04-1.41,3.12-1.44c0.56-0.02,1.17-0.13,1.81-0.25c1.86-0.34,4.18-0.76,7.43,0.55c4.12,1.66,4.18,8.51,4.17,8.57     l0.04-0.17l1.63,0.54c0.15-0.45,0.01-8.45-5.2-10.55c-3.71-1.49-6.41-1-8.38-0.64c-0.61,0.11-1.13,0.2-1.56,0.22     c-1.59,0.05-2.96,0.99-4.05,1.75c-0.47,0.33-0.92,0.64-1.29,0.8c-1.39,0.63-2.45,0.73-3.65,0.33c-1.42-0.47-3.16-1.62-3.58-2.03     c0.02-0.26,0.19-0.84,0.41-1.33l-1.57-0.71C161.54,77.13,161.14,78.38,161.59,79.1z"
   fill="#002B5C" />
		</g>
		<g
   id="g468">
			<g
   id="g466">
				<path
   id="path462"
   d="M67.89,113.76c-1.04,0.27-1.66,1.63-1.66,3.3c0,0.59,0.08,1.23,0.25,1.87c0.41,1.59,1.31,2.94,2.34,3.54      c0.35,0.2,0.88,0.41,1.43,0.27c0.56-0.15,0.91-0.59,1.11-0.93c0.6-1.03,0.71-2.65,0.3-4.23      C71.02,115.14,69.29,113.4,67.89,113.76z"
   fill="#FFFFFF" />
				<path
   id="path464"
   d="M68.27,113.15c-0.18,0-0.35,0.02-0.53,0.07c-1.3,0.34-2.09,1.9-2.09,3.84c0,0.64,0.09,1.33,0.27,2.02      c0.66,2.5,2.34,4.28,3.93,4.28c0.18,0,0.35-0.02,0.53-0.07c1.3-0.34,2.09-1.9,2.09-3.84c0-0.64-0.09-1.33-0.27-2.03      C71.55,114.93,69.87,113.15,68.27,113.15L68.27,113.15z M69.86,122.22c-0.93,0-2.28-1.31-2.84-3.43      c-0.59-2.26,0.04-4.22,1.01-4.48c0.08-0.02,0.16-0.03,0.24-0.03c0.93,0,2.28,1.31,2.84,3.44c0.3,1.13,0.31,2.28,0.03,3.18      c-0.22,0.71-0.6,1.18-1.04,1.3C70.02,122.21,69.94,122.22,69.86,122.22L69.86,122.22z"
   fill="#002B5C" />
			</g>
		</g>
		<g
   id="g476">
			<g
   id="g474">
				<path
   id="path470"
   d="M182.43,116.8c-0.24,0.74-0.37,1.49-0.37,2.19c0,0.77,0.15,1.47,0.44,2.05c0.2,0.4,0.57,0.91,1.18,1.11      c1.48,0.49,3.39-1.14,4.19-3.55c0.79-2.41,0.22-4.86-1.25-5.35C185.15,112.76,183.23,114.38,182.43,116.8z"
   fill="#FFFFFF" />
				<path
   id="path472"
   d="M186.08,112.57C186.07,112.57,186.07,112.57,186.08,112.57c-1.64,0-3.41,1.64-4.21,4.05      c-0.27,0.81-0.39,1.62-0.39,2.37c0,1.81,0.74,3.3,2.02,3.72c0.24,0.08,0.48,0.12,0.73,0.12c1.64,0,3.41-1.64,4.2-4.04      c0.27-0.81,0.39-1.62,0.39-2.37c0-1.81-0.74-3.3-2.02-3.72C186.57,112.61,186.32,112.57,186.08,112.57L186.08,112.57z       M184.23,121.64c-0.13,0-0.25-0.02-0.36-0.06c-1.02-0.34-1.64-2.31-0.88-4.61c0.67-2.03,2.09-3.24,3.08-3.24      c0.13,0,0.25,0.02,0.36,0.06l0,0c1.02,0.34,1.63,2.31,0.88,4.61C186.64,120.43,185.22,121.64,184.23,121.64L184.23,121.64z"
   fill="#002B5C" />
			</g>
		</g>
		<g
   id="g586">
			<g
   id="g480">
				<path
   id="path478"
   d="M66.93,45.5c0,0,1.86,2.22,0.48,4.03c-1.38,1.8-3.7,0.89-4.3,0.5c0,0,2.81-0.11,3.53-1.17      C67.32,47.87,67.26,46.14,66.93,45.5z"
   fill="#002B5C" />
			</g>
			<g
   id="g484">
				<path
   id="path482"
   d="M56.8,55.63c0,0,1.86,2.22,0.48,4.03c-1.38,1.8-3.7,0.89-4.3,0.5c0,0,2.81-0.11,3.53-1.16      C57.2,58,57.13,56.27,56.8,55.63z"
   fill="#002B5C" />
			</g>
			<g
   id="g488">
				<path
   id="path486"
   d="M52.56,70.06c0,0,1.86,2.22,0.48,4.03c-1.38,1.81-3.7,0.89-4.3,0.5c0,0,2.81-0.11,3.53-1.16      C52.96,72.43,52.9,70.71,52.56,70.06z"
   fill="#002B5C" />
			</g>
			<g
   id="g492">
				<path
   id="path490"
   d="M54.43,84.93c0,0,1.86,2.22,0.48,4.03c-1.38,1.8-3.7,0.89-4.3,0.5c0,0,2.81-0.11,3.53-1.16      C54.83,87.3,54.76,85.57,54.43,84.93z"
   fill="#002B5C" />
			</g>
			<g
   id="g496">
				<path
   id="path494"
   d="M61.4,98.29c0,0,1.86,2.22,0.48,4.03c-1.38,1.81-3.7,0.89-4.3,0.5c0,0,2.81-0.11,3.53-1.16      C61.79,100.66,61.73,98.93,61.4,98.29z"
   fill="#002B5C" />
			</g>
			<g
   id="g500">
				<path
   id="path498"
   d="M81.58,42.05c0,0,1.86,2.22,0.48,4.03c-1.38,1.8-3.7,0.89-4.3,0.5c0,0,2.81-0.11,3.53-1.16      C81.97,44.42,81.91,42.7,81.58,42.05z"
   fill="#002B5C" />
			</g>
			<g
   id="g504">
				<path
   id="path502"
   d="M93.93,44.78c0,0,1.86,2.22,0.48,4.03c-1.38,1.81-3.7,0.89-4.3,0.5c0,0,2.81-0.11,3.53-1.16      C94.33,47.15,94.27,45.43,93.93,44.78z"
   fill="#002B5C" />
			</g>
			<g
   id="g508">
				<path
   id="path506"
   d="M104.42,49.81c0,0,1.86,2.22,0.48,4.03c-1.38,1.8-3.7,0.89-4.3,0.5c0,0,2.81-0.11,3.53-1.16      C104.81,52.18,104.75,50.45,104.42,49.81z"
   fill="#002B5C" />
			</g>
			<g
   id="g512">
				<path
   id="path510"
   d="M115.62,54.26c0,0,1.86,2.22,0.48,4.03c-1.38,1.8-3.7,0.89-4.3,0.5c0,0,2.81-0.11,3.53-1.16      C116.02,56.63,115.95,54.91,115.62,54.26z"
   fill="#002B5C" />
			</g>
			<g
   id="g516">
				<path
   id="path514"
   d="M140.76,54.26c0,0,1.86,2.22,0.48,4.03c-1.38,1.8-3.7,0.89-4.3,0.5c0,0,2.81-0.11,3.53-1.16      C141.15,56.63,141.09,54.91,140.76,54.26z"
   fill="#002B5C" />
			</g>
			<g
   id="g520">
				<path
   id="path518"
   d="M151.24,50.38c0,0,1.86,2.22,0.48,4.03c-1.38,1.81-3.7,0.89-4.3,0.5c0,0,2.81-0.11,3.53-1.16      C151.64,52.75,151.58,51.03,151.24,50.38z"
   fill="#002B5C" />
			</g>
			<g
   id="g524">
				<path
   id="path522"
   d="M162.16,45.07c0,0,1.86,2.22,0.48,4.03c-1.38,1.8-3.7,0.89-4.3,0.5c0,0,2.81-0.11,3.53-1.16      C162.56,47.44,162.49,45.71,162.16,45.07z"
   fill="#002B5C" />
			</g>
			<g
   id="g528">
				<path
   id="path526"
   d="M175.09,42.34c0,0,1.86,2.22,0.48,4.03c-1.37,1.8-3.7,0.89-4.3,0.5c0,0,2.81-0.11,3.53-1.16      C175.48,44.71,175.42,42.98,175.09,42.34z"
   fill="#002B5C" />
			</g>
			<g
   id="g532">
				<path
   id="path530"
   d="M189.45,45.07c0,0,1.86,2.22,0.48,4.03c-1.38,1.8-3.7,0.89-4.3,0.5c0,0,2.81-0.11,3.53-1.16      C189.85,47.44,189.79,45.71,189.45,45.07z"
   fill="#002B5C" />
			</g>
			<g
   id="g536">
				<path
   id="path534"
   d="M200.23,54.12c0,0,1.86,2.22,0.48,4.03c-1.38,1.8-3.7,0.89-4.3,0.5c0,0,2.81-0.11,3.53-1.16      C200.62,56.49,200.56,54.76,200.23,54.12z"
   fill="#002B5C" />
			</g>
			<g
   id="g540">
				<path
   id="path538"
   d="M204.96,68.77c0,0,1.86,2.22,0.48,4.03c-1.38,1.8-3.7,0.89-4.3,0.5c0,0,2.81-0.11,3.53-1.16      C205.36,71.14,205.3,69.41,204.96,68.77z"
   fill="#002B5C" />
			</g>
			<g
   id="g544">
				<path
   id="path542"
   d="M203.67,83.99c0,0,1.86,2.22,0.48,4.03c-1.38,1.8-3.7,0.89-4.3,0.5c0,0,2.81-0.11,3.53-1.16      C204.07,86.36,204.01,84.64,203.67,83.99z"
   fill="#002B5C" />
			</g>
			<g
   id="g548">
				<path
   id="path546"
   d="M196.78,96.78c0,0,1.86,2.22,0.48,4.03c-1.38,1.8-3.7,0.89-4.3,0.5c0,0,2.81-0.11,3.53-1.16      C197.17,99.15,197.11,97.42,196.78,96.78z"
   fill="#002B5C" />
			</g>
			<g
   id="g552">
				<path
   id="path550"
   d="M127.82,102.62c0,0,1.75,2.08,0.45,3.79c-1.29,1.69-3.47,0.84-4.04,0.47c0,0,2.64-0.1,3.32-1.09      C128.19,104.85,128.13,103.23,127.82,102.62z"
   fill="#002B5C" />
			</g>
			<g
   id="g556">
				<path
   id="path554"
   d="M127.73,52.59c0,0,1.46,1.74,0.37,3.15c-1.08,1.41-2.89,0.7-3.36,0.39c0,0,2.2-0.08,2.76-0.91      C128.04,54.44,127.99,53.09,127.73,52.59z"
   fill="#002B5C" />
			</g>
			<g
   id="g560">
				<path
   id="path558"
   d="M127.73,59.79c0,0,1.53,1.82,0.39,3.31c-1.13,1.48-3.04,0.73-3.53,0.41c0,0,2.31-0.09,2.9-0.96      C128.05,61.73,128,60.32,127.73,59.79z"
   fill="#002B5C" />
			</g>
			<g
   id="g564">
				<path
   id="path562"
   d="M127.77,67.16c0,0,1.53,1.82,0.39,3.31c-1.13,1.48-3.04,0.73-3.53,0.41c0,0,2.31-0.09,2.9-0.96      C128.09,69.11,128.04,67.69,127.77,67.16z"
   fill="#002B5C" />
			</g>
			<g
   id="g568">
				<path
   id="path566"
   d="M128.17,82.55c0,0,1.72,2.05,0.44,3.72c-1.55,2.03-3.97,0.46-3.97,0.46s2.59-0.1,3.26-1.07      C128.54,84.73,128.48,83.14,128.17,82.55z"
   fill="#002B5C" />
			</g>
			<g
   id="g572">
				<path
   id="path570"
   d="M127.67,74.63c0,0,1.6,1.91,0.41,3.47c-1.19,1.55-3.18,0.77-3.7,0.43c0,0,2.42-0.09,3.04-1      C128.01,76.67,127.96,75.19,127.67,74.63z"
   fill="#002B5C" />
			</g>
			<g
   id="g578">
				<g
   id="g576">
					<path
   id="path574"
   d="M69.72,115.88c0,0,1.69,1.85,1.31,3.82c-0.37,1.96-2.01,1.45-2.47,1.16c0,0,1.67-0.55,1.84-1.68       C70.56,118.11,70.08,116.45,69.72,115.88z"
   fill="#002B5C" />
				</g>
			</g>
			<g
   id="g584">
				<g
   id="g582">
					<path
   id="path580"
   d="M187.07,116.06c0,0,0.47,2.52-0.98,3.98c-1.44,1.45-2.62,0.09-2.87-0.42c0,0,1.8,0.48,2.6-0.38       C186.57,118.42,187.08,116.75,187.07,116.06z"
   fill="#002B5C" />
				</g>
			</g>
		</g>
		<path
   id="path588"
   d="M103.11,110.65    c0.17,0.77-2.43,1.99-5.8,2.73c-3.37,0.74-6.24,0.71-6.41-0.06c-0.17-0.77,2.43-1.99,5.8-2.73    C100.07,109.86,102.94,109.88,103.11,110.65z"
   stroke-linejoin="round"
   stroke-width="0.9105"
   stroke="#002B5C"
   fill="#FFD200" />
		<path
   id="path590"
   d="M113.38,40.53c0,0,2.75-1.24,9.22-1.28v-6.72h7.11v6.63    c0,0,7.84-0.63,9.02,0.89c1.12,1.44,0.4,8-1.05,9.46c0,0-11-3.31-22.38,0C115.29,49.51,111.74,46.16,113.38,40.53z"
   stroke-width="1.1381"
   stroke="#002B5C"
   fill="#FFFFFF" />
		<path
   id="path592"
   d="M127.3,33.07c0,0.71-0.57,1.28-1.28,1.28    c-0.71,0-1.28-0.57-1.28-1.28c0-0.71,0.57-1.28,1.28-1.28C126.73,31.79,127.3,32.37,127.3,33.07z"
   stroke-width="0.5691"
   stroke="#002B5C"
   fill="#FDFDFC" />
		<path
   id="path594"
   d="M127.3,36.18c0,0.7-0.57,1.28-1.28,1.28    c-0.71,0-1.28-0.57-1.28-1.28c0-0.71,0.57-1.28,1.28-1.28C126.73,34.9,127.3,35.48,127.3,36.18z"
   stroke-width="0.5691"
   stroke="#002B5C"
   fill="#FDFDFC" />
		<path
   id="path596"
   d="M127.3,39.44c0,0.71-0.57,1.28-1.28,1.28    c-0.71,0-1.28-0.57-1.28-1.28c0-0.71,0.57-1.28,1.28-1.28C126.73,38.17,127.3,38.74,127.3,39.44z"
   stroke-width="0.5691"
   stroke="#002B5C"
   fill="#FDFDFC" />
		<path
   id="path598"
   d="M115.95,44.54c0,0.81-0.65,1.46-1.46,1.46    c-0.8,0-1.46-0.65-1.46-1.46c0-0.8,0.65-1.46,1.46-1.46C115.29,43.09,115.95,43.74,115.95,44.54z"
   stroke-width="0.5691"
   stroke="#002B5C"
   fill="#FDFDFC" />
		<path
   id="path600"
   d="M119.76,43.62c0,0.87-0.71,1.58-1.58,1.58    c-0.87,0-1.58-0.71-1.58-1.58c0-0.87,0.71-1.58,1.58-1.58C119.06,42.05,119.76,42.75,119.76,43.62z"
   stroke-width="0.5691"
   stroke="#002B5C"
   fill="#FDFDFC" />
		<path
   id="path602"
   d="M123.75,43.24c0,0.88-0.71,1.6-1.6,1.6    c-0.88,0-1.59-0.71-1.59-1.6c0-0.88,0.71-1.59,1.59-1.59C123.04,41.65,123.75,42.36,123.75,43.24z"
   stroke-width="0.5691"
   stroke="#002B5C"
   fill="#FDFDFC" />
		<path
   id="path604"
   d="M131.37,43.1c0,0.87-0.71,1.58-1.58,1.58    c-0.87,0-1.58-0.71-1.58-1.58c0-0.87,0.71-1.58,1.58-1.58C130.67,41.53,131.37,42.23,131.37,43.1z"
   stroke-width="0.5691"
   stroke="#002B5C"
   fill="#FDFDFC" />
		<path
   id="path606"
   d="M135.01,43.38c0,0.84-0.68,1.52-1.52,1.52    c-0.84,0-1.51-0.68-1.51-1.52c0-0.84,0.68-1.52,1.51-1.52C134.33,41.87,135.01,42.55,135.01,43.38z"
   stroke-width="0.5691"
   stroke="#002B5C"
   fill="#FDFDFC" />
		<path
   id="path608"
   d="M138.68,44.1c0,0.83-0.67,1.5-1.5,1.5c-0.83,0-1.5-0.67-1.5-1.5    c0-0.83,0.67-1.5,1.5-1.5C138.01,42.6,138.68,43.27,138.68,44.1z"
   stroke-width="0.5691"
   stroke="#002B5C"
   fill="#FDFDFC" />
		<path
   id="path610"
   d="M127.66,43.14c0,0.94-0.76,1.69-1.7,1.69    c-0.94,0-1.7-0.76-1.7-1.69c0-0.94,0.76-1.7,1.7-1.7C126.9,41.45,127.66,42.21,127.66,43.14z"
   stroke-width="0.5691"
   stroke="#002B5C"
   fill="#A32035" />
		<path
   id="path612"
   d="M157.31,115.6c0,0,2.81,5.91,5.28,6.06    c2.47,0.15,1.94-3.78,1.94-3.78s-0.68-1.89-1.99-0.73c-0.76,0.68-0.49,1.5-0.49,1.5s-1.89-0.87-2.47-2.86    C159.01,113.81,157.31,115.6,157.31,115.6z"
   stroke-linejoin="round"
   stroke-width="0.9105"
   stroke="#002B5C"
   fill="#FFD200" />
		<path
   id="path614"
   d="M98.99,114.08c0,0,4.28,4.95,6.71,4.43    c2.42-0.52,0.86-4.16,0.86-4.16s-1.16-1.64-2.11-0.17c-0.55,0.86-0.07,1.58-0.07,1.58s-2.05-0.34-3.14-2.1    C100.15,111.9,98.99,114.08,98.99,114.08z"
   stroke-linejoin="round"
   stroke-width="0.9105"
   stroke="#002B5C"
   fill="#FFD200" />
		<path
   id="path616"
   d="M96.5,115.31c0,0-2.81,5.91-5.29,6.06    c-2.47,0.15-1.94-3.78-1.94-3.78s0.68-1.89,1.99-0.73c0.76,0.68,0.49,1.5,0.49,1.5s1.89-0.87,2.47-2.86    C94.8,113.52,96.5,115.31,96.5,115.31z"
   stroke-linejoin="round"
   stroke-width="0.9105"
   stroke="#002B5C"
   fill="#FFD200" />
		<path
   id="path618"
   d="M154.58,114.21c0,0-4.51,4.57-6.92,3.98    c-2.4-0.59-0.66-3.93-0.66-3.93s1.21-1.61,2.11-0.11c0.53,0.87,0.02,1.58,0.02,1.58s2.07-0.27,3.21-2    C153.49,111.99,154.58,114.21,154.58,114.21z"
   stroke-linejoin="round"
   stroke-width="0.9105"
   stroke="#002B5C"
   fill="#FFD200" />
	</g>
	<g
   id="g626">
		<path
   id="path622"
   d="M108.26,142.18l-0.15,0.2c-0.18,0.23-0.29,0.59-0.38,0.89c-0.09,0.28-0.16,0.5-0.26,0.61    c-0.23,0.22-0.5,0.28-0.75,0.16l-0.12-0.05c-0.27-0.12-0.76-0.34-1.23-0.83c-0.5-0.53-2.13-0.53-2.82-0.38    c-0.44,0.09-1.18,0.99-1.62,1.59c0.64-0.36,1.93-1.05,2.57-1.21c0.84-0.2,1.58,0.71,1.86,1.12c0.15,0.22,0.83,0.71,0.97,0.74    c0.82,0.19,1.48,0.23,1.85,0.1c0.47-0.17,1.49-0.06,2.37,0.07c-0.66-0.3-1.37-0.72-1.37-0.97c0-0.06,0.03-0.11,0.09-0.14    c0.34-0.18,0.41-0.3,0.53-0.55c0.13-0.25,0.48-0.32,1.01-0.42l0.48-0.1c0.2-0.04,0.4-0.05,0.59-0.06    c-0.07-0.01-0.19-0.03-0.19-0.03c-0.31-0.12-1.17-0.17-1.62-0.01c-0.17,0.06-0.36,0.28-0.51,0.46c-0.19,0.22-0.32,0.37-0.46,0.33    c-0.11-0.03-0.14-0.17-0.16-0.27c-0.1-0.67,0.5-1.49,1.45-1.99c0.65-0.35,1.66-0.17,2.24-0.02c-0.47-0.32-1.17-0.61-2.2-0.62    C109.22,140.78,108.62,141.66,108.26,142.18z"
   fill="#002B5C" />
		<path
   id="path624"
   d="M110.43,140.7c-0.01,0-0.02,0-0.04,0c-1.42,0-2.03,1.18-2.36,1.63c-0.34,0.45-0.44,1.29-0.64,1.49    c-0.13,0.13-0.27,0.19-0.42,0.19c-0.08,0-0.15-0.02-0.23-0.06c-0.22-0.11-0.78-0.29-1.32-0.86c-0.35-0.37-1.2-0.5-1.93-0.5    c-0.38,0-0.74,0.03-0.97,0.08c-0.69,0.15-1.93,1.97-1.93,1.97s0.06-0.03,0.16-0.09l0,0c0.06-0.03,0.13-0.07,0.22-0.12l0,0    c0.64-0.36,1.92-1.04,2.55-1.19c0.07-0.02,0.15-0.03,0.22-0.03c0.76,0,1.39,0.89,1.54,1.11c0.16,0.23,0.85,0.74,1.02,0.78    c0.18,0.04,0.77,0.18,1.3,0.18c0.22,0,0.43-0.02,0.6-0.08c0.16-0.06,0.4-0.08,0.68-0.08c0.48,0,1.07,0.07,1.6,0.14l0,0    c0.25,0.04,0.48,0.07,0.67,0.11l0,0c0.07,0.01,0.13,0.02,0.18,0.03c-0.77-0.23-2.06-0.94-2.06-1.19c0-0.02,0.01-0.04,0.04-0.06    c0.35-0.19,0.43-0.32,0.57-0.59c0.14-0.27,0.68-0.3,1.43-0.46c0.15-0.03,0.31-0.05,0.46-0.06l0,0c0.07,0,0.14-0.01,0.21-0.01    c0.28,0,0.53,0.03,0.68,0.05l0,0c0.11,0.02,0.18,0.03,0.18,0.03s0-0.01,0-0.02c0-0.03-0.02-0.07-0.17-0.12    c-0.15-0.05-0.62-0.02-0.95-0.15c-0.18-0.07-0.54-0.12-0.89-0.12c-0.29,0-0.58,0.03-0.79,0.1c-0.36,0.13-0.71,0.79-0.89,0.79    c-0.05,0-0.09-0.06-0.11-0.2c-0.01-0.04-0.01-0.09-0.01-0.13c0-0.6,0.55-1.31,1.41-1.76c0.26-0.14,0.59-0.19,0.93-0.19    c0.45,0,0.9,0.09,1.23,0.17l0,0c0.12,0.03,0.21,0.06,0.29,0.08l0,0c0.11,0.03,0.18,0.06,0.18,0.06    C112.68,141.28,111.88,140.72,110.43,140.7L110.43,140.7z M106.98,144.2c0.2,0,0.39-0.09,0.55-0.25c0.12-0.12,0.19-0.35,0.28-0.64    c0.1-0.3,0.2-0.64,0.37-0.87c0.04-0.06,0.09-0.13,0.15-0.21c0.35-0.5,0.92-1.35,2.07-1.35h0.04c0,0,0,0,0,0    c0.67,0.01,1.19,0.14,1.61,0.31c-0.22-0.03-0.45-0.05-0.68-0.05c-0.41,0-0.75,0.07-1.01,0.21c-0.99,0.52-1.6,1.38-1.5,2.09    c0.04,0.29,0.18,0.35,0.3,0.35c0.17,0,0.3-0.15,0.49-0.37c0.14-0.17,0.32-0.38,0.47-0.43c0.17-0.06,0.43-0.09,0.72-0.09    c0.15,0,0.3,0.01,0.42,0.02c-0.17,0.04-0.32,0.07-0.46,0.09c-0.54,0.1-0.93,0.17-1.08,0.47c-0.13,0.25-0.19,0.35-0.49,0.51    c-0.1,0.05-0.15,0.14-0.14,0.25c0.02,0.22,0.42,0.51,0.89,0.77c-0.38-0.05-0.76-0.08-1.09-0.08c-0.33,0-0.57,0.03-0.74,0.09    c-0.14,0.05-0.32,0.07-0.53,0.07c-0.24,0-0.65-0.03-1.26-0.17c-0.14-0.04-0.78-0.51-0.91-0.7c-0.31-0.44-0.94-1.19-1.69-1.19    c-0.09,0-0.18,0.01-0.27,0.03c-0.54,0.13-1.53,0.63-2.22,1.01c0.45-0.57,0.99-1.14,1.31-1.21c0.24-0.05,0.59-0.08,0.94-0.08    c0.85,0,1.54,0.17,1.8,0.44c0.48,0.51,0.99,0.73,1.26,0.85c0.04,0.02,0.09,0.03,0.11,0.05    C106.77,144.17,106.87,144.2,106.98,144.2L106.98,144.2z M111.32,145.4c0.06,0.02,0.13,0.03,0.18,0.05l0,0c0,0,0.01,0,0.02,0l0,0    c0.07,0.01,0.13,0.02,0.18,0.02C111.71,145.48,111.56,145.45,111.32,145.4L111.32,145.4z"
   fill="#002B5C" />
	</g>
</g>
</svg>
