<?xml version="1.0" encoding="UTF-8" standalone="no"?>
<svg
   xmlns:dc="http://purl.org/dc/elements/1.1/"
   xmlns:cc="http://creativecommons.org/ns#"
   xmlns:rdf="http://www.w3.org/1999/02/22-rdf-syntax-ns#"
   xmlns:svg="http://www.w3.org/2000/svg"
   xmlns="http://www.w3.org/2000/svg"
   xmlns:sodipodi="http://sodipodi.sourceforge.net/DTD/sodipodi-0.dtd"
   xmlns:inkscape="http://www.inkscape.org/namespaces/inkscape"
   inkscape:version="1.0 (4035a4fb49, 2020-05-01)"
   sodipodi:docname="RBYC Burgee.svg"
   xml:space="preserve"
   enable-background="new 0 0 500 500"
   viewBox="0 0 500 500"
   y="0px"
   x="0px"
   id="Layer_1"
   version="1.1"><metadata
   id="metadata441"><rdf:RDF><cc:Work
       rdf:about=""><dc:format>image/svg+xml</dc:format><dc:type
         rdf:resource="http://purl.org/dc/dcmitype/StillImage" /><dc:title></dc:title></cc:Work></rdf:RDF></metadata><defs
   id="defs439" /><sodipodi:namedview
   inkscape:current-layer="Layer_1"
   inkscape:window-maximized="1"
   inkscape:window-y="-8"
   inkscape:window-x="54"
   inkscape:cy="250"
   inkscape:cx="250"
   inkscape:zoom="1.78"
   showgrid="false"
   id="namedview437"
   inkscape:window-height="1057"
   inkscape:window-width="1858"
   inkscape:pageshadow="2"
   inkscape:pageopacity="0"
   guidetolerance="10"
   gridtolerance="10"
   objecttolerance="10"
   borderopacity="1"
   bordercolor="#666666"
   pagecolor="#ffffff" />
<g
   id="g434">
	<path
   id="path2"
   d="M94.58,114.87c0,0,53.86-14.9,86.58-3.81c42.68,14.46,70.24,46.78,91.33,51.45c25.67,0.77,30.4-8.7,69.19,0   c38.78,8.7,104.55,59.93,145.74,81.15c-32.26,15.47-37.22,14.8-55.84,18.72c-115.24,11.29-160.19,48.54-201.99,54.37   c-57.67,9.47-76.84-4.42-123.58-0.23c-30.94,5.95-69.19,33.34-69.19,33.34L94.58,114.87z"
   fill="#FFFFFF" />
	<g
   id="g420">
		<g
   id="g418">
			<path
   d="m 197.63,228.96 0.61,10.69 23.61,-1.04 22.05,7.4 5.3,-6.56 -19.78,-7.48 -14.87,-2.18 -12,-2.24 -4.92,1.41 z"
   style="clip-rule:evenodd;fill:#a32035;fill-rule:evenodd"
   id="polygon4" />
			<path
   d="m 199.88,232.62 0.49,-10.43 1.54,-1.57 1.6,-1.1 1.89,-0.15 1.96,0.62 1.31,0.89 0.67,-1.02 1.63,-1.54 1.55,-0.35 2.31,0.52 2,0.77 2.14,1.69 2.08,1.16 1.53,1.22 7.36,1.27 6.41,-1.49 3.59,-0.4 3.35,-0.51 1.35,0.87 1.05,1.56 0.09,1.56 0.99,-0.07 2.54,0.03 1.65,0.76 1,1.25 0.36,2.03 -1,1.24 -1.83,1.63 -1,0.81 -1.19,-0.33 -0.37,0.53 0.78,2.69 -0.07,2.78 -2.3,-0.38 -9.08,-6.07 -8.41,1.99 -12.21,-5.03 -11.53,0.52 -4.23,2.05 z"
   style="clip-rule:evenodd;fill:#a32035;fill-rule:evenodd"
   id="polygon6" />
			<path
   id="path8"
   d="M204.48,229.77c0,0,2.75-3.64,4.27-4.98     c1.51-1.35,3.34-2.48,3.34-2.48l0.37-0.17c0,0,1.06,1.52,1.52,2.12c0.46,0.6,1.06,1.29,1.7,1.62c0.64,0.32,1.98,0.76,2.6,1.15     c0.62,0.4,1.02,1.8,1.02,1.8l2.2-1.3l1.11-2.96l-2.69-1.09l-0.85-0.43c0,0-1.28-0.05-1.68,0.18c-0.4,0.24-0.62,1.48-0.62,1.48     L216.1,224c0,0,0.24-1.31,0.5-1.35c0.26-0.04,1.49-0.36,1.49-0.36s-0.88-0.29-2.12-1.76c-1.23-1.47-1.45-2.03-1.9-2.11     c-0.46-0.08-3.07,0.1-3.47,0.34c-0.39,0.24-1.29,1.22-1.29,1.22l0.12,1.08c0,0,1.55-0.28,2.45-0.59c0.91-0.3,0.97,0.23,1.54-0.28     c0.57-0.51,0.72,0.27,0.48,0.52c-0.25,0.27-1.44,0.97-2.15,1.16c-0.71,0.19-1.68-0.04-2.43-0.47c-0.75-0.42-0.77-1.33-1.53-1.45     c-0.76-0.12-2.06-0.33-2.66-0.43c-0.61-0.1-1.42-0.08-1.65,0.11c-0.23,0.19,0.2,0.33,0.74,0.42c0.54,0.09,0.19,1.08,0.77,1.49     c0.85,0.59,1.22,1.63,1.61,2.14c0.39,0.51,0.37,0.59,0.29,0.8c-0.07,0.21-0.77,0.1-1.23,0.03c-0.47-0.08-0.4-0.97-0.4-0.97     l-0.93-0.38l-1.05-0.02l-1.49,0.75l-0.67,0.95l0.62,1.69l1.4,0.22l1.18,2.75L204.48,229.77L204.48,229.77z"
   fill="#A32035"
   clip-rule="evenodd"
   fill-rule="evenodd" />
			<path
   id="path10"
   d="M232.55,231.03l-1.42-1.2c0,0,1.11-0.81,1.53-1.06     c0.43-0.24,0.97-0.71,0.97-0.71s-0.56-0.07-0.81-0.11c-0.25-0.04-0.4-0.45-0.35-0.66c0.05-0.2,0.27-1.04,0.4-1.13     c0.13-0.09,0.42-0.31,0.62-0.27c0.19,0.03,0.5,0.05,0.78-0.04c0.29-0.1,1.56-0.76,1.86-0.85c0.31-0.09,0.86-0.47,1.17-0.59     c0.31-0.12,1.56-0.51,2.06-0.47c0.51,0.03,2.3-0.2,2.51-0.24c0.21-0.04,0.86-0.07,1.11-0.03c0.24,0.04,0.86,0.41,0.97,0.47     c0.12,0.06,0.54,0.24,0.63,0.44c0.08,0.2,0.1,0.48,0.03,0.58c-0.08,0.1-0.32,0.3-0.52,0.27c-0.2-0.03-0.76-0.07-0.91-0.21     c-0.15-0.14-0.37-0.22-0.58-0.41c-0.22-0.19-0.29-0.09-0.53-0.27c-0.24-0.18-0.57,0.38-0.64,0.55c-0.06,0.17,0.06,0.89,0.18,1.03     c0.12,0.13,1.31,0.59,1.48,0.64c0.17,0.05,1.03,0.16,1.3,0.09c0.27-0.08,0.98-0.25,1.28-0.32c0.3-0.07,1.15-0.33,1.45-0.29     c0.3,0.05,1.39,0.03,1.64,0.11c0.24,0.08,0.68,0.22,0.81,0.33c0.14,0.11,0.59,0.72,0.74,1.13c0.15,0.41,0.27,1.01,0.09,1.37     c-0.18,0.37-0.45,1.59-0.56,1.74c-0.1,0.15-0.29,0.14-0.29,0.14s-0.17-0.32-0.43-0.62c-0.25-0.29-0.66-0.63-0.86-0.78     c-0.21-0.15-0.62-0.53-1.05-0.6c-0.43-0.07-0.75-0.02-0.82,0.18c-0.07,0.2,0.13,0.62,0.23,0.78c0.1,0.15,0.09,0.45,0.4,0.7     c0.32,0.25,0.59,0.58,0.69,0.73c0.1,0.15,0.4,0.59,0.42,0.75c0.01,0.17,0.12,0.34-0.06,0.38c-0.16,0.04-0.38,0.2-0.38,0.2     l-0.04,0.32l0.03,0.37c0,0-0.48-0.12-0.57-0.22c-0.08-0.11-0.63-0.62-0.63-0.62s0.17,0.46,0.2,0.56c0.03,0.1,0.25,0.59,0.25,0.59     s-0.13,0.37-0.25,0.17c-0.12-0.2-0.48-0.61-0.56-0.85c-0.08-0.24-1.3-1.07-1.29-1.23c0.01-0.16-0.73-1.22-0.73-1.22l-0.88-1.83     l-0.95-1.24l-1.15-1.1l-1.98,0.71l-1.84,0.74c0,0-1.68,0.81-2.55,1.26C233.89,229.69,232.55,231.03,232.55,231.03L232.55,231.03     L232.55,231.03z"
   fill="#A32035"
   clip-rule="evenodd"
   fill-rule="evenodd" />
			<path
   id="path12"
   d="M198.2,239.25l-0.27-5.3c0,0,2.16,4.23,7.11,3.92     c3.45-0.22,5.62-3.57,5.62-3.57s1.9,3.59,6.57,3.27c2.66-0.19,3.39-1.49,6.23-0.96c1.05,0.19,2.89,1.77,2.89,1.77     s5.24,2.44,9.57-0.48c-0.02,0.07-0.41,3.31,3.49,4.75c3.94,1.44,7.87-1.79,7.87-1.79l0.58,0.2l-3.13,4.66l-17.69-5.31l-10.1-1.78     l-11.93,0.28L198.2,239.25L198.2,239.25L198.2,239.25z"
   fill="#FFFFFF"
   clip-rule="evenodd"
   fill-rule="evenodd" />
			<path
   id="path14"
   d="M226.59,204.5l1.95-7.36c0,0-0.02,3.49,2.95,3.05     c0,0,1.23-1.69-0.88-3.97l5.51,0.97c0,0-3.01,1.06-2.75,3.28c0,0,1.7,0.81,4.63-1.63l-1.58,6.87c0,0-1.89-2.75-3.19-2.89     c-0.02,0.06-1.22,0.81,1.41,5.14l-0.23,1.51l-7.81-1.13l0.22-1.71c0,0,3.75-1.63,4.2-4.04     C231.04,202.6,228.05,202.5,226.59,204.5L226.59,204.5L226.59,204.5z"
   fill="#FFCD00"
   clip-rule="evenodd"
   fill-rule="evenodd" />
			<path
   id="path16"
   d="M198.17,240.78c0,0,0.81,1.44,0.75,2.19     c-0.06,0.75-0.52,2.45-0.52,2.45s12.06-1.55,21.87,0.09c9.91,1.64,20.68,6.99,20.68,6.99s0.52-2.17,1.29-3.17     c0.76-0.99,1.79-2.21,1.79-2.21s-7.23-4.6-21.68-6.66C206.9,238.2,198.17,240.78,198.17,240.78L198.17,240.78L198.17,240.78z"
   fill="#FFCD00"
   clip-rule="evenodd"
   fill-rule="evenodd" />
			<path
   id="path18"
   d="M198.4,245.42c0,0,9.79-2.42,22.12-0.8     c12.46,1.62,20.36,7.09,20.36,7.09s0.62,0.35,0.58,0.9c0,0.1-0.29,0.54-0.73,0.44c0,0,0.69,1.13-0.88,1.21     c0,0,0.12,0.46,0.01,0.98c-0.17,0.85-1.61,1.2-1.61,1.2c-2.17-1.42-8.97-6-18.65-7.52c-6.05-0.96-12.69-1.22-22.24,1.34     c0,0-1.76-0.49-0.27-1.97c0,0-1.78,0.24-0.05-1.72C197.04,246.56,195.94,246.19,198.4,245.42L198.4,245.42L198.4,245.42z"
   fill="#FFFFFF"
   clip-rule="evenodd"
   fill-rule="evenodd" />
			<path
   id="path20"
   d="M230.34,248.85l-0.09,0.06c-0.12,0.06-0.22,0.17-0.32,0.27     c-0.09,0.09-0.15,0.16-0.21,0.18c-0.13,0.06-0.26,0.04-0.34-0.03l-0.04-0.04c-0.1-0.07-0.27-0.21-0.38-0.44     c-0.12-0.25-0.81-0.45-1.12-0.47c-0.2-0.02-0.67,0.22-0.96,0.38c0.33-0.05,1-0.15,1.3-0.13c0.39,0.03,0.55,0.44,0.6,0.62     c0.03,0.1,0.23,0.35,0.29,0.38c0.31,0.17,0.58,0.26,0.77,0.26c0.22,0,0.64,0.15,0.99,0.3c-0.22-0.18-0.45-0.4-0.42-0.5     c0.01-0.03,0.03-0.04,0.07-0.05c0.18-0.03,0.22-0.06,0.32-0.14c0.1-0.07,0.25-0.05,0.5-0.03l0.22,0.02     c0.09,0.01,0.18,0.03,0.26,0.05c-0.02-0.01-0.07-0.03-0.07-0.03c-0.11-0.08-0.47-0.2-0.68-0.19c-0.09,0-0.21,0.06-0.29,0.1     c-0.12,0.05-0.2,0.1-0.26,0.06c-0.04-0.02-0.03-0.08-0.02-0.11c0.07-0.25,0.46-0.48,0.95-0.54c0.34-0.05,0.73,0.14,0.95,0.26     c-0.15-0.17-0.4-0.36-0.83-0.49C230.99,248.46,230.58,248.71,230.34,248.85L230.34,248.85L230.34,248.85z"
   fill="#0A2240"
   clip-rule="evenodd"
   fill-rule="evenodd" />
			<path
   id="path22"
   d="M231.11,250.37c0.02,0.01,0.04,0.03,0.07,0.04c0,0,0,0,0.01,0     c0.03,0.01,0.05,0.03,0.08,0.03C231.26,250.44,231.2,250.41,231.11,250.37L231.11,250.37L231.11,250.37z M229.5,249.44     c0.07,0.01,0.15,0,0.23-0.04c0.07-0.03,0.14-0.1,0.23-0.19c0.09-0.1,0.2-0.21,0.31-0.27c0.03-0.01,0.06-0.03,0.09-0.05     c0.22-0.13,0.54-0.33,0.95-0.27c0.06,0.01,0.11,0.02,0.16,0.03c0.28,0.08,0.48,0.19,0.63,0.31c-0.14-0.06-0.31-0.12-0.47-0.14     c-0.09-0.01-0.18-0.02-0.27,0c-0.51,0.07-0.91,0.3-0.98,0.57c-0.01,0.04-0.02,0.09,0.01,0.13c0.02,0.02,0.04,0.03,0.07,0.04     c0.07,0.01,0.14-0.03,0.25-0.08c0.09-0.05,0.2-0.1,0.28-0.1c0.03,0,0.07,0,0.11,0.01c0.13,0.02,0.27,0.05,0.38,0.1     c-0.07-0.01-0.14-0.02-0.21-0.02c-0.25-0.03-0.43-0.05-0.53,0.04c-0.1,0.07-0.14,0.1-0.3,0.13c-0.05,0.01-0.08,0.03-0.1,0.07     c-0.03,0.08,0.09,0.23,0.25,0.38c-0.24-0.1-0.49-0.18-0.67-0.2c-0.04-0.01-0.08-0.01-0.11-0.01c-0.03,0-0.06,0-0.1-0.01     c-0.17-0.02-0.4-0.11-0.65-0.24c-0.05-0.03-0.24-0.28-0.26-0.36c-0.07-0.22-0.22-0.59-0.59-0.64c-0.01,0-0.02,0-0.04,0     c-0.25-0.02-0.76,0.04-1.11,0.09c0.29-0.15,0.61-0.29,0.76-0.28c0.02,0,0.05,0,0.07,0.01c0.35,0.05,0.92,0.24,1.02,0.45     c0.12,0.24,0.3,0.38,0.4,0.45c0.01,0.01,0.03,0.02,0.04,0.03C229.38,249.4,229.44,249.43,229.5,249.44L229.5,249.44L229.5,249.44     z M231.33,248.55c-0.52-0.07-0.91,0.23-1.11,0.34c-0.22,0.12-0.41,0.41-0.52,0.46c-0.06,0.03-0.12,0.03-0.18,0.03     c-0.05-0.01-0.08-0.03-0.12-0.05c-0.08-0.06-0.28-0.2-0.42-0.47c-0.12-0.25-0.74-0.43-1.08-0.48c-0.02,0-0.05-0.01-0.07-0.01     c-0.32-0.03-1.15,0.48-1.15,0.48s0.03-0.01,0.08-0.01c0.03-0.01,0.07-0.01,0.11-0.02c0.33-0.05,0.99-0.15,1.28-0.13     c0.02,0,0.02,0,0.03,0.01c0.37,0.05,0.5,0.5,0.53,0.59c0.03,0.1,0.23,0.36,0.3,0.4c0.09,0.05,0.41,0.22,0.68,0.25     c0.04,0.01,0.08,0.01,0.12,0.01c0.03,0,0.06,0,0.09,0.01c0.23,0.03,0.58,0.16,0.86,0.28c0.1,0.04,0.19,0.09,0.27,0.12     c0.02,0.01,0.05,0.02,0.07,0.03c-0.29-0.17-0.71-0.57-0.68-0.67c0-0.01,0.01-0.02,0.03-0.02c0.18-0.03,0.24-0.06,0.34-0.14     c0.11-0.08,0.34-0.03,0.69,0c0.03,0,0.05,0.01,0.07,0.01c0.04,0.01,0.09,0.01,0.13,0.03c0.16,0.04,0.29,0.09,0.37,0.12     c0.04,0.02,0.07,0.03,0.07,0.03s0,0,0-0.01c0-0.01,0-0.03-0.05-0.06c-0.05-0.04-0.26-0.08-0.38-0.17     c-0.1-0.07-0.36-0.16-0.58-0.2c-0.05-0.01-0.1-0.01-0.13-0.01c-0.18,0-0.43,0.19-0.51,0.18c-0.02,0-0.04-0.03-0.02-0.08     c0,0,0,0,0-0.01c0.06-0.23,0.44-0.45,0.91-0.51c0.08-0.01,0.16-0.01,0.24,0c0.26,0.04,0.51,0.16,0.68,0.25     c0.04,0.02,0.08,0.05,0.11,0.06c0.04,0.02,0.06,0.04,0.06,0.04c-0.1-0.18-0.35-0.47-0.95-0.65     C231.45,248.57,231.39,248.55,231.33,248.55L231.33,248.55L231.33,248.55z"
   fill="#0A2240"
   clip-rule="evenodd"
   fill-rule="evenodd" />
			<path
   id="path24"
   d="M221.39,246.37l-0.08,0.07c-0.11,0.08-0.19,0.2-0.27,0.32     c-0.07,0.1-0.12,0.17-0.18,0.21c-0.12,0.07-0.25,0.07-0.35,0.01l-0.05-0.03c-0.1-0.06-0.3-0.17-0.45-0.38     c-0.16-0.23-0.87-0.33-1.19-0.32c-0.21,0.01-0.63,0.3-0.9,0.49c0.32-0.09,0.97-0.27,1.27-0.29c0.39-0.02,0.61,0.36,0.69,0.53     c0.04,0.09,0.28,0.32,0.34,0.34c0.34,0.13,0.62,0.18,0.8,0.15c0.22-0.03,0.66,0.07,1.03,0.18c-0.26-0.16-0.52-0.36-0.49-0.45     c0.01-0.03,0.03-0.04,0.06-0.05c0.17-0.05,0.21-0.09,0.3-0.17c0.08-0.08,0.24-0.09,0.49-0.09l0.22-0.01     c0.09-0.01,0.18,0.01,0.27,0.01c-0.03-0.01-0.08-0.03-0.08-0.03c-0.12-0.06-0.49-0.14-0.71-0.11c-0.08,0.02-0.19,0.09-0.28,0.14     c-0.1,0.07-0.18,0.12-0.24,0.1c-0.04-0.02-0.04-0.08-0.04-0.11c0.03-0.25,0.38-0.52,0.85-0.65c0.33-0.09,0.75,0.04,0.98,0.13     c-0.17-0.15-0.44-0.3-0.9-0.37C221.97,245.91,221.61,246.19,221.39,246.37L221.39,246.37L221.39,246.37z"
   fill="#0A2240"
   clip-rule="evenodd"
   fill-rule="evenodd" />
			<path
   id="path26"
   d="M222.39,247.76c0.03,0.01,0.05,0.02,0.07,0.03     c0,0,0.01,0,0.01,0c0.03,0.01,0.06,0.01,0.08,0.02C222.54,247.81,222.49,247.79,222.39,247.76L222.39,247.76L222.39,247.76z      M220.61,247.04c0.09,0.01,0.18-0.01,0.27-0.06c0.07-0.04,0.12-0.12,0.19-0.22c0.08-0.11,0.16-0.23,0.26-0.3     c0.02-0.02,0.06-0.04,0.09-0.07c0.21-0.17,0.56-0.45,1.06-0.37l0.02,0l-0.01,0c0.3,0.04,0.51,0.13,0.67,0.22     c-0.09-0.02-0.19-0.05-0.29-0.06c-0.18-0.03-0.34-0.02-0.47,0.01c-0.49,0.14-0.85,0.42-0.89,0.69c-0.02,0.11,0.04,0.14,0.09,0.15     c0.08,0.01,0.15-0.04,0.26-0.1c0.08-0.05,0.18-0.12,0.26-0.13c0.08-0.01,0.2-0.01,0.33,0.01c0.07,0.01,0.13,0.02,0.18,0.03     c-0.08,0.01-0.15,0.01-0.21,0.01c-0.24,0-0.43,0.01-0.53,0.11c-0.08,0.09-0.12,0.12-0.27,0.16c-0.05,0.01-0.08,0.05-0.09,0.08     c-0.02,0.08,0.13,0.21,0.3,0.34c-0.16-0.04-0.32-0.07-0.47-0.09c-0.14-0.02-0.26-0.03-0.34-0.01c-0.06,0.01-0.15,0.01-0.24-0.01     c-0.11-0.01-0.28-0.05-0.54-0.14c-0.05-0.03-0.28-0.24-0.32-0.32c-0.09-0.19-0.27-0.5-0.6-0.55c-0.04-0.01-0.08-0.01-0.13-0.01     c-0.25,0.02-0.74,0.14-1.09,0.24c0.26-0.18,0.57-0.36,0.71-0.37c0.11,0,0.27,0.01,0.42,0.03c0.37,0.05,0.65,0.16,0.74,0.28     c0.15,0.22,0.35,0.34,0.46,0.39c0.01,0.01,0.03,0.02,0.04,0.03C220.52,247.02,220.56,247.03,220.61,247.04L220.61,247.04     L220.61,247.04z M222.52,245.96c-0.01,0-0.01,0-0.02,0c-0.62-0.09-1.02,0.31-1.21,0.46c-0.2,0.15-0.34,0.46-0.45,0.52     c-0.07,0.04-0.14,0.06-0.21,0.05c-0.03,0-0.06-0.02-0.09-0.04c-0.08-0.06-0.31-0.16-0.48-0.41c-0.12-0.16-0.47-0.26-0.79-0.31     c-0.17-0.02-0.33-0.03-0.44-0.03c-0.32,0.01-1.07,0.61-1.07,0.61s0.03-0.01,0.08-0.02c0.03-0.01,0.07-0.02,0.11-0.03     c0.33-0.09,0.97-0.27,1.25-0.29c0.04,0,0.07,0,0.1,0.01c0.33,0.05,0.5,0.42,0.55,0.5c0.04,0.1,0.29,0.33,0.36,0.35     c0.08,0.03,0.32,0.12,0.55,0.15c0.1,0.01,0.19,0.02,0.27,0.01c0.08-0.01,0.18-0.01,0.31,0.01c0.21,0.03,0.46,0.09,0.68,0.15     c0.11,0.03,0.2,0.06,0.28,0.08c0.03,0.01,0.06,0.02,0.08,0.03c-0.32-0.14-0.8-0.48-0.78-0.57c0-0.01,0.01-0.02,0.03-0.02     c0.18-0.05,0.22-0.09,0.31-0.19c0.09-0.09,0.34-0.07,0.68-0.08c0.07,0,0.14-0.01,0.21,0c0.04,0,0.06,0.01,0.1,0.01     c0.12,0.02,0.23,0.04,0.29,0.06c0.05,0.02,0.07,0.02,0.07,0.02s0.01,0,0.01,0c0-0.01,0-0.03-0.06-0.06     c-0.07-0.03-0.27-0.04-0.41-0.11c-0.07-0.04-0.23-0.08-0.38-0.1c-0.13-0.02-0.26-0.02-0.36-0.01c-0.17,0.02-0.4,0.25-0.48,0.24     c-0.02,0-0.03-0.02-0.03-0.08c0-0.02,0-0.04,0.01-0.05c0.07-0.23,0.39-0.46,0.82-0.57c0.13-0.04,0.28-0.03,0.43-0.01     c0.2,0.03,0.39,0.09,0.52,0.14c0.05,0.02,0.09,0.03,0.12,0.05c0.04,0.02,0.07,0.03,0.07,0.03     C223.43,246.31,223.14,246.06,222.52,245.96L222.52,245.96L222.52,245.96z"
   fill="#0A2240"
   clip-rule="evenodd"
   fill-rule="evenodd" />
			<path
   id="path28"
   d="M203.7,211.01L203.7,211.01c-2.14,1.4-4.02,4.01-5.15,7.09     c-0.14,0.37-0.27,0.75-0.38,1.13c-0.92,3.08,0.63,6.8,1.43,8.38c0.32-0.07,1.83-0.35,2.41-0.45c-0.68-1.45-2.19-5.39-1.52-7.7     c0.09-0.33,0.2-0.66,0.32-0.98c0.92-2.54,2.42-4.69,4.04-5.76c1.81-1.19,3.88-1.81,5.29-1.57c2.09,0.35,3.85,1.29,5.92,3.14     c2,1.76,5.63,4.01,11.46,4.82c0.09-0.39,0.41-1.77,0.5-2.15c-5.23-0.74-8.47-2.76-10.26-4.33c-2.34-2.1-4.47-3.22-6.93-3.63     C208.81,208.66,206.08,209.43,203.7,211.01L203.7,211.01L203.7,211.01z"
   fill="#FFCD00"
   clip-rule="evenodd"
   fill-rule="evenodd" />
			<path
   id="path30"
   d="M199.8,227.3c-0.47-0.95-0.85-1.91-1.13-2.87     c-0.57-2.01-0.64-3.75-0.21-5.17c1.04-3.51,3.06-6.51,5.39-8.04c2.32-1.53,4.96-2.28,6.91-1.95c2.41,0.41,4.5,1.51,6.8,3.57l0,0     c1.72,1.52,4.84,3.5,9.86,4.31c0.08,0.01,0.17,0.03,0.26,0.04l-0.38,1.61c-0.11-0.01-0.21-0.03-0.32-0.05     c-5.44-0.88-8.84-3.03-10.71-4.68c-2.11-1.89-3.91-2.85-6.05-3.2c-0.75-0.13-1.67-0.03-2.66,0.26c-0.96,0.29-1.96,0.76-2.87,1.37     c-0.95,0.62-1.86,1.6-2.66,2.83c-0.78,1.2-1.42,2.62-1.85,4.09c-0.65,2.22,0.63,5.87,1.37,7.54L199.8,227.3L199.8,227.3     L199.8,227.3z M210.93,208.74c-2.1-0.36-4.92,0.43-7.37,2.06c-2.2,1.45-4.14,4.11-5.3,7.27c-0.14,0.38-0.27,0.76-0.38,1.14     c-1.11,3.67,1.24,8.18,1.52,8.72l2.4-0.45l0.04,0l0.61-0.12c-0.64-1.23-2.35-5.53-1.68-7.86c0.09-0.33,0.2-0.65,0.32-0.96     c0.89-2.48,2.34-4.57,3.9-5.59c1.73-1.14,3.71-1.74,5.06-1.52c2.03,0.34,3.76,1.26,5.79,3.07c1.96,1.73,5.44,3.91,10.99,4.81     c0.11,0.02,0.22,0.03,0.33,0.05c0.19,0.03,0.38,0.06,0.58,0.08l0.63-2.68c-0.28-0.04-0.55-0.08-0.81-0.12     c-4.85-0.79-7.89-2.68-9.58-4.18C215.6,210.3,213.44,209.16,210.93,208.74L210.93,208.74L210.93,208.74z"
   fill="#0A2240"
   clip-rule="evenodd"
   fill-rule="evenodd" />
			<path
   id="path32"
   d="M241.01,216.43L241.01,216.43c-2.48,0.86-6.53,1.68-11.74,0.74     c-0.11,0.37-0.53,1.74-0.64,2.12c5.82,1.05,10.37,0.13,13.16-0.83c2.91-1.01,5.07-1.3,7.24-0.95c1.48,0.24,3.16,1.44,4.29,3.06     c1.02,1.45,1.34,3.82,0.89,6.34c-0.06,0.32-0.13,0.64-0.21,0.96c-0.59,2.25-4.2,5.28-5.66,6.37c0.5,0.27,1.8,0.96,2.07,1.11     c1.65-1.17,5.19-3.98,5.96-6.97c0.09-0.37,0.18-0.74,0.24-1.11c0.53-3.06,0.06-5.94-1.3-7.85c-1.5-2.15-3.75-3.7-5.88-4.04     C246.87,214.96,244.28,215.28,241.01,216.43L241.01,216.43L241.01,216.43z"
   fill="#FFCD00"
   clip-rule="evenodd"
   fill-rule="evenodd" />
			<path
   id="path34"
   d="M229.73,217.53c5.06,0.81,9-0.01,11.38-0.84     c3.22-1.13,5.77-1.45,8.28-1.05c2.05,0.33,4.22,1.83,5.68,3.92c1.47,2.08,1.86,5.35,1,8.75c-0.35,1.38-1.37,2.89-3.02,4.49     c-0.79,0.76-1.7,1.51-2.68,2.21l-1.52-0.82c1.63-1.26,4.86-4.11,5.43-6.26c0.37-1.43,0.5-2.87,0.38-4.17     c-0.13-1.33-0.51-2.49-1.11-3.33c-0.57-0.82-1.28-1.55-2.06-2.11c-0.8-0.58-1.64-0.95-2.43-1.07c-2.22-0.35-4.43-0.07-7.39,0.97     c-2.61,0.9-6.9,1.8-12.39,0.93c-0.1-0.02-0.21-0.03-0.31-0.05l0.48-1.59C229.56,217.5,229.64,217.51,229.73,217.53L229.73,217.53     L229.73,217.53z M249.49,215.11c-2.62-0.42-5.25-0.09-8.58,1.08c-2.35,0.82-6.15,1.6-11.05,0.81c-0.26-0.04-0.54-0.09-0.81-0.14     l-0.81,2.66c0.2,0.04,0.38,0.07,0.58,0.11c0.11,0.02,0.22,0.04,0.33,0.06c5.6,0.89,9.99-0.01,12.73-0.96     c2.85-0.99,4.97-1.27,7.09-0.93c1.4,0.22,3.01,1.38,4.09,2.94c0.98,1.39,1.29,3.69,0.84,6.15c-0.06,0.32-0.12,0.63-0.21,0.95     c-0.6,2.26-4.59,5.55-5.89,6.46l0.53,0.29l0.02,0.01l2.07,1.11c0.57-0.39,5.33-3.68,6.24-7.24c0.09-0.37,0.17-0.74,0.24-1.12     c0.54-3.13,0.05-6.08-1.34-8.05C254.02,217.05,251.7,215.46,249.49,215.11L249.49,215.11L249.49,215.11z"
   fill="#0A2240"
   clip-rule="evenodd"
   fill-rule="evenodd" />
			<path
   id="path36"
   d="M225.81,212.31c-0.15,0.53-3.84,13.55-4,14.09     c0.55,0.09,6.68,1.04,7.24,1.12c0.15-0.54,3.52-13.55,3.65-14.08C232.18,213.36,226.34,212.4,225.81,212.31L225.81,212.31     L225.81,212.31z"
   fill="#FFCD00"
   clip-rule="evenodd"
   fill-rule="evenodd" />
			<path
   id="path38"
   d="M226.03,212.65l6.31,1.04l-3.52,13.51l-6.6-1.02L226.03,212.65     L226.03,212.65L226.03,212.65z M233.08,213.21l-7.49-1.23l-4.17,14.66l7.87,1.22l0.15-0.57L233.08,213.21L233.08,213.21     L233.08,213.21z"
   fill="#0A2240"
   clip-rule="evenodd"
   fill-rule="evenodd" />
			<path
   d="m 227.55,227.04 -4.04,-0.63 3.74,-13.43 3.86,0.63 -3.56,13.43 z"
   style="clip-rule:evenodd;fill:#0a2240;fill-rule:evenodd"
   id="polygon40" />
			<path
   id="path42"
   d="M235.2,211.01c-0.59,2.42-3.44,4-6.36,3.52     c-2.9-0.48-4.7-2.83-4.03-5.25c0.67-2.42,3.48-4,6.3-3.52C233.95,206.24,235.78,208.59,235.2,211.01L235.2,211.01L235.2,211.01z"
   fill="#FFCD00"
   clip-rule="evenodd"
   fill-rule="evenodd" />
			<path
   id="path44"
   d="M216.53,235.94l2.59-8.45c0,0,0.24,3.6,3.38,3.43     c0,0,0.88-2.04-1.77-4.66l9.65,1.49c0,0-4.29,1.36-4.39,3.65c0,0,1.45,0.82,5.23-2l-2.1,7.89c0,0-2.63-2.61-4.3-2.76     c0,0-1.27,0.3,2.04,5.21L217,238.3c0,0,4.65-1.79,5.26-4.55C222.26,233.75,218.43,233.64,216.53,235.94L216.53,235.94     L216.53,235.94z"
   fill="#FFCD00"
   clip-rule="evenodd"
   fill-rule="evenodd" />
			<path
   id="path46"
   d="M236.68,237.3c0,0,2.19-3.05,3.64-3.83     c1.3-0.69,2.25-0.33,2.61-0.22c0.35,0.11,1.63,0.77,1.27,2.39c-0.36,1.63-2.88,3.24-3.02,3.47c-0.15,0.23-0.19,0.41-0.09,0.51     c0.11,0.1,0.53,0.42-0.09,0.81c-0.53,0.34-0.89-0.04-1.09-0.27c-1.19-1.34,2.38-3.32,1.35-3.83c-1.02-0.51-2.1-0.42-3.59,1.41     L236.68,237.3L236.68,237.3L236.68,237.3z"
   fill="#FFCD00"
   clip-rule="evenodd"
   fill-rule="evenodd" />
			<path
   id="path48"
   d="M235.45,237.48c0,0,0.94-3.47,0.5-4.87     c-0.39-1.25-1.4-1.52-1.75-1.64c-0.35-0.12-1.83-0.35-2.91,1.07c-1.1,1.42-0.63,4.03-0.72,4.28c-0.08,0.25-0.21,0.41-0.37,0.42     c-0.16,0.02-0.75,0.02-0.63,0.66c0.1,0.54,0.69,0.47,1.03,0.41c2.02-0.32,1.08-3.79,2.27-3.59c1.19,0.2,1.91,0.87,1.47,3.05     L235.45,237.48L235.45,237.48L235.45,237.48z"
   fill="#FFCD00"
   clip-rule="evenodd"
   fill-rule="evenodd" />
			<path
   id="path50"
   d="M235.65,237.06c0,0,1.04-5.84,1.67-6.87     c0.9-1.48,3.69-2.97,3.69-2.97s0.45,3.1-0.14,4.31c-0.4,0.82-3.69,5.11-4.22,5.7C236.12,237.83,235.65,237.06,235.65,237.06     L235.65,237.06L235.65,237.06z"
   fill="#FFCD00"
   clip-rule="evenodd"
   fill-rule="evenodd" />
			<path
   id="path52"
   d="M210.57,233.62c0,0-0.44-3.45-1.38-4.56     c-0.82-0.99-1.87-0.89-2.24-0.88c-0.38,0.01-1.85,0.32-2.35,1.96c-0.5,1.65,0.94,3.82,0.96,4.07c0.02,0.26-0.04,0.45-0.19,0.51     c-0.14,0.07-0.7,0.27-0.33,0.8c0.3,0.45,0.83,0.18,1.13,0.01c1.77-0.97-0.45-3.76,0.74-3.99c1.19-0.22,2.11,0.13,2.54,2.24     L210.57,233.62L210.57,233.62L210.57,233.62z"
   fill="#FFCD00"
   clip-rule="evenodd"
   fill-rule="evenodd" />
			<path
   id="path54"
   d="M211.42,233.5c0,0,0.9-3.52,2.01-4.73     c0.98-1.08,2.03-1.08,2.41-1.1c0.38-0.03,1.86,0.14,2.14,1.75c0.29,1.62-1.46,3.95-1.51,4.21c-0.05,0.26-0.02,0.44,0.12,0.5     c0.14,0.05,0.68,0.2,0.24,0.77c-0.37,0.49-0.88,0.26-1.16,0.13c-1.69-0.81,0.94-3.84-0.25-3.96c-1.19-0.12-2.18,0.33-2.89,2.5     L211.42,233.5L211.42,233.5L211.42,233.5z"
   fill="#FFCD00"
   clip-rule="evenodd"
   fill-rule="evenodd" />
			<path
   id="path56"
   d="M211.17,233.5c0,0,2.55-5.67,2.61-6.82     c0.07-1.66-1.5-3.96-1.5-3.96s-2.18,2.69-2.37,4c-0.13,0.88,0.19,5.89,0.29,6.61C210.3,234.05,211.17,233.5,211.17,233.5     L211.17,233.5L211.17,233.5z"
   fill="#FFCD00"
   clip-rule="evenodd"
   fill-rule="evenodd" />
			<path
   id="path58"
   d="M244.93,245.92l7.49-9.26l-5.88-3.62c0,0,2.34,4.5,1.04,6.21     c-1.32,1.71-1.73-4.43-1.73-4.43l-4.67,6.3c0,0,3.19-0.78,4.82,0.17c1.63,0.94,0.02,2.62,0.02,2.62L244.93,245.92L244.93,245.92     L244.93,245.92z"
   fill="#FFCD00"
   clip-rule="evenodd"
   fill-rule="evenodd" />
			<path
   id="path60"
   d="M198.42,239.27l-1.35-10.88l7.09-1.72c0,0-4.5,3.57-4.31,5.56     c0.2,1.99,3.95-3.69,3.95-3.69l0.63,7.26c0,0-2.38-1.63-4.33-1.2c-1.96,0.43-2.07,1.88-2.07,1.88L198.42,239.27L198.42,239.27     L198.42,239.27z"
   fill="#FFCD00"
   clip-rule="evenodd"
   fill-rule="evenodd" />
			<path
   id="path62"
   d="M212.58,241.62c-0.08,0.84-1.47,1.55-3.1,1.6     c-1.64,0.04-2.89-0.61-2.8-1.45c0.09-0.84,1.49-1.56,3.11-1.6C211.41,240.12,212.66,240.77,212.58,241.62L212.58,241.62     L212.58,241.62z"
   fill="#A32035"
   clip-rule="evenodd"
   fill-rule="evenodd" />
			<path
   id="path64"
   d="M208.97,241.24c-0.01,0.21-0.32,0.4-0.7,0.43     c-0.37,0.02-0.66-0.14-0.64-0.35c0.01-0.21,0.32-0.4,0.69-0.43C208.69,240.87,208.98,241.02,208.97,241.24L208.97,241.24     L208.97,241.24z"
   fill="#FFFFFF"
   clip-rule="evenodd"
   fill-rule="evenodd" />
			<path
   id="path66"
   d="M234.97,246.16c-0.45,0.77-2.01,0.95-3.49,0.39     c-1.47-0.55-2.29-1.63-1.83-2.4c0.46-0.77,2.01-0.94,3.46-0.39C234.58,244.32,235.41,245.39,234.97,246.16L234.97,246.16     L234.97,246.16z"
   fill="#A32035"
   clip-rule="evenodd"
   fill-rule="evenodd" />
			<path
   id="path68"
   d="M231.92,244.41c-0.09,0.2-0.45,0.29-0.8,0.19     c-0.35-0.09-0.56-0.33-0.47-0.54c0.09-0.2,0.45-0.29,0.79-0.19C231.79,243.96,232,244.2,231.92,244.41L231.92,244.41     L231.92,244.41z"
   fill="#FFFFFF"
   clip-rule="evenodd"
   fill-rule="evenodd" />
			<path
   id="path70"
   d="M223.62,244.02c-0.02,0.08-0.12,0.13-0.21,0.12l-5.42-0.79     c-0.09-0.01-0.15-0.08-0.12-0.17l0.71-2.31c0.02-0.08,0.12-0.13,0.21-0.12l5.37,0.79c0.1,0.01,0.15,0.09,0.13,0.17L223.62,244.02     L223.62,244.02L223.62,244.02z"
   fill="#0A2240"
   clip-rule="evenodd"
   fill-rule="evenodd" />
			<path
   id="path72"
   d="M220.51,241.81c-0.04,0.16-0.38,0.25-0.74,0.2     c-0.35-0.05-0.61-0.22-0.56-0.38c0.05-0.16,0.37-0.25,0.74-0.2C220.3,241.48,220.55,241.65,220.51,241.81L220.51,241.81     L220.51,241.81z"
   fill="#FFFFFF"
   clip-rule="evenodd"
   fill-rule="evenodd" />
			<path
   id="path74"
   d="M203.13,241.71c-0.07,0.2-0.32,0.34-0.55,0.3     c-0.23-0.03-0.36-0.23-0.29-0.43c0.07-0.2,0.32-0.34,0.55-0.3C203.07,241.32,203.2,241.51,203.13,241.71L203.13,241.71     L203.13,241.71z"
   fill="#FFFFFF"
   clip-rule="evenodd"
   fill-rule="evenodd" />
			<path
   id="path76"
   d="M203.32,243.78c-0.07,0.2-0.32,0.34-0.55,0.3     c-0.23-0.03-0.36-0.23-0.29-0.43c0.07-0.2,0.32-0.34,0.55-0.3C203.26,243.39,203.39,243.58,203.32,243.78L203.32,243.78     L203.32,243.78z"
   fill="#FFFFFF"
   clip-rule="evenodd"
   fill-rule="evenodd" />
			<path
   id="path78"
   d="M205.88,243.58c-0.07,0.2-0.31,0.34-0.55,0.3     c-0.23-0.04-0.37-0.22-0.29-0.42c0.07-0.2,0.32-0.34,0.55-0.3C205.82,243.19,205.95,243.38,205.88,243.58L205.88,243.58     L205.88,243.58z"
   fill="#FFFFFF"
   clip-rule="evenodd"
   fill-rule="evenodd" />
			<path
   id="path80"
   d="M205.72,241.39c-0.07,0.2-0.32,0.33-0.55,0.3     c-0.23-0.03-0.36-0.23-0.29-0.43c0.07-0.2,0.32-0.34,0.55-0.3C205.66,240.99,205.79,241.18,205.72,241.39L205.72,241.39     L205.72,241.39z"
   fill="#FFFFFF"
   clip-rule="evenodd"
   fill-rule="evenodd" />
			<path
   id="path82"
   d="M204.48,242.47c-0.09,0.25-0.39,0.41-0.68,0.37     c-0.28-0.04-0.45-0.28-0.36-0.53c0.09-0.25,0.39-0.41,0.68-0.37C204.41,241.98,204.57,242.22,204.48,242.47L204.48,242.47     L204.48,242.47z"
   fill="#FFFFFF"
   clip-rule="evenodd"
   fill-rule="evenodd" />
			<path
   id="path84"
   d="M215.44,242.16c-0.08,0.25-0.37,0.41-0.66,0.37     c-0.28-0.04-0.45-0.27-0.37-0.52c0.08-0.24,0.37-0.41,0.66-0.37C215.35,241.68,215.52,241.92,215.44,242.16L215.44,242.16     L215.44,242.16z"
   fill="#FFFFFF"
   clip-rule="evenodd"
   fill-rule="evenodd" />
			<path
   id="path86"
   d="M227.33,243.66c-0.07,0.25-0.36,0.42-0.65,0.38     c-0.3-0.04-0.47-0.28-0.4-0.53c0.07-0.25,0.35-0.42,0.65-0.37C227.22,243.18,227.4,243.41,227.33,243.66L227.33,243.66     L227.33,243.66z"
   fill="#FFFFFF"
   clip-rule="evenodd"
   fill-rule="evenodd" />
			<path
   id="path88"
   d="M237.63,246.75c-0.06,0.25-0.35,0.41-0.64,0.37     c-0.3-0.04-0.48-0.27-0.42-0.52c0.06-0.25,0.35-0.41,0.65-0.37C237.5,246.26,237.69,246.5,237.63,246.75L237.63,246.75     L237.63,246.75z"
   fill="#FFFFFF"
   clip-rule="evenodd"
   fill-rule="evenodd" />
			<path
   id="path90"
   d="M214.23,241.2c-0.07,0.2-0.31,0.34-0.54,0.3     c-0.23-0.03-0.37-0.22-0.3-0.43c0.06-0.2,0.3-0.34,0.54-0.3C214.16,240.81,214.3,241,214.23,241.2L214.23,241.2L214.23,241.2z"
   fill="#FFFFFF"
   clip-rule="evenodd"
   fill-rule="evenodd" />
			<path
   id="path92"
   d="M216.8,241.24c-0.06,0.2-0.31,0.34-0.54,0.3     c-0.23-0.03-0.37-0.22-0.3-0.42c0.06-0.21,0.3-0.34,0.53-0.31C216.72,240.85,216.86,241.04,216.8,241.24L216.8,241.24     L216.8,241.24z"
   fill="#FFFFFF"
   clip-rule="evenodd"
   fill-rule="evenodd" />
			<path
   id="path94"
   d="M216.65,243.48c-0.06,0.2-0.31,0.34-0.54,0.3     c-0.23-0.04-0.37-0.23-0.31-0.43c0.06-0.2,0.3-0.34,0.54-0.3C216.57,243.09,216.71,243.28,216.65,243.48L216.65,243.48     L216.65,243.48z"
   fill="#FFFFFF"
   clip-rule="evenodd"
   fill-rule="evenodd" />
			<path
   id="path96"
   d="M214.13,243.31c-0.06,0.2-0.31,0.34-0.54,0.3     c-0.23-0.03-0.37-0.23-0.3-0.43c0.07-0.2,0.31-0.34,0.54-0.3C214.05,242.92,214.19,243.11,214.13,243.31L214.13,243.31     L214.13,243.31z"
   fill="#FFFFFF"
   clip-rule="evenodd"
   fill-rule="evenodd" />
			<path
   id="path98"
   d="M226.37,242.56c-0.06,0.2-0.3,0.34-0.53,0.3     c-0.24-0.03-0.38-0.22-0.32-0.43c0.06-0.2,0.29-0.34,0.53-0.3C226.28,242.17,226.43,242.36,226.37,242.56L226.37,242.56     L226.37,242.56z"
   fill="#FFFFFF"
   clip-rule="evenodd"
   fill-rule="evenodd" />
			<path
   id="path100"
   d="M228.83,243.02c-0.06,0.2-0.29,0.34-0.52,0.3     c-0.23-0.03-0.38-0.23-0.32-0.43c0.05-0.2,0.29-0.33,0.52-0.3C228.74,242.64,228.88,242.83,228.83,243.02L228.83,243.02     L228.83,243.02z"
   fill="#FFFFFF"
   clip-rule="evenodd"
   fill-rule="evenodd" />
			<path
   id="path102"
   d="M225.78,244.64c-0.06,0.2-0.3,0.34-0.53,0.3     c-0.24-0.03-0.38-0.23-0.33-0.43c0.06-0.2,0.3-0.33,0.53-0.3C225.69,244.25,225.84,244.44,225.78,244.64L225.78,244.64     L225.78,244.64z"
   fill="#FFFFFF"
   clip-rule="evenodd"
   fill-rule="evenodd" />
			<path
   id="path104"
   d="M228.18,245.22c-0.06,0.2-0.29,0.34-0.53,0.3     c-0.24-0.03-0.38-0.22-0.33-0.43c0.06-0.2,0.29-0.34,0.53-0.3C228.09,244.83,228.23,245.02,228.18,245.22L228.18,245.22     L228.18,245.22z"
   fill="#FFFFFF"
   clip-rule="evenodd"
   fill-rule="evenodd" />
			<path
   id="path106"
   d="M236.98,245.32c-0.05,0.2-0.28,0.34-0.52,0.3     c-0.24-0.03-0.39-0.23-0.34-0.43c0.05-0.2,0.29-0.34,0.52-0.3C236.88,244.93,237.03,245.12,236.98,245.32L236.98,245.32     L236.98,245.32z"
   fill="#FFFFFF"
   clip-rule="evenodd"
   fill-rule="evenodd" />
			<path
   id="path108"
   d="M239.41,246.39c-0.05,0.2-0.28,0.34-0.52,0.3     c-0.24-0.03-0.39-0.23-0.34-0.43c0.05-0.2,0.28-0.34,0.52-0.3C239.3,246,239.46,246.19,239.41,246.39L239.41,246.39     L239.41,246.39z"
   fill="#FFFFFF"
   clip-rule="evenodd"
   fill-rule="evenodd" />
			<path
   id="path110"
   d="M235.79,247.48c-0.05,0.2-0.28,0.34-0.52,0.3     c-0.24-0.04-0.39-0.22-0.34-0.43c0.05-0.2,0.29-0.34,0.53-0.3C235.69,247.09,235.84,247.27,235.79,247.48L235.79,247.48     L235.79,247.48z"
   fill="#FFFFFF"
   clip-rule="evenodd"
   fill-rule="evenodd" />
			<path
   id="path112"
   d="M238.07,248.62c-0.05,0.2-0.29,0.33-0.53,0.3     c-0.24-0.03-0.39-0.22-0.34-0.42c0.05-0.2,0.29-0.34,0.52-0.31C237.97,248.23,238.12,248.42,238.07,248.62L238.07,248.62     L238.07,248.62z"
   fill="#FFFFFF"
   clip-rule="evenodd"
   fill-rule="evenodd" />
			<path
   id="path114"
   d="M240.59,247.28l2.52,1.47c0,0,0.93,0.42,0.36,1.56     c-0.16,0.31-0.54,0.56-1.05,0.64c-0.6,0.09-1.14-0.23-1.23-0.25c-0.09-0.01-2.2-1.36-2.2-1.36L240.59,247.28L240.59,247.28     L240.59,247.28z"
   fill="#0A2240"
   clip-rule="evenodd"
   fill-rule="evenodd" />
			<path
   id="path116"
   d="M200.98,241.22l-3.06,0.7c0,0-1.06,0.15-1.22,1.37     c-0.04,0.34,0.11,0.78,0.51,1c0.47,0.25,1.09,0.22,1.19,0.21c0.23-0.03,2.77-0.79,2.77-0.79L200.98,241.22L200.98,241.22     L200.98,241.22z"
   fill="#0A2240"
   clip-rule="evenodd"
   fill-rule="evenodd" />
			<path
   id="path118"
   d="M198.64,242.83c-0.11,0.3-0.5,0.5-0.87,0.45     c-0.37-0.06-0.58-0.34-0.47-0.65c0.11-0.3,0.5-0.5,0.88-0.44C198.54,242.24,198.75,242.53,198.64,242.83L198.64,242.83     L198.64,242.83z"
   fill="#FFFFFF"
   clip-rule="evenodd"
   fill-rule="evenodd" />
			<path
   id="path120"
   d="M198.1,242.6c-0.08,0.2-0.27,0.35-0.43,0.33     c-0.16-0.02-0.22-0.21-0.15-0.41c0.08-0.21,0.27-0.35,0.42-0.33C198.11,242.21,198.18,242.39,198.1,242.6L198.1,242.6     L198.1,242.6z"
   fill="#FFFFFF"
   clip-rule="evenodd"
   fill-rule="evenodd" />
			<path
   id="path122"
   d="M242.94,249.5c-0.06,0.27-0.43,0.44-0.81,0.39     c-0.39-0.05-0.65-0.31-0.59-0.58c0.06-0.26,0.43-0.44,0.81-0.38C242.73,248.98,243,249.24,242.94,249.5L242.94,249.5     L242.94,249.5z"
   fill="#FFFFFF"
   clip-rule="evenodd"
   fill-rule="evenodd" />
			<path
   id="path124"
   d="M242.34,249.33c-0.05,0.2-0.22,0.35-0.39,0.33     c-0.17-0.02-0.26-0.21-0.21-0.41c0.05-0.21,0.22-0.35,0.39-0.33C242.3,248.94,242.39,249.13,242.34,249.33L242.34,249.33     L242.34,249.33z"
   fill="#FFFFFF"
   clip-rule="evenodd"
   fill-rule="evenodd" />
			<path
   id="path126"
   d="M198.36,239.87l-0.53-4.29c0,0,2.21,3.3,7.37,2.91     c5.15-0.39,5.32-2.94,5.32-2.94s0.41,3.06,6.78,2.87c0,0,2.41,0.17,5.28,0.7c2.87,0.54,4.33,0.82,4.33,0.82s5.73,2.13,8.5-1.33     c-0.02,0.07-0.54,3.48,3.37,4.93c3.95,1.45,8.96-1.31,8.96-1.31l-2.99,3.96l-17.5-5.16l-10.12-1.78l-11.76-0.14L198.36,239.87     L198.36,239.87L198.36,239.87z"
   fill="#FFCD00"
   clip-rule="evenodd"
   fill-rule="evenodd" />
			<path
   id="path128"
   d="M198.37,239.31c0,0,11.55-2.11,23.83-0.14     c12.43,1.97,22.58,6.74,22.58,6.74s0.44,0.47,0.46,0.68c0.02,0.22,0.1,0.53-0.24,0.67c-0.34,0.14-0.7,0.19-0.95-0.06     c-0.25-0.25-12.59-5.39-22.43-6.77c-3.62-0.52-15.69-1.61-23.26,0.43c-0.22,0.06-0.34,0.11-0.6,0.1c-0.26,0-0.38-0.25-0.38-0.25     s-0.13-0.81-0.07-0.95c0.05-0.14,0.38-0.28,0.56-0.33C198.03,239.37,198.37,239.31,198.37,239.31L198.37,239.31L198.37,239.31z"
   fill="#FFFFFF"
   clip-rule="evenodd"
   fill-rule="evenodd" />
			<path
   id="path130"
   d="M204.34,207.37c-0.32,0.92,0.18,1.81,1.12,1.97     c0.46,0.08,0.95-0.02,1.38-0.28c0.43-0.26,0.75-0.65,0.9-1.1c0.31-0.93-0.2-1.81-1.13-1.97     C205.68,205.83,204.66,206.45,204.34,207.37L204.34,207.37L204.34,207.37z"
   fill="#FFFFFF"
   clip-rule="evenodd"
   fill-rule="evenodd" />
			<path
   id="path132"
   d="M205.55,209.07c-0.79-0.13-1.22-0.87-0.95-1.65     c0.27-0.78,1.13-1.3,1.92-1.16c0.78,0.14,1.21,0.88,0.95,1.65C207.21,208.69,206.35,209.21,205.55,209.07L205.55,209.07     L205.55,209.07z M206.71,205.72c-1.08-0.19-2.27,0.53-2.64,1.61c-0.38,1.07,0.21,2.09,1.31,2.28c1.1,0.19,2.29-0.53,2.65-1.6     C208.38,206.93,207.79,205.91,206.71,205.72L206.71,205.72L206.71,205.72z"
   fill="#0A2240"
   clip-rule="evenodd"
   fill-rule="evenodd" />
			<path
   id="path134"
   d="M199.12,210.5c-0.34,0.92,0.15,1.81,1.11,1.97     c0.46,0.08,0.96-0.02,1.4-0.29c0.44-0.26,0.77-0.65,0.93-1.1c0.33-0.92-0.17-1.81-1.11-1.97     C200.5,208.95,199.46,209.57,199.12,210.5L199.12,210.5L199.12,210.5z"
   fill="#FFFFFF"
   clip-rule="evenodd"
   fill-rule="evenodd" />
			<path
   id="path136"
   d="M200.33,212.2c-0.8-0.14-1.22-0.88-0.93-1.65     c0.29-0.78,1.16-1.3,1.96-1.16c0.79,0.13,1.21,0.88,0.93,1.65C202,211.81,201.13,212.33,200.33,212.2L200.33,212.2L200.33,212.2z      M201.54,208.84c-1.1-0.19-2.3,0.53-2.7,1.61c-0.4,1.08,0.18,2.1,1.29,2.28c1.11,0.19,2.32-0.53,2.7-1.61     C203.22,210.05,202.64,209.03,201.54,208.84L201.54,208.84L201.54,208.84z"
   fill="#0A2240"
   clip-rule="evenodd"
   fill-rule="evenodd" />
			<path
   id="path138"
   d="M195.46,215.62c-0.35,0.92,0.15,1.81,1.12,1.97     c0.97,0.16,2.04-0.47,2.38-1.39c0.34-0.92-0.17-1.81-1.12-1.97C196.88,214.07,195.81,214.7,195.46,215.62L195.46,215.62     L195.46,215.62z"
   fill="#FFFFFF"
   clip-rule="evenodd"
   fill-rule="evenodd" />
			<path
   id="path140"
   d="M196.68,217.32c-0.82-0.13-1.24-0.88-0.94-1.65     c0.29-0.78,1.19-1.3,2-1.16c0.8,0.13,1.23,0.88,0.94,1.65C198.4,216.93,197.49,217.46,196.68,217.32L196.68,217.32L196.68,217.32     z M197.94,213.96c-1.12-0.19-2.35,0.54-2.76,1.61c-0.41,1.07,0.17,2.1,1.3,2.28c1.13,0.19,2.37-0.54,2.76-1.61     C199.64,215.17,199.05,214.15,197.94,213.96L197.94,213.96L197.94,213.96z"
   fill="#0A2240"
   clip-rule="evenodd"
   fill-rule="evenodd" />
			<path
   id="path142"
   d="M194.06,221.3c-0.36,0.93,0.16,1.81,1.15,1.97     c0.99,0.16,2.08-0.46,2.43-1.39c0.35-0.93-0.17-1.81-1.15-1.97C195.51,219.75,194.42,220.37,194.06,221.3L194.06,221.3     L194.06,221.3z"
   fill="#FFFFFF"
   clip-rule="evenodd"
   fill-rule="evenodd" />
			<path
   id="path144"
   d="M195.31,223c-0.83-0.13-1.26-0.87-0.97-1.65     c0.3-0.78,1.22-1.31,2.04-1.17c0.82,0.13,1.25,0.88,0.96,1.66C197.06,222.61,196.14,223.13,195.31,223L195.31,223L195.31,223z      M196.58,219.65c-1.14-0.19-2.39,0.53-2.81,1.61c-0.42,1.07,0.18,2.1,1.33,2.28c1.15,0.18,2.41-0.54,2.81-1.61     C198.32,220.85,197.72,219.83,196.58,219.65L196.58,219.65L196.58,219.65z"
   fill="#0A2240"
   clip-rule="evenodd"
   fill-rule="evenodd" />
			<path
   id="path146"
   d="M195.92,225.64c-0.46,0.26-0.81,0.65-0.98,1.1     c-0.35,0.92,0.18,1.81,1.19,1.97c1.01,0.16,2.12-0.47,2.46-1.39c0.17-0.45,0.13-0.9-0.09-1.27c-0.23-0.37-0.62-0.62-1.1-0.7     C196.9,225.28,196.39,225.38,195.92,225.64L195.92,225.64L195.92,225.64z"
   fill="#FFFFFF"
   clip-rule="evenodd"
   fill-rule="evenodd" />
			<path
   id="path148"
   d="M196.23,228.44c-0.85-0.13-1.3-0.87-1-1.65     c0.14-0.38,0.44-0.71,0.83-0.93c0.39-0.22,0.83-0.31,1.23-0.24c0.41,0.07,0.74,0.27,0.92,0.58c0.19,0.31,0.22,0.69,0.08,1.07     C198,228.05,197.07,228.58,196.23,228.44L196.23,228.44L196.23,228.44z M197.49,225.09c-1.16-0.18-2.43,0.54-2.84,1.61     c-0.41,1.07,0.2,2.09,1.38,2.28c1.17,0.18,2.45-0.54,2.85-1.61C199.27,226.29,198.65,225.27,197.49,225.09L197.49,225.09     L197.49,225.09z"
   fill="#0A2240"
   clip-rule="evenodd"
   fill-rule="evenodd" />
			<path
   id="path150"
   d="M210.34,207.04c-0.3,0.92,0.21,1.81,1.16,1.97     c0.95,0.16,1.96-0.46,2.25-1.38c0.29-0.92-0.24-1.8-1.17-1.97C211.64,205.49,210.64,206.12,210.34,207.04L210.34,207.04     L210.34,207.04z"
   fill="#FFFFFF"
   clip-rule="evenodd"
   fill-rule="evenodd" />
			<path
   id="path152"
   d="M211.58,208.74c-0.8-0.14-1.23-0.88-0.98-1.65     c0.25-0.78,1.1-1.3,1.89-1.16c0.79,0.14,1.23,0.87,0.98,1.65C213.23,208.35,212.38,208.87,211.58,208.74L211.58,208.74     L211.58,208.74z M212.66,205.39c-1.08-0.19-2.25,0.53-2.6,1.61c-0.35,1.07,0.25,2.1,1.35,2.28c1.1,0.19,2.27-0.54,2.61-1.61     C214.36,206.6,213.75,205.57,212.66,205.39L212.66,205.39L212.66,205.39z"
   fill="#0A2240"
   clip-rule="evenodd"
   fill-rule="evenodd" />
			<path
   id="path154"
   d="M215.59,207.76c-0.42,0.26-0.73,0.65-0.87,1.1     c-0.29,0.92,0.25,1.8,1.21,1.96c0.95,0.16,1.96-0.46,2.24-1.38c0.14-0.45,0.08-0.9-0.15-1.27c-0.23-0.37-0.61-0.62-1.06-0.69     C216.5,207.4,216.01,207.5,215.59,207.76L215.59,207.76L215.59,207.76z"
   fill="#FFFFFF"
   clip-rule="evenodd"
   fill-rule="evenodd" />
			<path
   id="path156"
   d="M216.01,210.56c-0.8-0.14-1.26-0.88-1.02-1.65     c0.24-0.78,1.08-1.3,1.88-1.16c0.79,0.13,1.25,0.88,1.02,1.65C217.66,210.17,216.81,210.69,216.01,210.56L216.01,210.56     L216.01,210.56z M217.04,207.21c-1.1-0.19-2.26,0.53-2.59,1.6c-0.34,1.07,0.29,2.09,1.4,2.28c1.11,0.19,2.28-0.53,2.6-1.6     C218.77,208.42,218.13,207.4,217.04,207.21L217.04,207.21L217.04,207.21z"
   fill="#0A2240"
   clip-rule="evenodd"
   fill-rule="evenodd" />
			<path
   id="path158"
   d="M219.05,210.31c-0.42,0.26-0.73,0.65-0.86,1.1     c-0.28,0.92,0.28,1.8,1.24,1.96c0.97,0.16,1.98-0.47,2.25-1.38c0.27-0.92-0.3-1.81-1.25-1.97     C219.96,209.95,219.47,210.05,219.05,210.31L219.05,210.31L219.05,210.31z"
   fill="#FFFFFF"
   clip-rule="evenodd"
   fill-rule="evenodd" />
			<path
   id="path160"
   d="M219.51,213.11c-0.81-0.13-1.28-0.88-1.05-1.65     c0.23-0.77,1.08-1.3,1.88-1.16c0.8,0.13,1.28,0.88,1.05,1.65C221.17,212.72,220.32,213.24,219.51,213.11L219.51,213.11     L219.51,213.11z M220.5,209.76c-1.11-0.18-2.27,0.53-2.59,1.6c-0.32,1.07,0.32,2.09,1.45,2.28c1.13,0.19,2.29-0.53,2.6-1.61     C222.26,210.97,221.61,209.95,220.5,209.76L220.5,209.76L220.5,209.76z"
   fill="#0A2240"
   clip-rule="evenodd"
   fill-rule="evenodd" />
			<path
   id="path162"
   d="M222.92,212.7c-0.42,0.26-0.73,0.65-0.85,1.1     c-0.13,0.45-0.07,0.89,0.18,1.27c0.24,0.37,0.64,0.62,1.11,0.69c0.98,0.16,1.98-0.46,2.24-1.38c0.12-0.45,0.05-0.9-0.19-1.27     c-0.24-0.37-0.64-0.62-1.1-0.69C223.83,212.34,223.34,212.44,222.92,212.7L222.92,212.7L222.92,212.7z"
   fill="#FFFFFF"
   clip-rule="evenodd"
   fill-rule="evenodd" />
			<path
   id="path164"
   d="M223.43,215.49c-0.82-0.13-1.31-0.88-1.08-1.65     c0.22-0.78,1.06-1.29,1.88-1.16c0.81,0.13,1.3,0.87,1.09,1.65C225.1,215.1,224.25,215.63,223.43,215.49L223.43,215.49     L223.43,215.49z M224.37,212.15c-1.12-0.19-2.28,0.53-2.59,1.61c-0.31,1.07,0.36,2.09,1.5,2.28c1.14,0.19,2.3-0.53,2.6-1.6     C226.17,213.35,225.5,212.33,224.37,212.15L224.37,212.15L224.37,212.15z"
   fill="#0A2240"
   clip-rule="evenodd"
   fill-rule="evenodd" />
			<path
   id="path166"
   d="M232.79,214.32c-0.41,0.26-0.7,0.65-0.82,1.1     c-0.23,0.92,0.38,1.8,1.37,1.96c0.99,0.16,1.98-0.46,2.2-1.38c0.11-0.45,0.02-0.9-0.24-1.26c-0.26-0.37-0.66-0.62-1.13-0.69     C233.7,213.96,233.21,214.06,232.79,214.32L232.79,214.32L232.79,214.32z"
   fill="#FFFFFF"
   clip-rule="evenodd"
   fill-rule="evenodd" />
			<path
   id="path168"
   d="M233.41,217.11c-0.83-0.13-1.34-0.87-1.15-1.65     c0.2-0.77,1.02-1.29,1.84-1.16c0.82,0.13,1.34,0.87,1.15,1.64C235.07,216.72,234.24,217.25,233.41,217.11L233.41,217.11     L233.41,217.11z M234.24,213.77c-1.14-0.19-2.27,0.53-2.54,1.6c-0.27,1.07,0.43,2.09,1.58,2.27c1.15,0.18,2.29-0.53,2.55-1.6     C236.09,214.97,235.37,213.95,234.24,213.77L234.24,213.77L234.24,213.77z"
   fill="#0A2240"
   clip-rule="evenodd"
   fill-rule="evenodd" />
			<path
   id="path170"
   d="M236.49,214.65c-0.22,0.92,0.4,1.8,1.39,1.96     c0.98,0.16,1.96-0.46,2.17-1.38c0.21-0.92-0.42-1.8-1.4-1.95C237.68,213.11,236.71,213.73,236.49,214.65L236.49,214.65     L236.49,214.65z"
   fill="#FFFFFF"
   clip-rule="evenodd"
   fill-rule="evenodd" />
			<path
   id="path172"
   d="M237.95,216.34c-0.83-0.13-1.36-0.87-1.17-1.65     c0.18-0.77,1-1.29,1.82-1.16c0.82,0.13,1.35,0.87,1.17,1.65C239.59,215.95,238.78,216.48,237.95,216.34L237.95,216.34     L237.95,216.34z M238.72,213.01c-1.14-0.19-2.26,0.53-2.51,1.6c-0.26,1.07,0.46,2.09,1.62,2.28c1.14,0.18,2.28-0.53,2.52-1.6     C240.58,214.2,239.85,213.19,238.72,213.01L238.72,213.01L238.72,213.01z"
   fill="#0A2240"
   clip-rule="evenodd"
   fill-rule="evenodd" />
			<path
   id="path174"
   d="M242.04,212.28c-0.4,0.26-0.67,0.65-0.77,1.09     c-0.2,0.92,0.43,1.8,1.41,1.96c0.99,0.16,1.95-0.46,2.15-1.38c0.09-0.44-0.01-0.9-0.28-1.26c-0.27-0.37-0.68-0.62-1.16-0.69     C242.92,211.92,242.45,212.02,242.04,212.28L242.04,212.28L242.04,212.28z"
   fill="#FFFFFF"
   clip-rule="evenodd"
   fill-rule="evenodd" />
			<path
   id="path176"
   d="M242.74,215.07c-0.82-0.13-1.36-0.87-1.19-1.64     c0.17-0.77,0.97-1.29,1.79-1.16c0.82,0.13,1.36,0.87,1.2,1.64C244.38,214.68,243.57,215.2,242.74,215.07L242.74,215.07     L242.74,215.07z M243.45,211.73c-1.13-0.18-2.24,0.53-2.47,1.6c-0.24,1.07,0.5,2.09,1.64,2.27c1.15,0.19,2.26-0.53,2.49-1.6     C245.33,212.94,244.59,211.92,243.45,211.73L243.45,211.73L243.45,211.73z"
   fill="#0A2240"
   clip-rule="evenodd"
   fill-rule="evenodd" />
			<path
   id="path178"
   d="M246.6,213.2c-0.19,0.92,0.47,1.79,1.45,1.95     c0.99,0.16,1.94-0.46,2.11-1.38c0.17-0.92-0.48-1.8-1.46-1.96C247.73,211.66,246.78,212.28,246.6,213.2L246.6,213.2L246.6,213.2z     "
   fill="#FFFFFF"
   clip-rule="evenodd"
   fill-rule="evenodd" />
			<path
   id="path180"
   d="M248.11,214.88c-0.83-0.13-1.38-0.87-1.22-1.64     c0.15-0.77,0.95-1.29,1.76-1.16c0.82,0.13,1.38,0.87,1.23,1.65C249.73,214.5,248.94,215.02,248.11,214.88L248.11,214.88     L248.11,214.88z M248.75,211.55c-1.13-0.18-2.22,0.53-2.44,1.6c-0.22,1.07,0.54,2.09,1.68,2.27c1.15,0.19,2.25-0.53,2.45-1.6     C250.65,212.75,249.89,211.74,248.75,211.55L248.75,211.55L248.75,211.55z"
   fill="#0A2240"
   clip-rule="evenodd"
   fill-rule="evenodd" />
			<path
   id="path182"
   d="M252.87,214.04c-0.4,0.26-0.66,0.65-0.74,1.09     c-0.17,0.92,0.51,1.8,1.51,1.96c1,0.16,1.94-0.46,2.1-1.38c0.08-0.44-0.04-0.89-0.33-1.26c-0.29-0.37-0.71-0.61-1.18-0.69     C253.74,213.68,253.26,213.78,252.87,214.04L252.87,214.04L252.87,214.04z"
   fill="#FFFFFF"
   clip-rule="evenodd"
   fill-rule="evenodd" />
			<path
   id="path184"
   d="M253.68,216.82c-0.84-0.13-1.4-0.87-1.27-1.64     c0.14-0.77,0.93-1.29,1.76-1.16c0.83,0.13,1.4,0.87,1.27,1.64C255.31,216.43,254.52,216.95,253.68,216.82L253.68,216.82     L253.68,216.82z M254.27,213.49c-1.15-0.19-2.23,0.53-2.43,1.59c-0.2,1.07,0.58,2.08,1.74,2.27c1.16,0.18,2.25-0.53,2.43-1.6     C256.2,214.69,255.41,213.67,254.27,213.49L254.27,213.49L254.27,213.49z"
   fill="#0A2240"
   clip-rule="evenodd"
   fill-rule="evenodd" />
			<path
   id="path186"
   d="M255.88,219.18c-0.16,0.92,0.53,1.79,1.55,1.95     c1.02,0.16,1.97-0.46,2.11-1.38c0.15-0.92-0.56-1.79-1.56-1.95C256.98,217.64,256.04,218.26,255.88,219.18L255.88,219.18     L255.88,219.18z"
   fill="#FFFFFF"
   clip-rule="evenodd"
   fill-rule="evenodd" />
			<path
   id="path188"
   d="M257.47,220.87c-0.85-0.13-1.43-0.87-1.3-1.64     c0.13-0.77,0.92-1.29,1.76-1.16c0.85,0.13,1.44,0.87,1.31,1.64C259.13,220.48,258.33,221,257.47,220.87L257.47,220.87     L257.47,220.87z M258.02,217.53c-1.16-0.18-2.25,0.53-2.44,1.6c-0.19,1.07,0.62,2.08,1.8,2.26c1.18,0.18,2.28-0.53,2.45-1.6     C260,218.74,259.19,217.72,258.02,217.53L258.02,217.53L258.02,217.53z"
   fill="#0A2240"
   clip-rule="evenodd"
   fill-rule="evenodd" />
			<path
   id="path190"
   d="M256.89,224.92c-0.16,0.92,0.55,1.79,1.58,1.95     c1.04,0.16,2.01-0.46,2.15-1.38c0.15-0.92-0.57-1.8-1.6-1.95C258.01,223.38,257.05,224,256.89,224.92L256.89,224.92     L256.89,224.92z"
   fill="#FFFFFF"
   clip-rule="evenodd"
   fill-rule="evenodd" />
			<path
   id="path192"
   d="M258.52,226.6c-0.87-0.13-1.46-0.86-1.33-1.63     c0.13-0.77,0.93-1.29,1.8-1.16c0.86,0.13,1.46,0.87,1.34,1.64C260.2,226.21,259.39,226.73,258.52,226.6L258.52,226.6     L258.52,226.6z M259.07,223.27c-1.18-0.18-2.29,0.53-2.48,1.6c-0.19,1.06,0.64,2.08,1.84,2.26c1.21,0.18,2.32-0.53,2.49-1.6     C261.09,224.47,260.27,223.46,259.07,223.27L259.07,223.27L259.07,223.27z"
   fill="#0A2240"
   clip-rule="evenodd"
   fill-rule="evenodd" />
			<path
   id="path194"
   d="M255.35,230.49c-0.17,0.92,0.55,1.79,1.61,1.95     c1.05,0.16,2.04-0.46,2.2-1.38c0.15-0.92-0.57-1.8-1.61-1.95C256.5,228.95,255.52,229.57,255.35,230.49L255.35,230.49     L255.35,230.49z"
   fill="#FFFFFF"
   clip-rule="evenodd"
   fill-rule="evenodd" />
			<path
   id="path196"
   d="M257.15,232.19c-0.88-0.13-1.49-0.86-1.35-1.64     c0.14-0.77,0.96-1.29,1.84-1.16c0.88,0.13,1.49,0.87,1.36,1.64C258.87,231.81,258.04,232.32,257.15,232.19L257.15,232.19     L257.15,232.19z M257.73,228.86c-1.21-0.18-2.35,0.54-2.54,1.61c-0.19,1.06,0.64,2.08,1.87,2.26c1.23,0.18,2.37-0.54,2.55-1.6     C259.78,230.05,258.95,229.04,257.73,228.86L257.73,228.86L257.73,228.86z"
   fill="#0A2240"
   clip-rule="evenodd"
   fill-rule="evenodd" />
			<path
   id="path198"
   d="M251.52,234.79c-0.18,0.92,0.53,1.8,1.6,1.95     c1.07,0.16,2.08-0.47,2.25-1.38c0.17-0.92-0.56-1.79-1.61-1.95C252.7,233.26,251.7,233.87,251.52,234.79L251.52,234.79     L251.52,234.79z"
   fill="#FFFFFF"
   clip-rule="evenodd"
   fill-rule="evenodd" />
			<path
   id="path200"
   d="M253.36,236.5c-0.9-0.13-1.5-0.86-1.35-1.64     c0.15-0.77,0.99-1.29,1.88-1.16c0.89,0.13,1.5,0.87,1.35,1.64C255.11,236.11,254.26,236.64,253.36,236.5L253.36,236.5     L253.36,236.5z M254,233.17c-1.23-0.18-2.39,0.54-2.6,1.6c-0.21,1.07,0.62,2.08,1.86,2.26c1.24,0.18,2.41-0.54,2.61-1.6     C256.06,234.37,255.22,233.35,254,233.17L254,233.17L254,233.17z"
   fill="#0A2240"
   clip-rule="evenodd"
   fill-rule="evenodd" />
			<path
   id="path202"
   d="M221.95,232.57c-0.25,0.87,0.33,1.69,1.31,1.84     c0.98,0.15,1.98-0.44,2.22-1.3c0.24-0.86-0.35-1.69-1.32-1.83C223.2,231.13,222.2,231.71,221.95,232.57L221.95,232.57     L221.95,232.57z"
   fill="#FFFFFF"
   clip-rule="evenodd"
   fill-rule="evenodd" />
			<path
   id="path204"
   d="M223.33,234.16c-0.82-0.12-1.32-0.82-1.1-1.54     c0.21-0.72,1.05-1.21,1.86-1.09c0.4,0.06,0.73,0.25,0.94,0.54c0.21,0.29,0.28,0.65,0.18,1C225,233.8,224.15,234.28,223.33,234.16     L223.33,234.16L223.33,234.16z M224.24,231.02c-1.13-0.17-2.28,0.51-2.57,1.51c-0.3,1.01,0.38,1.96,1.52,2.13     c1.14,0.17,2.29-0.5,2.58-1.51C226.04,232.15,225.36,231.2,224.24,231.02L224.24,231.02L224.24,231.02z"
   fill="#0A2240"
   clip-rule="evenodd"
   fill-rule="evenodd" />
			<path
   id="path206"
   d="M227.6,213.87c-0.19,0.72,0.27,1.41,1.03,1.53     c0.77,0.13,1.54-0.36,1.73-1.08c0.19-0.72-0.28-1.41-1.04-1.53C228.57,212.67,227.79,213.15,227.6,213.87L227.6,213.87     L227.6,213.87z"
   fill="#FFFFFF"
   clip-rule="evenodd"
   fill-rule="evenodd" />
			<path
   id="path208"
   d="M228.69,215.2c-0.64-0.11-1.03-0.68-0.87-1.29     c0.16-0.6,0.81-1.01,1.45-0.91c0.64,0.1,1.03,0.68,0.87,1.29C229.98,214.9,229.33,215.3,228.69,215.2L228.69,215.2L228.69,215.2z      M229.38,212.59c-0.88-0.14-1.78,0.42-2,1.25c-0.23,0.84,0.31,1.64,1.2,1.78c0.89,0.14,1.79-0.42,2.01-1.25     C230.8,213.53,230.26,212.73,229.38,212.59L229.38,212.59L229.38,212.59z"
   fill="#0A2240"
   clip-rule="evenodd"
   fill-rule="evenodd" />
			<path
   id="path210"
   d="M226.77,216.57c-0.21,0.76,0.28,1.48,1.09,1.61     c0.82,0.13,1.64-0.38,1.84-1.13c0.1-0.37,0.03-0.74-0.18-1.04c-0.2-0.31-0.53-0.51-0.92-0.57     C227.79,215.3,226.97,215.81,226.77,216.57L226.77,216.57L226.77,216.57z"
   fill="#FFFFFF"
   clip-rule="evenodd"
   fill-rule="evenodd" />
			<path
   id="path212"
   d="M227.92,217.96c-0.68-0.11-1.09-0.71-0.92-1.35     c0.17-0.64,0.86-1.07,1.54-0.96c0.67,0.11,1.09,0.72,0.92,1.35C229.29,217.64,228.6,218.07,227.92,217.96L227.92,217.96     L227.92,217.96z M228.65,215.22c-0.93-0.15-1.88,0.44-2.13,1.32c-0.24,0.88,0.33,1.72,1.27,1.87c0.95,0.15,1.9-0.44,2.13-1.32     C230.16,216.2,229.58,215.37,228.65,215.22L228.65,215.22L228.65,215.22z"
   fill="#0A2240"
   clip-rule="evenodd"
   fill-rule="evenodd" />
			<path
   id="path214"
   d="M226.03,219.32c-0.21,0.76,0.28,1.48,1.1,1.61     c0.82,0.13,1.66-0.38,1.86-1.14c0.1-0.37,0.03-0.74-0.18-1.04c-0.2-0.3-0.54-0.5-0.93-0.57     C227.06,218.05,226.24,218.56,226.03,219.32L226.03,219.32L226.03,219.32z"
   fill="#FFFFFF"
   clip-rule="evenodd"
   fill-rule="evenodd" />
			<path
   id="path216"
   d="M227.19,220.71c-0.69-0.11-1.1-0.71-0.93-1.35     c0.17-0.64,0.87-1.06,1.55-0.95c0.68,0.11,1.1,0.72,0.94,1.35C228.58,220.39,227.88,220.82,227.19,220.71L227.19,220.71     L227.19,220.71z M227.93,217.96c-0.94-0.15-1.9,0.44-2.15,1.32c-0.24,0.88,0.33,1.71,1.28,1.86c0.96,0.15,1.92-0.44,2.15-1.32     C229.45,218.95,228.88,218.11,227.93,217.96L227.93,217.96L227.93,217.96z"
   fill="#0A2240"
   clip-rule="evenodd"
   fill-rule="evenodd" />
			<path
   id="path218"
   d="M224.17,225.09c-0.24,0.85,0.32,1.66,1.26,1.81     c0.94,0.15,1.9-0.43,2.13-1.28c0.23-0.85-0.34-1.66-1.27-1.81C225.36,223.67,224.41,224.24,224.17,225.09L224.17,225.09     L224.17,225.09z"
   fill="#FFFFFF"
   clip-rule="evenodd"
   fill-rule="evenodd" />
			<path
   id="path220"
   d="M225.5,226.65c-0.79-0.12-1.26-0.81-1.06-1.52     c0.2-0.71,1-1.19,1.78-1.07c0.78,0.12,1.26,0.8,1.07,1.52C227.1,226.29,226.29,226.78,225.5,226.65L225.5,226.65L225.5,226.65z      M226.36,223.57c-1.08-0.17-2.18,0.49-2.46,1.48c-0.28,0.99,0.37,1.93,1.47,2.09c1.09,0.17,2.2-0.49,2.46-1.48     C228.1,224.68,227.44,223.74,226.36,223.57L226.36,223.57L226.36,223.57z"
   fill="#0A2240"
   clip-rule="evenodd"
   fill-rule="evenodd" />
			<path
   id="path222"
   d="M225.91,220.93c-0.37,0.23-0.64,0.56-0.74,0.95     c-0.22,0.79,0.3,1.55,1.17,1.69c0.87,0.14,1.75-0.4,1.96-1.19c0.1-0.39,0.04-0.77-0.19-1.09c-0.22-0.31-0.57-0.52-0.98-0.59     C226.71,220.63,226.27,220.71,225.91,220.93L225.91,220.93L225.91,220.93z"
   fill="#FFFFFF"
   clip-rule="evenodd"
   fill-rule="evenodd" />
			<path
   id="path224"
   d="M226.34,223.57c-0.73-0.12-1.17-0.75-0.98-1.42     c0.19-0.66,0.92-1.11,1.65-1c0.72,0.11,1.16,0.75,0.98,1.41C227.8,223.23,227.06,223.68,226.34,223.57L226.34,223.57     L226.34,223.57z M227.13,220.69c-1-0.16-2.01,0.46-2.27,1.38c-0.26,0.92,0.34,1.8,1.35,1.96c1.01,0.16,2.03-0.46,2.28-1.38     C228.73,221.72,228.12,220.85,227.13,220.69L227.13,220.69L227.13,220.69z"
   fill="#0A2240"
   clip-rule="evenodd"
   fill-rule="evenodd" />
			<path
   id="path226"
   d="M238.44,238.6c-0.15,0.27-1.38,0.09-2.76-0.41     c-1.37-0.51-2.35-1.13-2.21-1.4c0.15-0.28,1.38-0.09,2.74,0.41C237.58,237.69,238.58,238.32,238.44,238.6L238.44,238.6     L238.44,238.6z"
   fill="#FFCD00"
   clip-rule="evenodd"
   fill-rule="evenodd" />
			<path
   id="path228"
   d="M231.07,201.29c-0.16,0.63,0.24,1.24,0.88,1.35     c0.65,0.11,1.3-0.32,1.45-0.95c0.15-0.63-0.24-1.24-0.88-1.35C231.88,200.23,231.23,200.65,231.07,201.29L231.07,201.29     L231.07,201.29z"
   fill="#FFFFFF"
   clip-rule="evenodd"
   fill-rule="evenodd" />
			<path
   id="path230"
   d="M232,202.42c-0.52-0.09-0.85-0.58-0.72-1.1     c0.13-0.51,0.66-0.86,1.18-0.77c0.52,0.09,0.84,0.58,0.72,1.1C233.06,202.17,232.53,202.51,232,202.42L232,202.42L232,202.42z      M232.57,200.13c-0.76-0.13-1.52,0.37-1.71,1.12c-0.19,0.75,0.27,1.47,1.04,1.6c0.76,0.13,1.54-0.37,1.72-1.13     C233.8,200.97,233.33,200.26,232.57,200.13L232.57,200.13L232.57,200.13z"
   fill="#0A2240"
   clip-rule="evenodd"
   fill-rule="evenodd" />
			<path
   id="path232"
   d="M232.9,201.02c0,0,0.35,0.66-0.14,1.08     c-0.48,0.41-1.04,0.06-1.17-0.07c0,0,0.76,0.1,1.01-0.14C232.85,201.66,232.94,201.21,232.9,201.02L232.9,201.02L232.9,201.02z"
   fill="#0A2240"
   clip-rule="evenodd"
   fill-rule="evenodd" />
			<path
   id="path234"
   d="M240.12,222.29c-0.3,0.05-0.56,0.09-0.71,0.11     c-0.71,0.05-9.23,1.62-9.59,1.68l0.1,0.64c2.48-0.45,8.97-1.63,9.53-1.67c0.19-0.01,0.45-0.06,0.78-0.12     c0.95-0.17,2.53-0.44,3.51-0.11c0.75,0.25,1.47,1.4,1.77,2.35c0.19,0.61,0.15,0.94,0.1,1.01l0.53,0.43     c0.27-0.25,0.31-0.72,0.14-1.39c-0.25-0.95-1.08-2.61-2.27-3.01C242.84,221.81,241.2,222.1,240.12,222.29L240.12,222.29     L240.12,222.29z"
   fill="#0A2240"
   clip-rule="evenodd"
   fill-rule="evenodd" />
			<path
   id="path236"
   d="M212.04,219.48c0.32,0.14,0.89,0.41,1.04,0.52l0.03,0.02     c0.15,0.11,0.29,0.23,0.28,0.39c-0.01,0.14-0.12,0.37-0.6,0.74c-1.03,0.79-2.17,0.6-2.94,0.3c-0.24-0.09-0.41-0.29-0.61-0.54     c-0.28-0.34-0.63-0.76-1.34-1.13c-1.31-0.7-3.16-0.55-4.45-0.37c-1.52,0.21-3.13,2.57-3.31,2.84l0.51,0.22     c0.44-0.65,1.78-2.38,2.79-2.52c1.2-0.16,2.93-0.31,4.1,0.31c0.62,0.33,0.92,0.69,1.19,1.01c0.23,0.27,0.45,0.54,0.81,0.67     c1.31,0.51,2.59,0.37,3.59-0.4c0.54-0.42,0.82-0.8,0.84-1.17c0.02-0.43-0.31-0.68-0.47-0.8l-0.02-0.02     c-0.24-0.18-1.04-0.54-1.13-0.57L212.04,219.48L212.04,219.48L212.04,219.48z"
   fill="#0A2240"
   clip-rule="evenodd"
   fill-rule="evenodd" />
			<path
   id="path238"
   d="M201.89,223.5c-0.76,0.59-0.92,1.72-0.93,1.77l0.61-0.02     c0.04-0.26,0.23-1.02,0.68-1.37c0.56-0.44,2.14-0.82,2.54-0.4c0.19,0.18,0.18,0.28,0.17,0.4c-0.02,0.25,0,0.48,0.49,0.73     c0.52,0.27,1.13-0.02,1.4-0.23l-0.37-0.39c-0.02,0.01-0.38,0.29-0.68,0.14c-0.25-0.13-0.25-0.17-0.24-0.29     c0.01-0.17,0.03-0.42-0.3-0.75C204.58,222.4,202.61,222.93,201.89,223.5L201.89,223.5L201.89,223.5z"
   fill="#0A2240"
   clip-rule="evenodd"
   fill-rule="evenodd" />
			<path
   id="path240"
   d="M217.51,222.24l-0.02,0c-0.4,0.08-1.48,0.28-1.78,1.23     c-0.28,0.88,0.24,1.48,0.63,1.66c0.55,0.24,1.09,0.16,1.61-0.24c0.24-0.18,0.37-0.39,0.39-0.61c0.05-0.41-0.3-0.72-0.46-0.87     c-0.13-0.12-0.33-0.18-0.55-0.16c-0.27,0.02-0.55,0.14-0.71,0.3c-0.26,0.26-0.12,0.62,0.08,0.87l0.5-0.36     c-0.05-0.06-0.1-0.14-0.12-0.2c0.05-0.04,0.13-0.07,0.22-0.08c0.05,0,0.09,0.01,0.11,0.02c0.1,0.09,0.34,0.3,0.32,0.47     c0,0.02-0.01,0.1-0.15,0.21c-0.4,0.31-0.69,0.25-0.93,0.15c-0.12-0.06-0.57-0.42-0.37-1.07c0.16-0.52,0.7-0.69,1.26-0.8l0.02,0     c0.41-0.07,0.82-0.06,0.91-0.01c0.06,0.04,0.12,0.11,0.2,0.22c0.08,0.11,0.18,0.25,0.34,0.4c0.37,0.38,2.84,1.26,3.2,1.35     l0.22-0.52c-0.47-0.12-2.71-0.98-2.95-1.22c-0.13-0.13-0.21-0.25-0.29-0.35c-0.1-0.14-0.19-0.26-0.34-0.35     C218.54,222.12,217.84,222.18,217.51,222.24L217.51,222.24L217.51,222.24z"
   fill="#0A2240"
   clip-rule="evenodd"
   fill-rule="evenodd" />
			<path
   id="path242"
   d="M213.98,217.91l-0.26-0.02c-0.86-0.07-1.68-0.13-2.75,0.23     c-1.06,0.36-2.44,2.06-2.53,2.75l0.72-0.01c0.05-0.41,1.21-1.87,1.98-2.13c0.92-0.31,1.59-0.26,2.44-0.19l0.26,0.02     c0.91,0.07,2.8,0.95,3.12,1.15c0.27,0.17,0.69,0.49,1.11,0.8c0.43,0.32,0.81,0.59,1,0.7c0.28,0.16,2.39,1.54,3.47,2.24l0.46-0.54     c-0.13-0.08-3.14-2.05-3.5-2.26c-0.16-0.1-0.56-0.39-0.94-0.67c-0.42-0.31-0.86-0.64-1.14-0.82     C217.04,218.93,215.04,217.99,213.98,217.91L213.98,217.91L213.98,217.91z"
   fill="#0A2240"
   clip-rule="evenodd"
   fill-rule="evenodd" />
			<path
   id="path244"
   d="M240.99,225.62c0.13,0.31,1.01,1.02,1.66,1.33     c0.8,0.39,1.53,0.29,2.07,0.16c0.23-0.05,0.47-0.15,0.72-0.25c0.45-0.19,0.96-0.4,1.41-0.34c0.23,0.03,0.49,0.03,0.77,0.03     c0.8-0.01,1.79-0.02,3.05,0.67c1.6,0.88,1.14,3.42,1.13,3.45l0.03-0.06l0.66,0.3c0.09-0.16,0.6-3.13-1.43-4.25     c-1.44-0.79-2.59-0.78-3.43-0.77c-0.26,0-0.48,0-0.66-0.02c-0.66-0.08-1.3,0.18-1.81,0.4c-0.23,0.09-0.44,0.18-0.6,0.21     c-0.63,0.15-1.07,0.12-1.54-0.11c-0.55-0.27-1.17-0.8-1.31-0.98c0.03-0.1,0.15-0.3,0.28-0.47l-0.58-0.36     C241.14,224.88,240.87,225.32,240.99,225.62L240.99,225.62L240.99,225.62z"
   fill="#0A2240"
   clip-rule="evenodd"
   fill-rule="evenodd" />
			<path
   id="path246"
   d="M198.37,232.56c-0.47,0.03-0.92,0.5-1.15,1.13     c-0.08,0.22-0.14,0.47-0.16,0.72c-0.05,0.62,0.14,1.18,0.48,1.47c0.12,0.1,0.31,0.21,0.56,0.19c0.25-0.02,0.47-0.16,0.6-0.28     c0.39-0.34,0.66-0.94,0.71-1.56C199.48,233.28,198.99,232.51,198.37,232.56L198.37,232.56L198.37,232.56z"
   fill="#FFFFFF"
   clip-rule="evenodd"
   fill-rule="evenodd" />
			<path
   id="path248"
   d="M198.01,235.85c-0.39-0.06-0.77-0.64-0.71-1.46     c0.07-0.88,0.61-1.58,1.05-1.61c0.04,0,0.07,0,0.11,0.01c0.38,0.06,0.76,0.63,0.7,1.46c-0.03,0.44-0.19,0.87-0.43,1.19     c-0.19,0.25-0.42,0.41-0.61,0.42C198.08,235.86,198.04,235.86,198.01,235.85L198.01,235.85L198.01,235.85z M198.61,232.36     c-0.08-0.01-0.15-0.02-0.23-0.01c-0.59,0.05-1.13,0.58-1.4,1.3c-0.09,0.24-0.15,0.5-0.17,0.77c-0.08,0.98,0.38,1.75,1.05,1.85     c0.07,0.01,0.15,0.01,0.23,0.01c0.59-0.04,1.14-0.58,1.4-1.3c0.09-0.24,0.15-0.5,0.17-0.77     C199.72,233.23,199.27,232.46,198.61,232.36L198.61,232.36L198.61,232.36z"
   fill="#0A2240"
   clip-rule="evenodd"
   fill-rule="evenodd" />
			<path
   id="path250"
   d="M246.73,240.94c-0.16,0.26-0.28,0.53-0.33,0.79     c-0.06,0.28-0.06,0.56,0.03,0.79c0.05,0.16,0.17,0.37,0.43,0.49c0.61,0.28,1.58-0.21,2.12-1.06c0.53-0.85,0.48-1.79-0.13-2.06     C248.24,239.61,247.27,240.1,246.73,240.94L246.73,240.94L246.73,240.94z"
   fill="#FFFFFF"
   clip-rule="evenodd"
   fill-rule="evenodd" />
			<path
   id="path252"
   d="M247.13,242.86c-0.05-0.01-0.11-0.02-0.15-0.04     c-0.42-0.19-0.53-0.96-0.02-1.77c0.45-0.71,1.17-1.07,1.6-1.01c0.06,0.01,0.11,0.03,0.15,0.05c0.42,0.19,0.54,0.96,0.03,1.77     C248.29,242.56,247.57,242.92,247.13,242.86L247.13,242.86L247.13,242.86z M248.66,239.6C248.65,239.6,248.65,239.6,248.66,239.6     c-0.72-0.1-1.61,0.4-2.15,1.24c-0.18,0.28-0.3,0.57-0.37,0.86c-0.15,0.67,0.06,1.27,0.59,1.51c0.09,0.05,0.2,0.07,0.31,0.09     c0.72,0.1,1.63-0.4,2.16-1.24c0.18-0.29,0.3-0.57,0.36-0.86c0.14-0.67-0.07-1.27-0.6-1.51     C248.87,239.65,248.77,239.61,248.66,239.6L248.66,239.6L248.66,239.6z"
   fill="#0A2240"
   clip-rule="evenodd"
   fill-rule="evenodd" />
			<path
   id="path254"
   d="M207.06,207c0,0,0.43,0.95-0.33,1.54     c-0.75,0.58-1.52,0.09-1.7-0.1c0,0,1.08,0.14,1.49-0.2C206.91,207.91,207.11,207.26,207.06,207L207.06,207L207.06,207z"
   fill="#0A2240"
   clip-rule="evenodd"
   fill-rule="evenodd" />
			<path
   id="path256"
   d="M201.88,210.12c0,0,0.42,0.95-0.36,1.54     c-0.77,0.59-1.54,0.1-1.72-0.09c0,0,1.09,0.14,1.51-0.21C201.72,211.03,201.92,210.39,201.88,210.12L201.88,210.12L201.88,210.12     z"
   fill="#0A2240"
   clip-rule="evenodd"
   fill-rule="evenodd" />
			<path
   id="path258"
   d="M198.27,215.24c0,0,0.42,0.95-0.37,1.54     c-0.79,0.58-1.57,0.09-1.75-0.09c0,0,1.11,0.14,1.54-0.21C198.1,216.16,198.32,215.51,198.27,215.24L198.27,215.24L198.27,215.24     z"
   fill="#0A2240"
   clip-rule="evenodd"
   fill-rule="evenodd" />
			<path
   id="path260"
   d="M196.93,220.92c0,0,0.43,0.95-0.38,1.54     c-0.81,0.59-1.61,0.09-1.79-0.09c0,0,1.14,0.14,1.58-0.21C196.76,221.83,196.97,221.19,196.93,220.92L196.93,220.92     L196.93,220.92z"
   fill="#0A2240"
   clip-rule="evenodd"
   fill-rule="evenodd" />
			<path
   id="path262"
   d="M197.86,226.36c0,0,0.45,0.95-0.37,1.54     c-0.81,0.59-1.63,0.1-1.82-0.09c0,0,1.16,0.14,1.6-0.21C197.69,227.27,197.9,226.62,197.86,226.36L197.86,226.36L197.86,226.36z"
   fill="#0A2240"
   clip-rule="evenodd"
   fill-rule="evenodd" />
			<path
   id="path264"
   d="M213.05,206.67c0,0,0.44,0.95-0.3,1.54     c-0.74,0.58-1.52,0.1-1.7-0.1c0,0,1.08,0.15,1.48-0.2C212.92,207.57,213.09,206.93,213.05,206.67L213.05,206.67L213.05,206.67z"
   fill="#0A2240"
   clip-rule="evenodd"
   fill-rule="evenodd" />
			<path
   id="path266"
   d="M217.44,208.49c0,0,0.47,0.95-0.27,1.53     c-0.74,0.59-1.53,0.1-1.72-0.09c0,0,1.1,0.14,1.5-0.21C217.32,209.39,217.5,208.75,217.44,208.49L217.44,208.49L217.44,208.49z"
   fill="#0A2240"
   clip-rule="evenodd"
   fill-rule="evenodd" />
			<path
   id="path268"
   d="M220.93,211.04c0,0,0.48,0.95-0.25,1.53     c-0.73,0.58-1.54,0.09-1.73-0.09c0,0,1.11,0.14,1.51-0.21C220.83,211.95,220.99,211.3,220.93,211.04L220.93,211.04L220.93,211.04     z"
   fill="#0A2240"
   clip-rule="evenodd"
   fill-rule="evenodd" />
			<path
   id="path270"
   d="M224.83,213.42c0,0,0.5,0.95-0.23,1.53     c-0.73,0.59-1.55,0.09-1.75-0.09c0,0,1.12,0.14,1.51-0.21C224.74,214.33,224.89,213.68,224.83,213.42L224.83,213.42     L224.83,213.42z"
   fill="#0A2240"
   clip-rule="evenodd"
   fill-rule="evenodd" />
			<path
   id="path272"
   d="M234.74,215.04c0,0,0.54,0.94-0.18,1.53     c-0.71,0.59-1.55,0.1-1.76-0.09c0,0,1.13,0.14,1.52-0.21C234.68,215.95,234.81,215.3,234.74,215.04L234.74,215.04L234.74,215.04z     "
   fill="#0A2240"
   clip-rule="evenodd"
   fill-rule="evenodd" />
			<path
   id="path274"
   d="M239.24,214.28c0,0,0.55,0.94-0.15,1.53     c-0.71,0.58-1.55,0.09-1.75-0.09c0,0,1.13,0.14,1.5-0.2C239.19,215.18,239.31,214.54,239.24,214.28L239.24,214.28L239.24,214.28z     "
   fill="#0A2240"
   clip-rule="evenodd"
   fill-rule="evenodd" />
			<path
   id="path276"
   d="M243.99,213.01c0,0,0.57,0.94-0.12,1.53     c-0.69,0.58-1.54,0.09-1.75-0.09c0,0,1.12,0.14,1.49-0.2C243.97,213.91,244.07,213.26,243.99,213.01L243.99,213.01L243.99,213.01     z"
   fill="#0A2240"
   clip-rule="evenodd"
   fill-rule="evenodd" />
			<path
   id="path278"
   d="M249.32,212.82c0,0,0.58,0.94-0.1,1.53     c-0.68,0.58-1.54,0.09-1.75-0.09c0,0,1.13,0.14,1.49-0.21C249.31,213.73,249.4,213.09,249.32,212.82L249.32,212.82L249.32,212.82     z"
   fill="#0A2240"
   clip-rule="evenodd"
   fill-rule="evenodd" />
			<path
   id="path280"
   d="M254.86,214.76c0,0,0.6,0.94-0.07,1.53     c-0.67,0.58-1.55,0.09-1.76-0.09c0,0,1.14,0.14,1.5-0.2C254.87,215.66,254.95,215.02,254.86,214.76L254.86,214.76L254.86,214.76z     "
   fill="#0A2240"
   clip-rule="evenodd"
   fill-rule="evenodd" />
			<path
   id="path282"
   d="M258.64,218.81c0,0,0.63,0.94-0.05,1.52     c-0.67,0.58-1.57,0.1-1.79-0.09c0,0,1.16,0.14,1.52-0.2C258.66,219.71,258.74,219.07,258.64,218.81L258.64,218.81L258.64,218.81z     "
   fill="#0A2240"
   clip-rule="evenodd"
   fill-rule="evenodd" />
			<path
   id="path284"
   d="M259.71,224.54c0,0,0.64,0.94-0.05,1.53     c-0.68,0.58-1.6,0.1-1.82-0.09c0,0,1.18,0.14,1.54-0.21C259.73,225.45,259.81,224.8,259.71,224.54L259.71,224.54L259.71,224.54z"
   fill="#0A2240"
   clip-rule="evenodd"
   fill-rule="evenodd" />
			<path
   id="path286"
   d="M258.37,230.13c0,0,0.65,0.94-0.06,1.52     c-0.7,0.58-1.63,0.1-1.86-0.09c0,0,1.21,0.14,1.58-0.21C258.39,231.03,258.47,230.39,258.37,230.13L258.37,230.13L258.37,230.13z     "
   fill="#0A2240"
   clip-rule="evenodd"
   fill-rule="evenodd" />
			<path
   id="path288"
   d="M254.63,234.44c0,0,0.64,0.94-0.08,1.53     c-0.72,0.59-1.65,0.1-1.88-0.09c0,0,1.22,0.14,1.6-0.21C254.63,235.35,254.73,234.7,254.63,234.44L254.63,234.44L254.63,234.44z"
   fill="#0A2240"
   clip-rule="evenodd"
   fill-rule="evenodd" />
			<path
   id="path290"
   d="M224.7,232.22c0,0,0.51,0.89-0.21,1.44     c-0.72,0.55-1.55,0.09-1.75-0.08c0,0,1.12,0.13,1.52-0.2C224.62,233.07,224.77,232.46,224.7,232.22L224.7,232.22L224.7,232.22z"
   fill="#0A2240"
   clip-rule="evenodd"
   fill-rule="evenodd" />
			<path
   id="path292"
   d="M229.75,213.58c0,0,0.41,0.74-0.16,1.2     c-0.56,0.46-1.21,0.08-1.36-0.07c0,0,0.88,0.11,1.18-0.16C229.69,214.29,229.81,213.79,229.75,213.58L229.75,213.58     L229.75,213.58z"
   fill="#0A2240"
   clip-rule="evenodd"
   fill-rule="evenodd" />
			<path
   id="path294"
   d="M229.04,216.26c0,0,0.43,0.78-0.17,1.26     c-0.6,0.48-1.29,0.07-1.45-0.08c0,0,0.93,0.11,1.25-0.17C228.98,217,229.1,216.47,229.04,216.26L229.04,216.26L229.04,216.26z"
   fill="#0A2240"
   clip-rule="evenodd"
   fill-rule="evenodd" />
			<path
   id="path296"
   d="M228.33,219.01c0,0,0.43,0.77-0.17,1.26     c-0.61,0.48-1.3,0.08-1.46-0.08c0,0,0.94,0.12,1.26-0.17C228.27,219.75,228.39,219.22,228.33,219.01L228.33,219.01L228.33,219.01     z"
   fill="#0A2240"
   clip-rule="evenodd"
   fill-rule="evenodd" />
			<path
   id="path298"
   d="M226.94,224.76c0,0,0.49,0.87-0.2,1.42     c-0.85,0.66-1.68-0.08-1.68-0.08s1.07,0.13,1.45-0.19C226.87,225.6,227,225,226.94,224.76L226.94,224.76L226.94,224.76z"
   fill="#0A2240"
   clip-rule="evenodd"
   fill-rule="evenodd" />
			<path
   id="path300"
   d="M227.54,221.78c0,0,0.46,0.81-0.18,1.32     c-0.64,0.51-1.37,0.08-1.55-0.08c0,0,0.99,0.12,1.34-0.18C227.47,222.56,227.6,222.01,227.54,221.78L227.54,221.78L227.54,221.78     z"
   fill="#0A2240"
   clip-rule="evenodd"
   fill-rule="evenodd" />
			<path
   id="path302"
   d="M198.83,233.47c0,0,0.45,0.8,0.02,1.51     c-0.43,0.71-1.04,0.41-1.19,0.28c0,0,0.77-0.1,1-0.51C198.87,234.36,198.9,233.71,198.83,233.47L198.83,233.47L198.83,233.47z"
   fill="#0A2240"
   clip-rule="evenodd"
   fill-rule="evenodd" />
			<path
   id="path304"
   d="M248.82,240.96c0,0,0.01,0.96-0.74,1.42     c-0.75,0.45-1.15-0.13-1.22-0.34c0,0,0.75,0.29,1.17,0.02C248.41,241.81,248.77,241.22,248.82,240.96L248.82,240.96     L248.82,240.96z"
   fill="#0A2240"
   clip-rule="evenodd"
   fill-rule="evenodd" />
			<path
   id="path306"
   d="M213.44,233.64c-0.02,0.3-1.26,0.59-2.76,0.66     c-1.5,0.05-2.7-0.13-2.68-0.43c0.03-0.3,1.27-0.59,2.77-0.65C212.27,233.15,213.46,233.35,213.44,233.64L213.44,233.64     L213.44,233.64z"
   fill="#FFCD00"
   clip-rule="evenodd"
   fill-rule="evenodd" />
			<path
   id="path308"
   d="M225.37,208.16c0,0,1.19-0.28,3.68,0.12l0.65-2.5l2.72,0.46     l-0.62,2.47c0,0,3.1,0.27,3.42,0.91c0.31,0.6-0.56,3-1.26,3.45c0,0-4-1.95-8.76-1.44C225.19,211.63,224.16,210.15,225.37,208.16     L225.37,208.16L225.37,208.16z"
   fill="#FFFFFF"
   clip-rule="evenodd"
   fill-rule="evenodd" />
			<path
   id="path310"
   d="M231.45,206.29c-0.06,0.26-0.34,0.44-0.61,0.39     c-0.27-0.04-0.44-0.3-0.37-0.56c0.07-0.26,0.34-0.44,0.61-0.39C231.35,205.78,231.52,206.03,231.45,206.29L231.45,206.29     L231.45,206.29z"
   fill="#FEFEFE"
   clip-rule="evenodd"
   fill-rule="evenodd" />
			<path
   id="path312"
   d="M231.16,207.45c-0.07,0.26-0.34,0.44-0.61,0.39     c-0.27-0.05-0.44-0.3-0.37-0.56c0.07-0.26,0.34-0.44,0.61-0.39C231.06,206.94,231.22,207.19,231.16,207.45L231.16,207.45     L231.16,207.45z"
   fill="#FEFEFE"
   clip-rule="evenodd"
   fill-rule="evenodd" />
			<path
   id="path314"
   d="M230.85,208.66c-0.07,0.27-0.34,0.44-0.62,0.39     c-0.27-0.05-0.44-0.29-0.37-0.56c0.07-0.26,0.34-0.44,0.62-0.39C230.75,208.15,230.91,208.4,230.85,208.66L230.85,208.66     L230.85,208.66z"
   fill="#FEFEFE"
   clip-rule="evenodd"
   fill-rule="evenodd" />
			<path
   id="path316"
   d="M225.95,209.82c-0.08,0.3-0.4,0.5-0.71,0.45     c-0.31-0.05-0.5-0.33-0.41-0.64c0.08-0.3,0.4-0.5,0.71-0.45C225.85,209.24,226.03,209.52,225.95,209.82L225.95,209.82     L225.95,209.82z"
   fill="#FEFEFE"
   clip-rule="evenodd"
   fill-rule="evenodd" />
			<path
   id="path318"
   d="M227.52,209.72c-0.09,0.33-0.43,0.54-0.77,0.49     c-0.33-0.05-0.54-0.37-0.45-0.69c0.09-0.32,0.44-0.54,0.77-0.48C227.41,209.1,227.61,209.4,227.52,209.72L227.52,209.72     L227.52,209.72z"
   fill="#FEFEFE"
   clip-rule="evenodd"
   fill-rule="evenodd" />
			<path
   id="path320"
   d="M229.11,209.84c-0.09,0.33-0.43,0.55-0.78,0.49     c-0.34-0.06-0.55-0.37-0.46-0.7c0.09-0.33,0.44-0.55,0.78-0.49C228.99,209.2,229.19,209.51,229.11,209.84L229.11,209.84     L229.11,209.84z"
   fill="#FEFEFE"
   clip-rule="evenodd"
   fill-rule="evenodd" />
			<path
   id="path322"
   d="M232.08,210.29c-0.08,0.32-0.42,0.54-0.76,0.49     c-0.34-0.06-0.55-0.37-0.46-0.69c0.08-0.32,0.43-0.54,0.76-0.48C231.95,209.65,232.16,209.96,232.08,210.29L232.08,210.29     L232.08,210.29z"
   fill="#FEFEFE"
   clip-rule="evenodd"
   fill-rule="evenodd" />
			<path
   id="path324"
   d="M233.47,210.63c-0.08,0.31-0.4,0.52-0.73,0.46     c-0.33-0.05-0.52-0.35-0.45-0.66c0.08-0.31,0.4-0.52,0.73-0.47C233.34,210.02,233.54,210.31,233.47,210.63L233.47,210.63     L233.47,210.63z"
   fill="#FEFEFE"
   clip-rule="evenodd"
   fill-rule="evenodd" />
			<path
   id="path326"
   d="M234.84,211.13c-0.08,0.31-0.39,0.52-0.72,0.46     c-0.33-0.05-0.52-0.35-0.45-0.66c0.08-0.31,0.39-0.51,0.72-0.46C234.71,210.53,234.91,210.82,234.84,211.13L234.84,211.13     L234.84,211.13z"
   fill="#FEFEFE"
   clip-rule="evenodd"
   fill-rule="evenodd" />
			<path
   id="path328"
   d="M230.63,210.06c-0.09,0.35-0.46,0.58-0.82,0.52     c-0.36-0.06-0.58-0.39-0.49-0.74c0.09-0.34,0.46-0.58,0.82-0.52C230.5,209.38,230.72,209.71,230.63,210.06L230.63,210.06     L230.63,210.06z"
   fill="#A32035"
   clip-rule="evenodd"
   fill-rule="evenodd" />
			<path
   id="path330"
   d="M235.95,238.92c0,0,0.67,2.38,1.73,2.59     c1.06,0.21,1.18-1.29,1.18-1.29s-0.12-0.74-0.79-0.39c-0.39,0.2-0.35,0.53-0.35,0.53s-0.74-0.44-0.8-1.22     C236.84,238.36,235.95,238.92,235.95,238.92L235.95,238.92L235.95,238.92z"
   fill="#FFCD00"
   clip-rule="evenodd"
   fill-rule="evenodd" />
			<path
   id="path332"
   d="M211.3,234.66c0,0,1.2,2.12,2.29,2.08     c1.09-0.04,0.87-1.5,0.87-1.5s-0.29-0.69-0.87-0.2c-0.34,0.28-0.22,0.58-0.22,0.58s-0.83-0.26-1.07-0.98     C212.05,233.92,211.3,234.66,211.3,234.66L211.3,234.66L211.3,234.66z"
   fill="#FFCD00"
   clip-rule="evenodd"
   fill-rule="evenodd" />
			<path
   id="path334"
   d="M210.1,234.96c0,0-1.93,2.03-2.99,1.93     c-1.06-0.1-0.33-1.54-0.33-1.54s0.53-0.66,0.93-0.14c0.24,0.3,0.02,0.59,0.02,0.59s0.9-0.2,1.4-0.91     C209.61,234.18,210.1,234.96,210.1,234.96L210.1,234.96L210.1,234.96z"
   fill="#FFCD00"
   clip-rule="evenodd"
   fill-rule="evenodd" />
			<path
   id="path336"
   d="M234.9,238.23c0,0-2.38,1.41-3.36,1.04     c-0.97-0.37,0.1-1.5,0.1-1.5s0.68-0.52,0.92,0.09c0.14,0.36-0.14,0.59-0.14,0.59s0.91,0.03,1.57-0.54     C234.65,237.33,234.9,238.23,234.9,238.23L234.9,238.23L234.9,238.23z"
   fill="#FFCD00"
   clip-rule="evenodd"
   fill-rule="evenodd" />
			<path
   id="path338"
   d="M211.81,245.73l-0.09,0.07c-0.11,0.08-0.2,0.2-0.28,0.31     c-0.07,0.1-0.13,0.18-0.19,0.21c-0.12,0.06-0.25,0.07-0.35,0.01l-0.04-0.03c-0.11-0.06-0.29-0.17-0.43-0.39     c-0.15-0.23-0.86-0.33-1.18-0.32c-0.2,0.01-0.64,0.3-0.91,0.49c0.32-0.09,0.98-0.27,1.28-0.29c0.39-0.02,0.6,0.36,0.67,0.53     c0.04,0.1,0.27,0.32,0.33,0.34c0.34,0.13,0.62,0.18,0.8,0.16c0.23-0.04,0.66,0.07,1.03,0.18c-0.26-0.15-0.51-0.35-0.48-0.45     c0.01-0.02,0.03-0.04,0.05-0.05c0.17-0.04,0.21-0.08,0.3-0.17c0.09-0.09,0.25-0.09,0.49-0.09l0.22-0.01     c0.09,0,0.18,0.01,0.26,0.02c-0.03-0.01-0.07-0.02-0.07-0.02c-0.12-0.06-0.49-0.13-0.71-0.1c-0.08,0.01-0.19,0.08-0.28,0.14     c-0.11,0.07-0.18,0.12-0.24,0.09c-0.05-0.02-0.04-0.07-0.04-0.11c0.04-0.26,0.4-0.52,0.88-0.65c0.32-0.09,0.74,0.04,0.98,0.14     c-0.17-0.15-0.44-0.3-0.88-0.37C212.4,245.27,212.03,245.56,211.81,245.73L211.81,245.73L211.81,245.73z"
   fill="#0A2240"
   clip-rule="evenodd"
   fill-rule="evenodd" />
			<path
   id="path340"
   d="M212.76,247.12c0.03,0.01,0.05,0.02,0.07,0.03     c0,0,0.01,0,0.01,0c0.03,0.01,0.06,0.01,0.08,0.02C212.92,247.17,212.85,247.16,212.76,247.12L212.76,247.12L212.76,247.12z      M211,246.4c0.08,0.01,0.18-0.01,0.27-0.06c0.07-0.04,0.13-0.12,0.2-0.22c0.08-0.1,0.17-0.23,0.27-0.3     c0.03-0.02,0.06-0.05,0.09-0.07c0.21-0.17,0.57-0.45,1.07-0.37l0.01,0l0,0c0.29,0.05,0.5,0.12,0.66,0.22     c-0.09-0.02-0.19-0.05-0.29-0.06c-0.18-0.03-0.34-0.02-0.47,0.01c-0.5,0.13-0.87,0.41-0.91,0.68c-0.02,0.11,0.04,0.14,0.09,0.15     c0.07,0.01,0.15-0.04,0.26-0.1c0.08-0.05,0.19-0.12,0.26-0.13c0.08-0.01,0.2-0.01,0.33,0.01c0.07,0.01,0.13,0.02,0.18,0.04     c-0.07,0-0.15,0-0.21,0c-0.25,0.01-0.42,0.01-0.53,0.11c-0.09,0.09-0.12,0.12-0.28,0.16c-0.04,0.01-0.08,0.04-0.09,0.08     c-0.02,0.09,0.12,0.22,0.29,0.34c-0.16-0.04-0.32-0.08-0.47-0.1c-0.14-0.02-0.25-0.02-0.33-0.01c-0.07,0.01-0.15,0-0.24-0.01     c-0.11-0.01-0.28-0.05-0.53-0.14c-0.06-0.02-0.28-0.23-0.31-0.32c-0.08-0.18-0.26-0.5-0.59-0.55c-0.04-0.01-0.08-0.01-0.12,0     c-0.25,0.01-0.75,0.14-1.1,0.24c0.27-0.18,0.58-0.36,0.73-0.37c0.11,0,0.26,0.01,0.42,0.03c0.37,0.05,0.65,0.16,0.73,0.28     c0.15,0.22,0.34,0.34,0.44,0.4c0.02,0.01,0.03,0.02,0.04,0.03C210.91,246.38,210.96,246.4,211,246.4L211,246.4L211,246.4z      M212.94,245.31c-0.01,0-0.01,0-0.02,0c-0.62-0.09-1.03,0.31-1.23,0.46c-0.2,0.14-0.35,0.45-0.46,0.52     c-0.07,0.04-0.14,0.05-0.2,0.04c-0.04,0-0.07-0.01-0.09-0.04c-0.08-0.05-0.31-0.16-0.47-0.4c-0.11-0.16-0.46-0.26-0.78-0.31     c-0.16-0.02-0.33-0.03-0.43-0.03c-0.32,0.02-1.09,0.62-1.09,0.62s0.03-0.01,0.08-0.03c0.03-0.01,0.07-0.02,0.11-0.03     c0.32-0.1,0.97-0.27,1.26-0.29c0.03,0,0.07,0,0.1,0c0.33,0.05,0.49,0.42,0.53,0.51c0.04,0.1,0.28,0.33,0.35,0.35     c0.08,0.03,0.31,0.12,0.54,0.15c0.1,0.01,0.19,0.02,0.27,0c0.08-0.01,0.18,0,0.3,0.02c0.21,0.03,0.46,0.09,0.68,0.15     c0.1,0.03,0.2,0.06,0.28,0.08c0.03,0,0.05,0.02,0.07,0.02c-0.31-0.14-0.79-0.48-0.76-0.57c0-0.01,0.01-0.02,0.02-0.02     c0.18-0.04,0.23-0.09,0.32-0.18c0.1-0.09,0.33-0.07,0.68-0.09c0.07,0,0.14,0,0.21,0.01c0.03,0,0.06,0.01,0.09,0.01     c0.12,0.02,0.23,0.04,0.3,0.06c0.04,0.01,0.07,0.02,0.07,0.02s0,0,0.01-0.01c0.01-0.01,0-0.03-0.06-0.06     c-0.06-0.03-0.27-0.05-0.4-0.11c-0.07-0.04-0.22-0.08-0.38-0.1c-0.12-0.02-0.26-0.02-0.36-0.01c-0.17,0.03-0.41,0.25-0.49,0.24     c-0.02,0-0.04-0.02-0.03-0.08c0-0.02,0.01-0.04,0.01-0.05c0.07-0.22,0.4-0.45,0.83-0.57c0.13-0.03,0.28-0.03,0.43-0.01     c0.19,0.03,0.38,0.09,0.51,0.14c0.05,0.01,0.09,0.03,0.12,0.05c0.04,0.02,0.07,0.03,0.07,0.03     C213.85,245.67,213.56,245.41,212.94,245.31L212.94,245.31L212.94,245.31z"
   fill="#0A2240"
   clip-rule="evenodd"
   fill-rule="evenodd" />
			<path
   id="path342"
   d="M216.89,238.91l10.07,1.78l17.91,5.37l3.44-5.13l-1.09-0.39     c-1.5,1.19-3.19,1.94-5.23,2.19c-0.87,0.07-1.63-0.04-2.44-0.33l-1.68-0.92l-0.86-0.89l-0.44-0.76l-0.2-0.57l-0.09-0.42     l-0.05-1.43c-3.07,1.74-6.52,2.2-9.68,0.74l-2.1-1.47c-1.05-0.56-3.04-0.65-4.32-0.08c-0.08,0.04-0.15,0.06-0.22,0.1     c-3.54,1.52-7.57,0.39-8.94-2.52l-0.56,0.01c-0.85,1.25-1.91,2.17-3.36,2.91c-0.64,0.3-1.25,0.46-1.95,0.5l-2.28-0.2     c-2.86-0.9-3.97-2.46-5.25-4.83l0.35,6.96L216.89,238.91L216.89,238.91z M198.51,238.97l-0.2-3.76c1.69,2.18,5.3,3.95,8.54,2.53     c1.6-0.7,2.81-1.63,3.77-2.89c1.76,2.74,5.82,3.76,9.49,2.31c1.09-0.44,2.15-0.53,3.26-0.29l0.57,0.2     c0.81,0.44,1.47,0.9,2.19,1.51c2.3,1.69,6.91,1.04,9.51-0.21c0.03,0.71,0.12,1.33,0.51,2.01c0.89,1.53,3.1,2.99,5.34,2.92     c2.28-0.13,4.19-0.82,5.87-2.12l0.06,0.02l-2.83,4.2l-17.44-5.24L217,238.36L198.51,238.97L198.51,238.97z"
   fill="#0A2240"
   clip-rule="evenodd"
   fill-rule="evenodd" />
			<path
   id="path344"
   d="M227.64,203.84c0.96-0.61,1.92-0.91,2.99-0.96l-0.34,0.8     c-0.95,1.31-2.19,2.19-3.72,2.79l-0.28,2.12l8.37,1.21l0.28-1.89l-1.14-2.1l-0.44-1.19l-0.13-0.68l0-0.38l0.15-0.38l0.42,0.16     c1.26,0.88,1.91,1.76,2.73,3.1l1.88-8.23l-1.97,1.4l-0.97,0.46l-0.65,0.19l-0.4,0.05l-0.75-0.09l0.09-0.75l0.37-0.64     c0.88-0.98,1.71-1.27,3-1.75l-7.15-1.27l1.2,1.67l0.3,0.78l0.08,0.57c0.03,0.38-0.05,0.74-0.25,1.1c-0.35,0.04-0.67,0.01-1-0.09     l-0.67-0.41l-0.38-0.49c-0.59-1.11-0.48-2.49-0.5-3.79l-2.71,10.22L227.64,203.84L227.64,203.84z M227.12,203.59l1.36-5.15     c0.42,1.28,1.47,2.31,3.05,2.02l0.2-0.14c0.86-1.4,0.2-2.62-0.51-3.71l4.02,0.71c-1.29,0.71-2.3,1.9-2.1,3.4l1.3,0.15     c1.03-0.03,2.18-0.75,3.17-1.41l-1.29,5.59c-0.85-1.12-1.79-1.95-3.2-2.6l-0.42,1.09c0.09,1.55,0.96,3.09,1.69,4.48l-0.17,1.15     l-7.26-1.05l0.17-1.3c1.74-0.82,3.85-2.43,4.22-4.18l-0.23-0.3C229.62,202.2,228.23,202.65,227.12,203.59L227.12,203.59z"
   fill="#0A2240"
   clip-rule="evenodd"
   fill-rule="evenodd" />
			<path
   id="path346"
   d="M197.92,240.67l0.75,1.78l0.06,0.55l-0.56,2.61     c7.53-0.9,14.79-0.9,22.05,0.06c7.35,1.51,14.2,3.87,20.85,7.07l0.88-2.56l0.46-0.79l1.89-2.33c-6.67-3.57-14.13-5.95-21.92-6.78     l-7.49-0.78C209.32,238.95,203.61,239.39,197.92,240.67L197.92,240.67z M198.43,240.88c5.07-1.15,9.47-1.49,14.48-1.14l9.4,0.87     c8.01,0.88,14.59,2.9,21.44,6.55l-1.68,2.08l-0.39,0.63l-0.85,2.37c-14.27-6.95-25.42-8.98-42.2-7.02l0.48-2.28     C199.14,242.59,198.66,241.46,198.43,240.88L198.43,240.88z"
   fill="#0A2240"
   clip-rule="evenodd"
   fill-rule="evenodd" />
			<path
   id="path348"
   d="M196.63,246.65l-0.49,0.67l-0.18,0.55l0.09,0.35l0.2,0.19     c0.08,0.05,0.19,0.09,0.32,0.11l-0.28,0.38c-0.32,0.6,0.17,1.53,0.95,1.61l0.19,0c14.95-4.22,29.35-1.99,40.61,6.13l0.3,0.05     c1.7-0.43,1.84-1.13,1.84-2.22l0.46-0.09l0.4-0.28l0.15-0.29c0.05-0.15,0.04-0.35-0.02-0.53c0.31-0.11,0.58-0.36,0.62-0.62     c0.06-0.42-0.32-0.9-0.71-1.13c-12.23-7.3-27.58-9.6-42.73-6.33c-1.77,0.66-2.05,1.01-1.8,1.38     C196.56,246.59,196.59,246.62,196.63,246.65L196.63,246.65z M198.47,245.66c15.53-3.32,29.68-1.18,42.22,6.26     c0.27,0.16,0.42,0.38,0.44,0.65l-0.02,0.05l-0.04,0.05l-0.16,0.13c-0.03,0.02-0.51-0.11-0.63-0.14l0.27,0.91l-0.02,0.12     l-0.15,0.17c-0.29,0.14-0.54,0.12-0.86,0.12l0.01,1.2l-0.15,0.31l-0.2,0.2l-0.9,0.42c-11.38-8.11-25.84-10.34-40.88-6.14     c-0.25-0.09-0.44-0.24-0.56-0.45l-0.02-0.36l0.74-1.12l-0.82-0.04l-0.07-0.03l-0.09-0.1c-0.02-0.08-0.01-0.16,0.03-0.24l0.8-1.16     l-0.3-0.2l0.24-0.17L198.47,245.66L198.47,245.66z"
   fill="#0A2240"
   clip-rule="evenodd"
   fill-rule="evenodd" />
			<path
   id="path350"
   d="M235.49,211.03c0.46-2.75-1.47-5.23-4.32-5.54     c-2.48-0.58-5.96,0.98-6.63,3.76c-0.57,2.76,1.32,5.24,4.25,5.55C231.46,215.39,234.82,213.78,235.49,211.03L235.49,211.03z      M234.93,210.94c-0.76,2.41-3.45,3.89-5.99,3.32c-2.58-0.5-4.39-2.25-3.83-4.96c0.91-2.61,3.42-3.63,5.96-3.27     C233.61,206.31,235.33,208.52,234.93,210.94L234.93,210.94z"
   fill="#0A2240"
   clip-rule="evenodd"
   fill-rule="evenodd" />
			<path
   id="path352"
   d="M217.86,235.15c1.26-0.71,2.53-1.07,3.94-1.12l-0.46,0.97     c-1.45,1.81-3.09,2.59-5.48,3.42l11.61,1.71l-1.68-2.69l-0.6-1.24l-0.23-0.7l-0.06-0.39l0.01-0.18l0.02-0.06l0.7,0.2     c1.5,0.82,2.47,1.63,3.67,2.81l2.42-9.12l-2.42,1.6l-1.13,0.54l-0.72,0.24l-0.46,0.09l-0.3,0.02l-0.15-0.01l-0.14-0.03l0.28-0.8     l0.65-0.72c1.36-1.06,2.47-1.45,4.22-2.03l-11.52-1.79l1.53,1.86l0.5,0.95l0.21,0.67l0.07,0.44l-0.1,0.88     c-0.33-0.01-0.64-0.07-0.94-0.19l-0.76-0.5c-1.15-1.29-1.09-2.54-1.22-4.08l-3.36,10.93L217.86,235.15L217.86,235.15z      M217.14,235.01l1.93-6.29c0.51,1.47,1.74,2.6,3.72,2.46c0.25-2.34-0.15-2.98-1.36-4.53l7.91,1.22     c-1.73,0.75-3.55,2.01-3.65,3.74c1.85,0.49,3.57-0.59,5.08-1.57l-1.79,6.68c-1.19-1.09-2.43-1.91-4.14-2.49l-0.26,0.13     l-0.19,0.23c-0.36,1.04,1,3.32,1.9,4.79l-8.3-1.22c2.02-0.98,4.16-2.61,4.59-4.39l-0.25-0.31     C220.41,233.32,218.59,233.87,217.14,235.01L217.14,235.01z"
   fill="#0A2240"
   clip-rule="evenodd"
   fill-rule="evenodd" />
			<path
   id="path354"
   d="M241.37,239.5l-0.01-0.03l0.01-0.02l0.08-0.18l1.96-1.74     c0.51-0.48,0.93-1.2,1.1-1.83c0.35-1.31-0.58-2.61-2.07-2.89c-0.82-0.15-1.59,0-2.28,0.44c-1.42,0.92-2.94,2.82-3.91,4.15     l1.52,0.7c0.48-0.64,0.88-1.07,1.57-1.51c0.66-0.41,1.13-0.26,1.78-0.01c0.01,0.05,0,0.09-0.03,0.14l-1.47,1.94     c-0.4,0.73-0.45,1.83,0.67,2.14c0.32,0.09,0.65,0.03,0.91-0.16c0.44-0.24,0.42-0.42,0.43-0.82L241.37,239.5L241.37,239.5z      M237.12,237.2c0.74-0.99,1.47-1.83,2.38-2.74l1.03-0.78c0.52-0.34,1.12-0.45,1.77-0.33c1.16,0.22,1.88,1.23,1.6,2.25     c-0.14,0.53-0.39,0.96-0.78,1.39l-2.2,2l-0.17,0.32c-0.06,0.19-0.05,0.38,0.09,0.52l0.13,0.15l0.02,0.09     c-0.07,0.12-0.26,0.25-0.42,0.25l-0.2-0.09l-0.23-0.22c-0.21-0.24-0.24-0.57-0.07-0.88l1.49-1.99c0.21-0.37,0.29-0.83-0.18-1.02     c-1.38-0.83-2.95,0.22-3.83,1.29L237.12,237.2L237.12,237.2z"
   fill="#0A2240"
   clip-rule="evenodd"
   fill-rule="evenodd" />
			<path
   id="path356"
   d="M230.26,236.27l-0.08,0.16l-0.03,0.04l-0.39,0.06l-0.38,0.25     l-0.14,0.35c0.03,0.84,0.49,1.09,1.41,0.93c1.28-0.22,1.65-2.21,1.93-3.32l0.15-0.27c0.02-0.01,0.06,0,0.09,0     c0.58,0.05,1.03,0.37,1.21,0.85c0.21,0.75,0.14,1.35-0.07,2.14l1.72,0.33l0.08-0.28c0.35-1.29,0.53-2.4,0.62-3.72     c0-0.04-0.12-1.25-0.12-1.26c-0.3-1.34-1.79-2.17-3.33-1.85c-0.81,0.17-1.45,0.58-1.9,1.21     C230.28,232.95,230.3,234.91,230.26,236.27L230.26,236.27z M235.22,237.15l-0.51-0.1c0.26-1.35-0.05-2.96-1.79-3.11     c-0.81-0.18-1.23,1.99-1.42,2.75l-0.36,0.58c-0.15,0.15-0.34,0.23-0.56,0.26l-0.28,0.03l-0.26-0.03     c-0.14-0.07-0.17-0.27-0.13-0.41l0.07-0.06l0.33-0.07l0.23-0.09l0.19-0.19l0.18-0.37l0.04-2.49c0.06-0.61,0.25-1.15,0.63-1.7     c0.35-0.49,0.84-0.8,1.48-0.94c1.21-0.25,2.38,0.4,2.61,1.45l0.11,0.87C235.71,234.8,235.54,235.9,235.22,237.15L235.22,237.15z"
   fill="#0A2240"
   clip-rule="evenodd"
   fill-rule="evenodd" />
			<path
   id="path358"
   d="M235.31,237.14l0.38,0.41l0.25,0.14l0.51,0.05l4.71-6.11     c0.4-1.41,0.36-3.01,0.15-4.45l-0.45-0.19c-1.78,0.97-3.63,2.19-4.2,4.07L235.31,237.14L235.31,237.14z M235.99,236.97l1.16-5.43     l0.44-1.23l0.59-0.73c0.8-0.75,1.6-1.34,2.58-1.9c0.11,0.95,0.13,1.81,0.06,2.8l-0.24,0.96l-4.16,5.62l-0.16,0.12l-0.04,0     l-0.02-0.01L235.99,236.97L235.99,236.97z"
   fill="#0A2240"
   clip-rule="evenodd"
   fill-rule="evenodd" />
			<path
   id="path360"
   d="M205.24,234.29l-0.01,0.18l-0.02,0.04l-0.35,0.19l-0.24,0.33     c-0.05,0.26-0.02,0.47,0.14,0.67c0.28,0.51,1.02,0.36,1.55,0.06c1.12-0.64,0.7-2.55,0.54-3.63l0.04-0.34l0.07,0.02     c0.57-0.15,1.12-0.02,1.46,0.36c0.48,0.6,0.65,1.16,0.75,1.94l1.74-0.28l-0.04-0.28c-0.18-1.28-0.42-2.35-0.84-3.56     c-0.01-0.03-0.58-1.09-0.58-1.09c-0.73-1.1-2.41-1.34-3.76-0.55c-0.74,0.43-1.22,1.03-1.41,1.77     C203.99,231.33,204.75,233.06,205.24,234.29L205.24,234.29z M210.22,233.4l-0.5,0.08c-0.27-1.29-1.14-2.63-2.86-2.19     c-0.85,0.12-0.41,2.21-0.29,2.95l-0.11,0.65c-0.09,0.18-0.22,0.32-0.42,0.43l-0.25,0.13l-0.26,0.06     c-0.16-0.01-0.27-0.19-0.28-0.33l0.04-0.08l0.28-0.17l0.19-0.16l0.11-0.24l0.02-0.38l-0.92-2.23c-0.19-0.57-0.2-1.12-0.05-1.75     c0.14-0.57,0.52-1.05,1.11-1.39c1.05-0.61,2.35-0.41,2.91,0.44l0.44,0.75C209.77,231.12,210.04,232.17,210.22,233.4L210.22,233.4     z"
   fill="#0A2240"
   clip-rule="evenodd"
   fill-rule="evenodd" />
			<path
   id="path362"
   d="M216.81,233.9l-0.02-0.02l-0.01-0.02l0.01-0.19l1.18-2.26     c0.29-0.61,0.41-1.43,0.33-2.05c-0.18-1.35-1.59-2.21-3.14-1.91c-0.82,0.15-1.48,0.55-1.97,1.17c-1,1.26-1.75,3.63-2.14,5.12     l1.73,0.11c0.21-0.74,0.43-1.28,0.92-1.92c0.45-0.56,1.03-0.66,1.72-0.61c0.03,0.04,0.04,0.08,0.03,0.13l-0.64,2.28     c-0.09,0.82,0.33,1.78,1.5,1.71c0.34-0.02,0.64-0.19,0.81-0.45c0.33-0.38,0.23-0.54,0.07-0.9L216.81,233.9L216.81,233.9z      M211.8,233.25c0.32-1.16,0.68-2.16,1.21-3.31l0.69-1.06c0.37-0.47,0.89-0.78,1.53-0.9c1.22-0.23,2.32,0.44,2.46,1.5     c0.07,0.53,0,1-0.2,1.54l-1.31,2.57l-0.03,0.35c0.02,0.19,0.11,0.35,0.3,0.43l0.2,0.1l0.05,0.07l-0.01,0.09l-0.1,0.17     c-0.04,0.06-0.1,0.1-0.18,0.12l-0.24-0.02l-0.31-0.12c-0.3-0.15-0.46-0.44-0.42-0.78l0.63-2.34c0.06-0.42-0.05-0.84-0.56-0.86     c-1.63-0.29-2.75,1.2-3.16,2.49L211.8,233.25L211.8,233.25z"
   fill="#0A2240"
   clip-rule="evenodd"
   fill-rule="evenodd" />
			<path
   id="path364"
   d="M211.41,233.7l2.31-5.62c0.66-1.99-0.11-3.91-1.18-5.51     l-0.5,0.02c-1.07,1.33-1.86,2.58-2.44,4.14l0.29,6.7l0.17,0.38l0.3,0.16l0.31,0.01L211.41,233.7L211.41,233.7z M210.92,233.32     l-0.22,0.1l-0.04,0.01l-0.45-6.7l0.25-0.75c0.52-0.99,1.07-1.84,1.77-2.76c0.47,0.76,0.8,1.49,1.09,2.38l0.15,1.1l-0.22,0.92     L210.92,233.32L210.92,233.32z"
   fill="#0A2240"
   clip-rule="evenodd"
   fill-rule="evenodd" />
			<path
   id="path366"
   d="M247.31,239.09l-0.16,0.15l-0.13-0.14l-0.14-0.28l-0.24-0.75     l-0.58-4.08l-5.62,7.59c1.59-0.37,2.64-0.57,4.19-0.43l1.16,0.37l0.48,0.45l0.11,0.39l-0.04,0.37c-0.15,0.51-0.27,0.54-0.62,1.03     l-1.25,2.29l0.54,0.25l7.85-9.71l-7.12-4.4c1.04,2.04,1.66,3.44,1.89,5.59C247.69,238.26,247.58,238.67,247.31,239.09     L247.31,239.09z M247.02,242.89c0.29-1.01-0.36-1.85-1.89-2.23c-0.82-0.2-2.18-0.12-3.23,0.04l3.7-4.99     c0.13,1.31,0.4,2.62,0.94,3.83c0.19,0.17,0.46,0.39,0.78,0.28l0.32-0.17l0.25-0.27l0.41-1.21c0.2-1.15-0.34-2.95-0.95-4.28     l4.63,2.84L247.02,242.89L247.02,242.89z"
   fill="#0A2240"
   clip-rule="evenodd"
   fill-rule="evenodd" />
			<path
   id="path368"
   d="M197.72,236.43l-0.01,0.08l0.43,3.09l0.64-0.14l-0.42-3.11     c0.17-0.74,0.88-1.35,1.75-1.49l0.97-0.05c1.56,0.25,2.47,0.76,3.73,1.6l-0.78-8.76c-1.03,1.58-1.72,2.59-2.94,3.99l-0.81,0.69     l-0.06,0.03l-0.04-0.05l-0.03-0.12l0.26-1.07c1.26-2.21,2.74-3.42,4.99-5.03l-8.69,2.12L197.72,236.43L197.72,236.43z      M198.23,235.36l-0.83-6.78l5.74-1.39c-1.81,1.62-4.82,4.75-3.31,5.68c0.7,0.43,2.65-2.08,3.71-3.51l0.51,5.88     c-1.14-0.63-2.63-1.1-3.97-0.89C199.33,234.45,198.66,234.83,198.23,235.36L198.23,235.36z"
   fill="#0A2240"
   clip-rule="evenodd"
   fill-rule="evenodd" />
			<path
   id="path370"
   d="M212.82,241.61c0.02-0.3-0.07-0.56-0.28-0.78l-0.73-0.52     c-1.27-0.68-3.62-0.32-4.78,0.51c-1.08,0.77-0.51,1.77,0.38,2.26c1.26,0.67,3.69,0.33,4.82-0.51     C212.56,242.31,212.78,241.96,212.82,241.61L212.82,241.61z M211.33,242.62c-1.18,0.48-2.36,0.52-3.48,0.15l-0.7-0.41     c-0.36-0.28-0.34-0.79,0.05-1.14l0.72-0.47c1.18-0.47,2.34-0.52,3.45-0.14l0.7,0.41c0.17,0.15,0.27,0.36,0.25,0.6     c-0.02,0.21-0.11,0.38-0.29,0.54L211.33,242.62L211.33,242.62z"
   fill="#A32035"
   clip-rule="evenodd"
   fill-rule="evenodd" />
			<path
   id="path372"
   d="M235.19,246.24c0.15-0.28,0.19-0.55,0.1-0.84l-0.44-0.76     c-0.84-1.11-3.08-1.62-4.47-1.26c-1.3,0.34-1.24,1.5-0.66,2.29c0.82,1.1,3.13,1.66,4.52,1.26     C234.65,246.82,235,246.56,235.19,246.24L235.19,246.24z M233.4,246.67c-1.26,0.03-2.34-0.35-3.16-1.12l-0.43-0.64     c-0.19-0.4,0.06-0.88,0.55-1.07l0.85-0.18c1.25-0.02,2.32,0.36,3.14,1.12l0.44,0.64c0.09,0.2,0.08,0.44-0.03,0.67     c-0.12,0.18-0.28,0.32-0.5,0.41L233.4,246.67L233.4,246.67z"
   fill="#A32035"
   clip-rule="evenodd"
   fill-rule="evenodd" />
			<path
   id="path374"
   d="M223.87,244.05l0.67-2.3l-0.18-0.25l-5.5-0.96l-0.31,0.17     l-0.92,2.43l0.17,0.26l5.55,0.95C223.57,244.39,223.81,244.25,223.87,244.05L223.87,244.05z M223.41,243.77l-5.12-0.61l0.49-2.04     l5.09,0.61L223.41,243.77L223.41,243.77z"
   fill="#0A2240"
   clip-rule="evenodd"
   fill-rule="evenodd" />
			<path
   id="path376"
   d="M240.38,247.16l-1.6,2.06l0.06,0.29l2.18,1.35     c0.04,0.02,0.15,0.06,0.2,0.08c0.71,0.41,2.17,0.28,2.52-0.59c0.28-0.7,0.3-1.38-0.46-1.79l-2.51-1.47L240.38,247.16     L240.38,247.16z M240.66,247.58c3.39,1.98,2.75,1.76,2.73,2.06l-0.17,0.59c-0.46,0.71-1.26,0.53-1.96,0.25l-1.92-1.2     L240.66,247.58L240.66,247.58z"
   fill="#0A2240"
   clip-rule="evenodd"
   fill-rule="evenodd" />
			<path
   id="path378"
   d="M200.94,241.01l-3.06,0.7c-0.98,0.2-1.33,0.89-1.44,1.59     c-0.16,0.94,0.9,1.58,1.99,1.4l2.78-0.79l0.21-0.25l-0.19-2.48L200.94,241.01L200.94,241.01z M200.74,241.49l0.15,2.07     l-2.48,0.71l-1.07-0.19c-0.29-0.18-0.42-0.47-0.38-0.8l0.15-0.52C197.32,242.23,199.64,241.73,200.74,241.49L200.74,241.49z"
   fill="#0A2240"
   clip-rule="evenodd"
   fill-rule="evenodd" />
			<path
   id="path380"
   d="M209.2,237.17l-1.29,0.65c-4.44,1.43-8.09,0.01-10.34-2.91     l0.62,5.15l7.19-0.77l11.74,0.14l10.09,1.78l17.63,5.2l3.52-4.66c-2.27,1.2-4.17,1.9-6.82,2.08c-1.7,0.07-3.17-0.38-4.38-1.35     l-0.87-0.96l-0.41-0.79l-0.19-0.61l-0.08-0.45l-0.01-1.55c-0.61,0.78-1.03,1.28-1.95,1.73l-1.57,0.51     c-2.16,0.27-3.07-0.02-5.1-0.53c-1.89-0.48-11.82-1.66-12.47-1.7l-1.59-0.43l-0.92-0.47l-0.52-0.42     c-0.41-0.35-0.65-0.75-0.76-1.27l-0.37,0.04c-0.06,0.41-0.24,0.76-0.55,1.09L209.2,237.17L209.2,237.17z M198.53,239.69     l-0.43-3.53c2.25,2.19,7.99,3.75,11.54,1.08c0.42-0.32,0.72-0.69,0.9-1.1c0.99,1.96,4.53,2.54,6.76,2.44l9.56,1.52     c2.48,1.03,6.34,1.02,8.35-1.01l0,0.51c0.01,0.06,0.28,1.24,0.43,1.54c0.87,1.64,3,2.97,5.27,2.97c2.29-0.03,4.29-0.48,6.24-1.4     l-2.48,3.28l-17.36-5.12l-10.15-1.78l-11.79-0.14L198.53,239.69L198.53,239.69z"
   fill="#0A2240"
   clip-rule="evenodd"
   fill-rule="evenodd" />
			<path
   id="path382"
   d="M243.91,247.32c0.31,0.3,0.76,0.23,1.15,0.08     c0.92-0.35,0.1-1.28-0.15-1.62c-14.09-6.7-30.24-9.06-46.56-6.64c-1.45,0.32-1.21,1.1-1.17,1.65l0.29,0.28l0.24,0.05     c8.74-1.48,15.45-1.89,23.84-0.54l5.96,1.19l8.27,2.45l6.55,2.41L243.91,247.32L243.91,247.32z M244.63,246.03l0.37,0.47     l0.04,0.14l0.01,0.34c-0.01,0.04-0.06,0.1-0.13,0.13l-0.47,0.11c-0.1,0-0.2-0.06-0.28-0.15c-12.27-4.91-21.96-7.9-34.79-7.56     c-3.84-0.06-7.17,0.3-11.05,1.19l-0.54,0.09l-0.09-0.01c-0.04-0.02-0.09-0.06-0.13-0.13l-0.07-0.87l0.03-0.03l0.1-0.07l0.29-0.12     l0.46-0.1c8.45-1.32,15.65-1.36,23.77-0.14C230.35,240.7,237.11,242.72,244.63,246.03L244.63,246.03z"
   fill="#0A2240"
   clip-rule="evenodd"
   fill-rule="evenodd" />
			<path
   id="path384"
   d="M238.74,238.68c0.57-1.33-4.54-2.29-4.77-2.29     c-0.2,0-0.31,0-0.49,0.07c-0.43,0.14-0.39,0.54-0.16,0.79C233.41,237.34,238.02,239.96,238.74,238.68L238.74,238.68z      M238.03,238.45l-0.28-0.01l-0.7-0.12l-1.26-0.38l-1.03-0.44l-0.59-0.33l-0.29-0.21l-0.01-0.01l0.28,0.01l0.69,0.12l1.25,0.38     l1.04,0.44l0.59,0.33l0.3,0.22L238.03,238.45L238.03,238.45z"
   fill="#0A2240"
   clip-rule="evenodd"
   fill-rule="evenodd" />
			<path
   id="path386"
   d="M213.69,233.62c-0.01-1.33-5.2-0.31-5.39-0.23     c-0.17,0.07-0.26,0.11-0.4,0.22c-0.32,0.25-0.11,0.54,0.15,0.66c0.64,0.31,4.51,0.41,5.48-0.35     C213.63,233.83,213.69,233.72,213.69,233.62L213.69,233.62z M213.14,233.65l-0.04,0.03l-0.35,0.12l-0.71,0.15l-1.36,0.13     l-1.16-0.01l-0.69-0.07l-0.38-0.08l-0.14-0.06l0.05-0.03l0.34-0.12l0.71-0.15l1.36-0.13l1.16,0.01l0.69,0.07l0.38,0.08     L213.14,233.65L213.14,233.65z"
   fill="#0A2240"
   clip-rule="evenodd"
   fill-rule="evenodd" />
			<path
   id="path388"
   d="M232.14,208.49l0.62-2.47l-3.27-0.56l-0.65,2.5     c-1.18-0.19-2.24-0.21-3.48-0.08l-0.23,0.14c-0.8,1.22-0.88,2.58-0.2,3.74l0.26,0.13c3.17-0.26,6.05,0.28,8.84,1.51     c0.86-1.04,1.72-2.57,1.46-3.93l-0.24-0.25C234.85,208.93,233.08,208.64,232.14,208.49L232.14,208.49z M225.53,208.41     c0.68-0.1,1.28-0.11,1.97-0.03l1.75,0.21l0.65-2.49l2.17,0.37l-0.63,2.49c1.14,0.1,2.02,0.23,3.09,0.55l0.26,0.12     c0.05,0.03,0.1,0.06,0.13,0.11l0.05,0.34l-0.06,0.42l-0.24,0.83l-0.34,0.77l-0.23,0.38l-0.25,0.26     c-2.75-1.18-5.42-1.62-8.52-1.39C224.89,210.42,224.95,209.37,225.53,208.41L225.53,208.41z"
   fill="#0A2240"
   clip-rule="evenodd"
   fill-rule="evenodd" />
			<path
   id="path390"
   d="M231.45,206.29c0.07-0.26-0.1-0.51-0.37-0.56     c-0.27-0.05-0.54,0.13-0.61,0.39c-0.07,0.26,0.1,0.51,0.37,0.56C231.11,206.73,231.39,206.55,231.45,206.29L231.45,206.29z      M231.45,206.29c-0.06,0.26-0.34,0.44-0.61,0.39c-0.27-0.04-0.44-0.3-0.37-0.56c0.07-0.26,0.34-0.44,0.61-0.39     C231.35,205.78,231.52,206.03,231.45,206.29L231.45,206.29z"
   fill="#0A2240"
   clip-rule="evenodd"
   fill-rule="evenodd" />
			<path
   id="path392"
   d="M231.16,207.45c0.07-0.26-0.1-0.51-0.37-0.56     c-0.27-0.05-0.54,0.13-0.61,0.39c-0.07,0.26,0.1,0.51,0.37,0.56C230.82,207.89,231.09,207.71,231.16,207.45L231.16,207.45z      M231.16,207.45c-0.07,0.26-0.34,0.44-0.61,0.39c-0.27-0.05-0.44-0.3-0.37-0.56c0.07-0.26,0.34-0.44,0.61-0.39     C231.06,206.94,231.22,207.19,231.16,207.45L231.16,207.45z"
   fill="#0A2240"
   clip-rule="evenodd"
   fill-rule="evenodd" />
			<path
   id="path394"
   d="M230.85,208.66c0.07-0.26-0.1-0.51-0.37-0.56     c-0.27-0.04-0.55,0.13-0.62,0.39c-0.07,0.26,0.1,0.51,0.37,0.56C230.51,209.1,230.78,208.93,230.85,208.66L230.85,208.66z      M230.85,208.66c-0.07,0.27-0.34,0.44-0.62,0.39c-0.27-0.05-0.44-0.29-0.37-0.56c0.07-0.26,0.34-0.44,0.62-0.39     C230.75,208.15,230.91,208.4,230.85,208.66L230.85,208.66z"
   fill="#0A2240"
   clip-rule="evenodd"
   fill-rule="evenodd" />
			<path
   id="path396"
   d="M225.95,209.82c0.08-0.3-0.1-0.58-0.41-0.63     c-0.31-0.05-0.63,0.15-0.71,0.45c-0.08,0.3,0.1,0.59,0.41,0.64C225.55,210.32,225.87,210.12,225.95,209.82L225.95,209.82z      M225.95,209.82c-0.08,0.3-0.4,0.5-0.71,0.45c-0.31-0.05-0.5-0.33-0.41-0.64c0.08-0.3,0.4-0.5,0.71-0.45     C225.85,209.24,226.03,209.52,225.95,209.82L225.95,209.82z"
   fill="#0A2240"
   clip-rule="evenodd"
   fill-rule="evenodd" />
			<path
   id="path398"
   d="M227.52,209.72c0.08-0.32-0.11-0.63-0.45-0.69     c-0.33-0.06-0.68,0.16-0.77,0.48c-0.09,0.33,0.12,0.64,0.45,0.69C227.09,210.27,227.43,210.05,227.52,209.72L227.52,209.72z      M227.52,209.72c-0.09,0.33-0.43,0.54-0.77,0.49c-0.33-0.05-0.54-0.37-0.45-0.69c0.09-0.32,0.44-0.54,0.77-0.48     C227.41,209.1,227.61,209.4,227.52,209.72L227.52,209.72z"
   fill="#0A2240"
   clip-rule="evenodd"
   fill-rule="evenodd" />
			<path
   id="path400"
   d="M229.11,209.84c0.09-0.33-0.12-0.64-0.46-0.7     c-0.34-0.06-0.69,0.16-0.78,0.49c-0.09,0.33,0.12,0.64,0.46,0.7C228.67,210.39,229.02,210.17,229.11,209.84L229.11,209.84z      M229.11,209.84c-0.09,0.33-0.43,0.55-0.78,0.49c-0.34-0.06-0.55-0.37-0.46-0.7c0.09-0.33,0.44-0.55,0.78-0.49     C228.99,209.2,229.19,209.51,229.11,209.84L229.11,209.84z"
   fill="#0A2240"
   clip-rule="evenodd"
   fill-rule="evenodd" />
			<path
   id="path402"
   d="M232.08,210.29c0.08-0.32-0.13-0.63-0.46-0.69     c-0.34-0.06-0.68,0.16-0.76,0.48c-0.08,0.32,0.13,0.63,0.46,0.69C231.66,210.83,232,210.61,232.08,210.29L232.08,210.29z      M232.08,210.29c-0.08,0.32-0.42,0.54-0.76,0.49c-0.34-0.06-0.55-0.37-0.46-0.69c0.08-0.32,0.43-0.54,0.76-0.48     C231.95,209.65,232.16,209.96,232.08,210.29L232.08,210.29z"
   fill="#0A2240"
   clip-rule="evenodd"
   fill-rule="evenodd" />
			<path
   id="path404"
   d="M233.47,210.63c0.08-0.31-0.12-0.61-0.45-0.66     c-0.33-0.05-0.65,0.16-0.73,0.47c-0.08,0.31,0.12,0.6,0.45,0.66C233.07,211.14,233.39,210.94,233.47,210.63L233.47,210.63z      M233.47,210.63c-0.08,0.31-0.4,0.52-0.73,0.46c-0.33-0.05-0.52-0.35-0.45-0.66c0.08-0.31,0.4-0.52,0.73-0.47     C233.34,210.02,233.54,210.31,233.47,210.63L233.47,210.63z"
   fill="#0A2240"
   clip-rule="evenodd"
   fill-rule="evenodd" />
			<path
   id="path406"
   d="M234.84,211.13c0.07-0.31-0.13-0.59-0.45-0.65     c-0.32-0.05-0.64,0.15-0.72,0.46c-0.08,0.31,0.12,0.6,0.45,0.66C234.44,211.65,234.76,211.44,234.84,211.13L234.84,211.13z      M234.84,211.13c-0.08,0.31-0.39,0.52-0.72,0.46c-0.33-0.05-0.52-0.35-0.45-0.66c0.08-0.31,0.39-0.51,0.72-0.46     C234.71,210.53,234.91,210.82,234.84,211.13L234.84,211.13z"
   fill="#0A2240"
   clip-rule="evenodd"
   fill-rule="evenodd" />
			<path
   id="path408"
   d="M230.63,210.06c0.09-0.34-0.13-0.68-0.5-0.74     c-0.36-0.06-0.73,0.18-0.82,0.52c-0.09,0.35,0.13,0.68,0.49,0.74C230.18,210.64,230.54,210.41,230.63,210.06L230.63,210.06z      M230.63,210.06c-0.09,0.35-0.46,0.58-0.82,0.52c-0.36-0.06-0.58-0.39-0.49-0.74c0.09-0.34,0.46-0.58,0.82-0.52     C230.5,209.38,230.72,209.71,230.63,210.06L230.63,210.06z"
   fill="#0A2240"
   clip-rule="evenodd"
   fill-rule="evenodd" />
			<path
   id="path410"
   d="M237.6,239.95c-0.24-0.23-0.39-0.52-0.42-0.85     c-0.05-0.25-0.16-0.52-0.48-0.58c-0.21-0.04-0.59,0.12-0.82,0.2l-0.15,0.28c1.22,2.91,1.93,3.2,2.88,2.46     c0.51-0.41,0.86-1.65-0.03-1.92C238.16,239.42,237.78,239.65,237.6,239.95L237.6,239.95z M236.27,239.02l0.16-0.07l0.14-0.02     l0.06,0.09l0.04,0.15c0.07,0.55,0.37,1,0.89,1.35l0.41-0.2c-0.01-0.13,0.07-0.25,0.21-0.32l0.19-0.06l0.06,0.01l0.02,0.01     l0.13,0.26l-0.27,0.8l-0.23,0.22c-0.1,0.05-0.2,0.06-0.31,0.04l-0.45-0.24l-0.33-0.38L236.27,239.02L236.27,239.02z"
   fill="#0A2240"
   clip-rule="evenodd"
   fill-rule="evenodd" />
			<path
   id="path412"
   d="M213.15,235.28c-0.29-0.17-0.5-0.41-0.62-0.72     c-0.1-0.23-0.27-0.46-0.6-0.44c-0.21,0.01-0.56,0.25-0.77,0.38l-0.09,0.3c1.86,2.5,2.63,2.63,3.38,1.7     c0.41-0.51,0.47-1.78-0.47-1.83C213.58,234.63,213.27,234.95,213.15,235.28L213.15,235.28z M211.64,234.68l0.14-0.1l0.14-0.05     l0.08,0.07l0.07,0.14c0.2,0.51,0.6,0.88,1.19,1.08l0.36-0.28c-0.04-0.13,0.01-0.26,0.13-0.35l0.18-0.1l0.06,0l0.02,0.01     l0.19,0.22l-0.08,0.83l-0.17,0.26c-0.08,0.07-0.18,0.1-0.29,0.11l-0.5-0.13l-0.4-0.29L211.64,234.68L211.64,234.68z"
   fill="#0A2240"
   clip-rule="evenodd"
   fill-rule="evenodd" />
			<path
   id="path414"
   d="M208.05,235.46c-0.01-0.34-0.26-0.66-0.69-0.67     c-0.86-0.01-1.17,1.44-0.98,1.93c0.26,0.68,1.61,0.24,2.08-0.11l1.79-1.51l0.04-0.3c-0.72-0.74-1.13-0.35-1.39-0.02     C208.69,235.08,208.4,235.31,208.05,235.46L208.05,235.46z M209.75,234.98l-1.3,1.13l-0.65,0.4c-0.2,0.11-0.42,0.17-0.65,0.17     c-0.09-0.01-0.16-0.04-0.23-0.08l-0.11-0.2l-0.02-0.18l0.22-0.77l0.19-0.16l0.06-0.03l0.09,0c0.19,0.09,0.25,0.3,0.15,0.48     l0.26,0.29c0.66-0.17,1.18-0.51,1.56-1.02l0.17-0.16l0.06-0.02l0.02,0.01L209.75,234.98L209.75,234.98z"
   fill="#0A2240"
   clip-rule="evenodd"
   fill-rule="evenodd" />
			<path
   id="path416"
   d="M232.82,238.2c0.08-0.34-0.07-0.72-0.47-0.83     c-0.76-0.22-1.49,1.04-1.44,1.57c0.06,0.71,1.45,0.64,1.99,0.44l2.11-0.95l0.13-0.29c-0.49-0.92-0.98-0.64-1.31-0.38     C233.52,237.99,233.2,238.14,232.82,238.2L232.82,238.2z M234.57,238.16c-0.72,0.41-1.42,0.69-2.26,0.91     c-0.23,0.06-0.45,0.05-0.67-0.02c-0.08-0.03-0.14-0.07-0.2-0.14l-0.05-0.2l0.03-0.16l0.41-0.65l0.22-0.12l0.07-0.01l0.1,0.02     c0.15,0.14,0.16,0.36,0,0.51l0.18,0.35c0.67,0,1.25-0.2,1.75-0.6l0.21-0.12l0.06,0l0.02,0.01L234.57,238.16L234.57,238.16z"
   fill="#0A2240"
   clip-rule="evenodd"
   fill-rule="evenodd" />
		</g>
	</g>
	<path
   id="path422"
   d="M95.78,115.44c0,0,38.82-11.42,64.78-7.77   c48.92,6.88,60.81,25.11,60.81,25.11l-19.83,72.47c0,0-40.31-17.33-63.9-21.79c-21.15-4-60.15,0.91-60.15,0.91"
   fill="#0A2240"
   clip-rule="evenodd"
   fill-rule="evenodd" />
	<path
   id="path424"
   d="M272.49,162.5c0,0,45.39-5.73,69.19,0   c23.8,5.73,95.86,51.07,95.86,51.07s-82.64-25.58-175.42-9.69"
   fill="#0A2240"
   clip-rule="evenodd"
   fill-rule="evenodd" />
	<path
   id="path426"
   d="M65.65,235.98c0,0,27.9-9.38,50.4-6.06   c26.88,3.97,27.78,6.63,49.8,14.1c18.12,6.15,22.91,7.05,22.91,7.05l-18.51,67.87c0,0-35.03-5.45-66.69-1.98   c-18.39,2.01-65.08,32.83-65.08,32.83"
   fill="#0A2240"
   clip-rule="evenodd"
   fill-rule="evenodd" />
	<path
   id="path428"
   d="M248.74,251.85c0,0,44.13-14.21,84.62-10.03   c46.08,4.76,100.47,20.27,100.47,20.27s-58.83,7.11-96.51,17.19c-20.73,5.55-74.03,28.2-85.05,33.05   c-11.02,4.85-22.7,4.42-22.7,4.42"
   fill="#0A2240"
   clip-rule="evenodd"
   fill-rule="evenodd" />
	<path
   id="path430"
   d="M94.58,114.87c0,0,53.86-14.9,86.58-3.81   c42.68,14.46,70.24,46.78,91.33,51.45c25.67,0.77,30.4-8.7,69.19,0c38.78,8.7,104.55,59.93,145.74,81.15   c-32.26,15.47-37.22,14.8-55.84,18.72c-115.24,11.29-160.19,48.54-201.99,54.37c-57.67,9.47-76.84-4.42-123.58-0.23   c-30.94,5.95-69.19,33.34-69.19,33.34L94.58,114.87z"
   stroke-width="2.4462"
   stroke="#000000"
   fill="none" />
	<path
   d="M 83.110001,113.7 12.58,393.06"
   style="fill:none;stroke:#000000;stroke-width:11.7601;stroke-linecap:round"
   id="line432" />
</g>
</svg>
